Arya-Regular.ufo
<glyph name="exclam" format="1">
  <advance width="233"/>
  <unicode hex="0021"/>
  <outline>
	<contour>
	  <point x="66" y="511" type="line"/>
	  <point x="66" y="381" type="line"/>
	  <point x="87" y="149" type="line"/>
	  <point x="145" y="149" type="line"/>
	  <point x="166" y="381" type="line"/>
	  <point x="166" y="511" type="line"/>
	</contour>
	<contour>
	  <point x="146" y="-6"/>
	  <point x="171" y="19"/>
	  <point x="171" y="49" type="curve" smooth="yes"/>
	  <point x="171" y="80"/>
	  <point x="146" y="104"/>
	  <point x="116" y="104" type="curve" smooth="yes"/>
	  <point x="86" y="104"/>
	  <point x="61" y="80"/>
	  <point x="61" y="49" type="curve" smooth="yes"/>
	  <point x="61" y="20"/>
	  <point x="86" y="-6"/>
	  <point x="116" y="-6" type="curve" smooth="yes"/>
	</contour>
  </outline>
</glyph>
<glyph name="numbersign" format="1">
  <advance width="584"/>
  <unicode hex="0023"/>
  <outline>
	<contour>
	  <point x="71" y="-53" type="line"/>
	  <point x="171" y="-53" type="line"/>
	  <point x="283" y="564" type="line"/>
	  <point x="183" y="564" type="line"/>
	</contour>
	<contour>
	  <point x="301" y="-53" type="line"/>
	  <point x="401" y="-53" type="line"/>
	  <point x="513" y="564" type="line"/>
	  <point x="413" y="564" type="line"/>
	</contour>
	<contour>
	  <point x="29" y="107" type="line"/>
	  <point x="501" y="107" type="line"/>
	  <point x="515" y="184" type="line"/>
	  <point x="43" y="184" type="line"/>
	</contour>
	<contour>
	  <point x="69" y="326" type="line"/>
	  <point x="541" y="326" type="line"/>
	  <point x="554" y="403" type="line"/>
	  <point x="83" y="403" type="line"/>
	</contour>
  </outline>
</glyph>
<glyph name="dollar" format="1">
  <advance width="441"/>
  <unicode hex="0024"/>
  <outline>
	<contour>
	  <point x="240" y="209" type="line"/>
	  <point x="288" y="199"/>
	  <point x="307" y="170"/>
	  <point x="307" y="124" type="curve" smooth="yes"/>
	  <point x="307" y="68"/>
	  <point x="287" y="35"/>
	  <point x="220" y="35" type="curve" smooth="yes"/>
	  <point x="153" y="35"/>
	  <point x="132" y="80"/>
	  <point x="132" y="149" type="curve"/>
	  <point x="45" y="143" type="line"/>
	  <point x="45" y="46"/>
	  <point x="88" y="-5"/>
	  <point x="220" y="-5" type="curve" smooth="yes"/>
	  <point x="356" y="-5"/>
	  <point x="405" y="53"/>
	  <point x="405" y="140" type="curve" smooth="yes"/>
	  <point x="405" y="227"/>
	  <point x="362" y="280"/>
	  <point x="265" y="293" type="curve" smooth="yes"/>
	  <point x="205" y="300" type="line" smooth="yes"/>
	  <point x="160" y="306"/>
	  <point x="147" y="338"/>
	  <point x="147" y="384" type="curve" smooth="yes"/>
	  <point x="147" y="441"/>
	  <point x="164" y="475"/>
	  <point x="222" y="475" type="curve" smooth="yes"/>
	  <point x="287" y="475"/>
	  <point x="306" y="435"/>
	  <point x="306" y="362" type="curve"/>
	  <point x="394" y="368" type="line"/>
	  <point x="394" y="465"/>
	  <point x="350" y="515"/>
	  <point x="221" y="515" type="curve" smooth="yes"/>
	  <point x="94" y="515"/>
	  <point x="48" y="458"/>
	  <point x="48" y="366" type="curve" smooth="yes"/>
	  <point x="48" y="280"/>
	  <point x="87" y="232"/>
	  <point x="180" y="218" type="curve" smooth="yes"/>
	</contour>
	<contour>
	  <point x="256" y="497" type="line"/>
	  <point x="256" y="590" type="line"/>
	  <point x="189" y="590" type="line"/>
	  <point x="189" y="497" type="line"/>
	</contour>
	<contour>
	  <point x="189" y="15" type="line"/>
	  <point x="189" y="-79" type="line"/>
	  <point x="256" y="-79" type="line"/>
	  <point x="256" y="15" type="line"/>
	</contour>
  </outline>
</glyph>
<glyph name="ampersand" format="1">
  <advance width="453"/>
  <unicode hex="0026"/>
  <outline>
	<contour>
	  <point x="352" y="414" type="line"/>
	  <point x="340" y="488"/>
	  <point x="298" y="521"/>
	  <point x="203" y="521" type="curve" smooth="yes"/>
	  <point x="84" y="521"/>
	  <point x="40" y="459"/>
	  <point x="40" y="381" type="curve" smooth="yes"/>
	  <point x="40" y="324"/>
	  <point x="76" y="280"/>
	  <point x="124" y="264" type="curve"/>
	  <point x="66" y="248"/>
	  <point x="26" y="202"/>
	  <point x="26" y="132" type="curve" smooth="yes"/>
	  <point x="26" y="66"/>
	  <point x="72" y="-11"/>
	  <point x="202" y="-11" type="curve" smooth="yes"/>
	  <point x="353" y="-11"/>
	  <point x="381" y="59"/>
	  <point x="381" y="145" type="curve" smooth="yes"/>
	  <point x="381" y="232" type="line"/>
	  <point x="458" y="232" type="line"/>
	  <point x="458" y="283" type="line"/>
	  <point x="221" y="283" type="line"/>
	  <point x="221" y="232" type="line"/>
	  <point x="293" y="232" type="line"/>
	  <point x="293" y="137" type="line" smooth="yes"/>
	  <point x="293" y="72"/>
	  <point x="271" y="29"/>
	  <point x="210" y="29" type="curve" smooth="yes"/>
	  <point x="149" y="29"/>
	  <point x="125" y="76"/>
	  <point x="125" y="132" type="curve" smooth="yes"/>
	  <point x="125" y="205"/>
	  <point x="159" y="232"/>
	  <point x="221" y="232" type="curve"/>
	  <point x="221" y="283" type="line"/>
	  <point x="213" y="283" type="line" smooth="yes"/>
	  <point x="165" y="283"/>
	  <point x="139" y="324"/>
	  <point x="139" y="381" type="curve" smooth="yes"/>
	  <point x="139" y="444"/>
	  <point x="156" y="481"/>
	  <point x="203" y="481" type="curve" smooth="yes"/>
	  <point x="242" y="481"/>
	  <point x="262" y="449"/>
	  <point x="267" y="388" type="curve"/>
	</contour>
  </outline>
</glyph>
<glyph name="parenleft" format="1">
  <advance width="225"/>
  <unicode hex="0028"/>
  <outline>
	<contour>
	  <point x="218" y="15" type="line"/>
	  <point x="149" y="15"/>
	  <point x="127" y="149"/>
	  <point x="127" y="255" type="curve" smooth="yes"/>
	  <point x="127" y="362"/>
	  <point x="149" y="495"/>
	  <point x="218" y="495" type="curve"/>
	  <point x="218" y="536" type="line"/>
	  <point x="58" y="536"/>
	  <point x="23" y="382"/>
	  <point x="23" y="255" type="curve" smooth="yes"/>
	  <point x="23" y="127"/>
	  <point x="58" y="-25"/>
	  <point x="218" y="-25" type="curve"/>
	</contour>
  </outline>
</glyph>
<glyph name="asterisk" format="1">
  <advance width="390"/>
  <unicode hex="002A"/>
  <outline>
	<contour>
	  <point x="148" y="545" type="line"/>
	  <point x="148" y="478" type="line"/>
	  <point x="181" y="404" type="line"/>
	  <point x="210" y="404" type="line"/>
	  <point x="242" y="478" type="line"/>
	  <point x="242" y="545" type="line"/>
	</contour>
	<contour>
	  <point x="16" y="387" type="line"/>
	  <point x="81" y="365" type="line"/>
	  <point x="160" y="368" type="line"/>
	  <point x="168" y="395" type="line"/>
	  <point x="107" y="443" type="line"/>
	  <point x="42" y="464" type="line"/>
	</contour>
	<contour>
	  <point x="128" y="204" type="line"/>
	  <point x="169" y="262" type="line"/>
	  <point x="187" y="336" type="line"/>
	  <point x="164" y="355" type="line"/>
	  <point x="97" y="315" type="line"/>
	  <point x="57" y="257" type="line"/>
	</contour>
	<contour>
	  <point x="333" y="257" type="line"/>
	  <point x="292" y="315" type="line"/>
	  <point x="226" y="354" type="line"/>
	  <point x="202" y="336" type="line"/>
	  <point x="220" y="262" type="line"/>
	  <point x="261" y="204" type="line"/>
	</contour>
	<contour>
	  <point x="347" y="464" type="line"/>
	  <point x="282" y="443" type="line"/>
	  <point x="222" y="395" type="line"/>
	  <point x="231" y="367" type="line"/>
	  <point x="309" y="365" type="line"/>
	  <point x="374" y="387" type="line"/>
	</contour>
  </outline>
</glyph>
<glyph name="period" format="1">
  <advance width="153"/>
  <unicode hex="002E"/>
  <outline>
	<contour>
	  <point x="107" y="-6"/>
	  <point x="131" y="19"/>
	  <point x="131" y="49" type="curve" smooth="yes"/>
	  <point x="131" y="80"/>
	  <point x="107" y="104"/>
	  <point x="76" y="104" type="curve" smooth="yes"/>
	  <point x="46" y="104"/>
	  <point x="22" y="80"/>
	  <point x="22" y="49" type="curve" smooth="yes"/>
	  <point x="22" y="20"/>
	  <point x="46" y="-6"/>
	  <point x="76" y="-6" type="curve" smooth="yes"/>
	</contour>
  </outline>
</glyph>
<glyph name="zero" format="1">
  <advance width="454"/>
  <unicode hex="0030"/>
  <outline>
	<contour>
	  <point x="384" y="-10"/>
	  <point x="419" y="107"/>
	  <point x="419" y="255" type="curve" smooth="yes"/>
	  <point x="419" y="403"/>
	  <point x="384" y="522"/>
	  <point x="226" y="522" type="curve" smooth="yes"/>
	  <point x="71" y="522"/>
	  <point x="35" y="403"/>
	  <point x="35" y="255" type="curve" smooth="yes"/>
	  <point x="35" y="107"/>
	  <point x="71" y="-10"/>
	  <point x="226" y="-10" type="curve" smooth="yes"/>
	</contour>
	<contour>
	  <point x="152" y="30"/>
	  <point x="135" y="134"/>
	  <point x="135" y="255" type="curve" smooth="yes"/>
	  <point x="135" y="399"/>
	  <point x="152" y="481"/>
	  <point x="226" y="481" type="curve" smooth="yes"/>
	  <point x="303" y="481"/>
	  <point x="320" y="399"/>
	  <point x="320" y="255" type="curve" smooth="yes"/>
	  <point x="320" y="134"/>
	  <point x="303" y="30"/>
	  <point x="226" y="30" type="curve" smooth="yes"/>
	</contour>
  </outline>
</glyph>
<glyph name="three" format="1">
  <advance width="454"/>
  <unicode hex="0033"/>
  <outline>
	<contour>
	  <point x="135" y="365" type="line"/>
	  <point x="138" y="442"/>
	  <point x="166" y="480"/>
	  <point x="217" y="480" type="curve" smooth="yes"/>
	  <point x="270" y="480"/>
	  <point x="297" y="450"/>
	  <point x="297" y="389" type="curve" smooth="yes"/>
	  <point x="297" y="319"/>
	  <point x="276" y="276"/>
	  <point x="205" y="276" type="curve" smooth="yes"/>
	  <point x="148" y="276" type="line"/>
	  <point x="148" y="247" type="line"/>
	  <point x="217" y="247" type="line" smooth="yes"/>
	  <point x="309" y="247"/>
	  <point x="396" y="292"/>
	  <point x="396" y="388" type="curve" smooth="yes"/>
	  <point x="396" y="466"/>
	  <point x="336" y="521"/>
	  <point x="217" y="521" type="curve" smooth="yes"/>
	  <point x="109" y="521"/>
	  <point x="56" y="475"/>
	  <point x="49" y="377" type="curve"/>
	</contour>
	<contour>
	  <point x="40" y="126" type="line"/>
	  <point x="48" y="32"/>
	  <point x="104" y="-10"/>
	  <point x="214" y="-10" type="curve" smooth="yes"/>
	  <point x="336" y="-10"/>
	  <point x="402" y="48"/>
	  <point x="402" y="128" type="curve" smooth="yes"/>
	  <point x="402" y="221"/>
	  <point x="322" y="258"/>
	  <point x="224" y="258" type="curve" smooth="yes"/>
	  <point x="148" y="258" type="line"/>
	  <point x="148" y="229" type="line"/>
	  <point x="205" y="229" type="line" smooth="yes"/>
	  <point x="261" y="229"/>
	  <point x="304" y="208"/>
	  <point x="304" y="128" type="curve" smooth="yes"/>
	  <point x="304" y="63"/>
	  <point x="273" y="31"/>
	  <point x="214" y="31" type="curve" smooth="yes"/>
	  <point x="162" y="31"/>
	  <point x="131" y="67"/>
	  <point x="126" y="137" type="curve"/>
	</contour>
  </outline>
</glyph>
<glyph name="four" format="1">
  <advance width="454"/>
  <unicode hex="0034"/>
  <outline>
	<contour>
	  <point x="214" y="511" type="line"/>
	  <point x="16" y="163" type="line"/>
	  <point x="16" y="101" type="line"/>
	  <point x="415" y="101" type="line"/>
	  <point x="415" y="179" type="line"/>
	  <point x="98" y="179" type="line"/>
	  <point x="285" y="511" type="line"/>
	</contour>
	<contour>
	  <point x="361" y="0" type="line"/>
	  <point x="361" y="511" type="line"/>
	  <point x="262" y="511" type="line"/>
	  <point x="262" y="0" type="line"/>
	</contour>
  </outline>
</glyph>
<glyph name="six" format="1">
  <advance width="454"/>
  <unicode hex="0036"/>
  <outline>
	<contour>
	  <point x="405" y="372" type="line"/>
	  <point x="400" y="472"/>
	  <point x="344" y="521"/>
	  <point x="234" y="521" type="curve" smooth="yes"/>
	  <point x="83" y="521"/>
	  <point x="42" y="398"/>
	  <point x="42" y="234" type="curve" smooth="yes"/>
	  <point x="42" y="99"/>
	  <point x="92" y="-10"/>
	  <point x="233" y="-10" type="curve" smooth="yes"/>
	  <point x="359" y="-10"/>
	  <point x="417" y="50"/>
	  <point x="417" y="155" type="curve" smooth="yes"/>
	  <point x="417" y="240"/>
	  <point x="371" y="299"/>
	  <point x="249" y="299" type="curve" smooth="yes"/>
	  <point x="205" y="299"/>
	  <point x="162" y="290"/>
	  <point x="108" y="264" type="curve"/>
	  <point x="108" y="224" type="line"/>
	  <point x="152" y="249"/>
	  <point x="184" y="260"/>
	  <point x="225" y="260" type="curve" smooth="yes"/>
	  <point x="298" y="260"/>
	  <point x="320" y="207"/>
	  <point x="320" y="155" type="curve" smooth="yes"/>
	  <point x="320" y="76"/>
	  <point x="295" y="30"/>
	  <point x="233" y="30" type="curve" smooth="yes"/>
	  <point x="165" y="30"/>
	  <point x="140" y="85"/>
	  <point x="140" y="249" type="curve" smooth="yes"/>
	  <point x="140" y="392"/>
	  <point x="153" y="481"/>
	  <point x="234" y="481" type="curve" smooth="yes"/>
	  <point x="290" y="481"/>
	  <point x="317" y="439"/>
	  <point x="319" y="363" type="curve"/>
	</contour>
  </outline>
</glyph>
<glyph name="eight" format="1">
  <advance width="454"/>
  <unicode hex="0038"/>
  <outline>
	<contour>
	  <point x="201" y="268" type="line"/>
	  <point x="97" y="252"/>
	  <point x="39" y="211"/>
	  <point x="39" y="128" type="curve" smooth="yes"/>
	  <point x="39" y="49"/>
	  <point x="109" y="-10"/>
	  <point x="227" y="-10" type="curve" smooth="yes"/>
	  <point x="344" y="-10"/>
	  <point x="415" y="49"/>
	  <point x="415" y="128" type="curve" smooth="yes"/>
	  <point x="415" y="212"/>
	  <point x="351" y="258"/>
	  <point x="247" y="273" type="curve" smooth="yes"/>
	  <point x="224" y="278" type="line" smooth="yes"/>
	  <point x="162" y="287"/>
	  <point x="146" y="325"/>
	  <point x="146" y="383" type="curve" smooth="yes"/>
	  <point x="146" y="437"/>
	  <point x="168" y="481"/>
	  <point x="227" y="481" type="curve" smooth="yes"/>
	  <point x="285" y="481"/>
	  <point x="308" y="437"/>
	  <point x="308" y="383" type="curve" smooth="yes"/>
	  <point x="308" y="327"/>
	  <point x="287" y="280"/>
	  <point x="239" y="271" type="curve"/>
	  <point x="245" y="240" type="line"/>
	  <point x="348" y="256"/>
	  <point x="408" y="298"/>
	  <point x="408" y="383" type="curve" smooth="yes"/>
	  <point x="408" y="458"/>
	  <point x="349" y="521"/>
	  <point x="227" y="521" type="curve" smooth="yes"/>
	  <point x="104" y="521"/>
	  <point x="46" y="458"/>
	  <point x="46" y="383" type="curve" smooth="yes"/>
	  <point x="46" y="301"/>
	  <point x="101" y="259"/>
	  <point x="208" y="241" type="curve" smooth="yes"/>
	  <point x="232" y="238" type="line" smooth="yes"/>
	  <point x="284" y="229"/>
	  <point x="315" y="186"/>
	  <point x="315" y="128" type="curve" smooth="yes"/>
	  <point x="315" y="72"/>
	  <point x="285" y="30"/>
	  <point x="226" y="30" type="curve" smooth="yes"/>
	  <point x="167" y="30"/>
	  <point x="139" y="73"/>
	  <point x="139" y="128" type="curve" smooth="yes"/>
	  <point x="139" y="189"/>
	  <point x="160" y="233"/>
	  <point x="207" y="242" type="curve"/>
	</contour>
  </outline>
</glyph>
<glyph name="less" format="1">
  <advance width="406"/>
  <unicode hex="003C"/>
  <outline>
	<contour>
	  <point x="62" y="180" type="line"/>
	  <point x="344" y="59" type="line"/>
	  <point x="344" y="133" type="line"/>
	  <point x="62" y="247" type="line"/>
	</contour>
	<contour>
	  <point x="62" y="197" type="line"/>
	  <point x="344" y="310" type="line"/>
	  <point x="344" y="385" type="line"/>
	  <point x="62" y="264" type="line"/>
	</contour>
  </outline>
</glyph>
<glyph name="question" format="1">
  <advance width="358"/>
  <unicode hex="003F"/>
  <outline>
	<contour>
	  <point x="107" y="371" type="line"/>
	  <point x="112" y="437"/>
	  <point x="132" y="481"/>
	  <point x="181" y="481" type="curve" smooth="yes"/>
	  <point x="224" y="481"/>
	  <point x="248" y="457"/>
	  <point x="248" y="397" type="curve" smooth="yes"/>
	  <point x="248" y="317"/>
	  <point x="216" y="267"/>
	  <point x="127" y="227" type="curve"/>
	  <point x="134" y="149" type="line"/>
	  <point x="196" y="149" type="line"/>
	  <point x="204" y="227" type="line"/>
	  <point x="279" y="250"/>
	  <point x="343" y="300"/>
	  <point x="343" y="382" type="curve" smooth="yes"/>
	  <point x="343" y="453"/>
	  <point x="292" y="521"/>
	  <point x="181" y="521" type="curve" smooth="yes"/>
	  <point x="85" y="521"/>
	  <point x="31" y="470"/>
	  <point x="22" y="383" type="curve"/>
	</contour>
	<contour>
	  <point x="195" y="-6"/>
	  <point x="220" y="19"/>
	  <point x="220" y="49" type="curve" smooth="yes"/>
	  <point x="220" y="80"/>
	  <point x="195" y="104"/>
	  <point x="165" y="104" type="curve" smooth="yes"/>
	  <point x="135" y="104"/>
	  <point x="111" y="80"/>
	  <point x="111" y="49" type="curve" smooth="yes"/>
	  <point x="111" y="20"/>
	  <point x="135" y="-6"/>
	  <point x="165" y="-6" type="curve" smooth="yes"/>
	</contour>
  </outline>
</glyph>
<glyph name="at" format="1">
  <advance width="740"/>
  <unicode hex="0040"/>
  <outline>
	<contour>
	  <point x="689" y="437"/>
	  <point x="564" y="520"/>
	  <point x="377" y="520" type="curve" smooth="yes"/>
	  <point x="141" y="520"/>
	  <point x="50" y="387"/>
	  <point x="50" y="224" type="curve" smooth="yes"/>
	  <point x="50" y="14"/>
	  <point x="180" y="-68"/>
	  <point x="376" y="-68" type="curve"/>
	  <point x="376" y="-35" type="line"/>
	  <point x="208" y="-35"/>
	  <point x="143" y="68"/>
	  <point x="143" y="224" type="curve" smooth="yes"/>
	  <point x="143" y="399"/>
	  <point x="236" y="487"/>
	  <point x="377" y="487" type="curve" smooth="yes"/>
	  <point x="539" y="487"/>
	  <point x="602" y="387"/>
	  <point x="602" y="271" type="curve" smooth="yes"/>
	  <point x="602" y="180"/>
	  <point x="571" y="128"/>
	  <point x="519" y="128" type="curve" smooth="yes"/>
	  <point x="504" y="128" type="line"/>
	  <point x="504" y="396" type="line"/>
	  <point x="466" y="396" type="line"/>
	  <point x="448" y="374" type="line"/>
	  <point x="416" y="390"/>
	  <point x="384" y="396"/>
	  <point x="355" y="396" type="curve" smooth="yes"/>
	  <point x="253" y="396"/>
	  <point x="213" y="332"/>
	  <point x="213" y="238" type="curve" smooth="yes"/>
	  <point x="213" y="126"/>
	  <point x="261" y="81"/>
	  <point x="332" y="81" type="curve" smooth="yes"/>
	  <point x="369" y="81"/>
	  <point x="397" y="93"/>
	  <point x="422" y="117" type="curve"/>
	  <point x="441" y="88" type="line"/>
	  <point x="528" y="88" type="line" smooth="yes"/>
	  <point x="644" y="88"/>
	  <point x="689" y="174"/>
	  <point x="689" y="271" type="curve" smooth="yes"/>
	</contour>
	<contour>
	  <point x="320" y="120"/>
	  <point x="302" y="168"/>
	  <point x="302" y="238" type="curve" smooth="yes"/>
	  <point x="302" y="322"/>
	  <point x="331" y="356"/>
	  <point x="374" y="356" type="curve" smooth="yes"/>
	  <point x="394" y="356"/>
	  <point x="405" y="354"/>
	  <point x="415" y="350" type="curve"/>
	  <point x="415" y="140" type="line"/>
	  <point x="399" y="125"/>
	  <point x="383" y="120"/>
	  <point x="365" y="120" type="curve" smooth="yes"/>
	</contour>
	<contour>
	  <point x="376" y="-68" type="line"/>
	  <point x="498" y="-68" type="line"/>
	  <point x="498" y="-35" type="line"/>
	  <point x="376" y="-35" type="line"/>
	</contour>
  </outline>
</glyph>
<glyph name="B" format="1">
  <advance width="439"/>
  <unicode hex="0042"/>
  <outline>
	<contour>
	  <point x="64" y="511" type="line"/>
	  <point x="64" y="0" type="line"/>
	  <point x="164" y="0" type="line"/>
	  <point x="164" y="511" type="line"/>
	</contour>
	<contour>
	  <point x="251" y="0" type="line" smooth="yes"/>
	  <point x="383" y="0"/>
	  <point x="416" y="71"/>
	  <point x="416" y="137" type="curve" smooth="yes"/>
	  <point x="416" y="202"/>
	  <point x="376" y="273"/>
	  <point x="251" y="273" type="curve" smooth="yes"/>
	  <point x="64" y="273" type="line"/>
	  <point x="64" y="0" type="line"/>
	</contour>
	<contour>
	  <point x="164" y="37" type="line"/>
	  <point x="164" y="243" type="line"/>
	  <point x="239" y="243" type="line" smooth="yes"/>
	  <point x="292" y="243"/>
	  <point x="316" y="192"/>
	  <point x="316" y="137" type="curve" smooth="yes"/>
	  <point x="316" y="73"/>
	  <point x="293" y="37"/>
	  <point x="239" y="37" type="curve" smooth="yes"/>
	</contour>
	<contour>
	  <point x="228" y="249" type="line" smooth="yes"/>
	  <point x="366" y="249"/>
	  <point x="394" y="318"/>
	  <point x="394" y="380" type="curve" smooth="yes"/>
	  <point x="394" y="444"/>
	  <point x="359" y="511"/>
	  <point x="228" y="511" type="curve" smooth="yes"/>
	  <point x="64" y="511" type="line"/>
	  <point x="64" y="249" type="line"/>
	</contour>
	<contour>
	  <point x="164" y="279" type="line"/>
	  <point x="164" y="474" type="line"/>
	  <point x="220" y="474" type="line" smooth="yes"/>
	  <point x="267" y="474"/>
	  <point x="294" y="444"/>
	  <point x="294" y="379" type="curve" smooth="yes"/>
	  <point x="294" y="327"/>
	  <point x="279" y="279"/>
	  <point x="220" y="279" type="curve" smooth="yes"/>
	</contour>
  </outline>
</glyph>
<glyph name="D" format="1">
  <advance width="504"/>
  <unicode hex="0044"/>
  <outline>
	<contour>
	  <point x="64" y="511" type="line"/>
	  <point x="64" y="0" type="line"/>
	  <point x="164" y="0" type="line"/>
	  <point x="164" y="511" type="line"/>
	</contour>
	<contour>
	  <point x="164" y="511" type="line"/>
	  <point x="164" y="474" type="line"/>
	  <point x="228" y="474" type="line" smooth="yes"/>
	  <point x="336" y="474"/>
	  <point x="356" y="374"/>
	  <point x="356" y="255" type="curve" smooth="yes"/>
	  <point x="356" y="137"/>
	  <point x="336" y="37"/>
	  <point x="228" y="37" type="curve" smooth="yes"/>
	  <point x="164" y="37" type="line"/>
	  <point x="164" y="0" type="line"/>
	  <point x="242" y="0" type="line" smooth="yes"/>
	  <point x="420" y="0"/>
	  <point x="457" y="112"/>
	  <point x="457" y="255" type="curve" smooth="yes"/>
	  <point x="457" y="398"/>
	  <point x="420" y="511"/>
	  <point x="242" y="511" type="curve" smooth="yes"/>
	</contour>
	<contour>
	  <point x="250" y="255" type="move" name="center"/>
	</contour>
	<contour>
	  <point x="250" y="511" type="move" name="top"/>
	</contour>
  </outline>
</glyph>
<glyph name="F" format="1">
  <advance width="358"/>
  <unicode hex="0046"/>
  <outline>
	<contour>
	  <point x="64" y="455" type="line"/>
	  <point x="341" y="455" type="line"/>
	  <point x="341" y="511" type="line"/>
	  <point x="64" y="511" type="line"/>
	</contour>
	<contour>
	  <point x="64" y="455" type="line"/>
	  <point x="64" y="0" type="line"/>
	  <point x="164" y="0" type="line"/>
	  <point x="164" y="455" type="line"/>
	</contour>
	<contour>
	  <point x="64" y="232" type="line"/>
	  <point x="317" y="232" type="line"/>
	  <point x="317" y="287" type="line"/>
	  <point x="64" y="287" type="line"/>
	</contour>
  </outline>
</glyph>
<glyph name="G" format="1">
  <advance width="487"/>
  <unicode hex="0047"/>
  <outline>
	<contour>
	  <point x="380" y="0" type="line"/>
	  <point x="429" y="0" type="line"/>
	  <point x="429" y="262" type="line"/>
	  <point x="343" y="262" type="line"/>
	  <point x="343" y="108" type="line"/>
	</contour>
	<contour>
	  <point x="256" y="213" type="line"/>
	  <point x="429" y="213" type="line"/>
	  <point x="429" y="262" type="line"/>
	  <point x="256" y="262" type="line"/>
	</contour>
	<contour>
	  <point x="37" y="91"/>
	  <point x="79" y="-10"/>
	  <point x="237" y="-10" type="curve" smooth="yes"/>
	  <point x="366" y="-10"/>
	  <point x="395" y="122"/>
	  <point x="402" y="187" type="curve"/>
	  <point x="343" y="181" type="line"/>
	  <point x="342" y="76"/>
	  <point x="306" y="32"/>
	  <point x="237" y="32" type="curve" smooth="yes"/>
	  <point x="156" y="32"/>
	  <point x="137" y="110"/>
	  <point x="137" y="255" type="curve" smooth="yes"/>
	  <point x="137" y="410"/>
	  <point x="158" y="479"/>
	  <point x="246" y="479" type="curve" smooth="yes"/>
	  <point x="307" y="479"/>
	  <point x="331" y="435"/>
	  <point x="337" y="366" type="curve"/>
	  <point x="417" y="379" type="line"/>
	  <point x="407" y="465"/>
	  <point x="370" y="521"/>
	  <point x="246" y="521" type="curve" smooth="yes"/>
	  <point x="82" y="521"/>
	  <point x="37" y="426"/>
	  <point x="37" y="255" type="curve" smooth="yes"/>
	</contour>
	<contour>
	  <point x="244" y="511" type="move" name="top"/>
	</contour>
	<contour>
	  <point x="244" y="0" type="move" name="bottom"/>
	</contour>
  </outline>
</glyph>
<glyph name="I" format="1">
  <advance width="229"/>
  <unicode hex="0049"/>
  <outline>
	<contour>
	  <point x="64" y="511" type="line"/>
	  <point x="64" y="0" type="line"/>
	  <point x="164" y="0" type="line"/>
	  <point x="164" y="511" type="line"/>
	</contour>
	<contour>
	  <point x="200" y="7" type="move" name="ogonek"/>
	</contour>
	<contour>
	  <point x="115" y="511" type="move" name="top"/>
	</contour>
  </outline>
</glyph>
<glyph name="J" format="1">
  <advance width="342"/>
  <unicode hex="004A"/>
  <outline>
	<contour>
	  <point x="287" y="511" type="line"/>
	  <point x="187" y="511" type="line"/>
	  <point x="187" y="128" type="line" smooth="yes"/>
	  <point x="187" y="59"/>
	  <point x="176" y="32"/>
	  <point x="138" y="32" type="curve" smooth="yes"/>
	  <point x="100" y="32"/>
	  <point x="88" y="64"/>
	  <point x="88" y="147" type="curve"/>
	  <point x="1" y="147" type="line"/>
	  <point x="1" y="57"/>
	  <point x="6" y="-10"/>
	  <point x="136" y="-10" type="curve" smooth="yes"/>
	  <point x="274" y="-10"/>
	  <point x="287" y="56"/>
	  <point x="287" y="128" type="curve" smooth="yes"/>
	</contour>
	<contour>
	  <point x="237" y="511" type="move" name="top"/>
	</contour>
  </outline>
</glyph>
<glyph name="N" format="1">
  <advance width="533"/>
  <unicode hex="004E"/>
  <outline>
	<contour>
	  <point x="65" y="511" type="line"/>
	  <point x="65" y="0" type="line"/>
	  <point x="124" y="0" type="line"/>
	  <point x="124" y="511" type="line"/>
	</contour>
	<contour>
	  <point x="409" y="511" type="line"/>
	  <point x="409" y="0" type="line"/>
	  <point x="468" y="0" type="line"/>
	  <point x="468" y="511" type="line"/>
	</contour>
	<contour>
	  <point x="65" y="511" type="line"/>
	  <point x="362" y="0" type="line"/>
	  <point x="468" y="0" type="line"/>
	  <point x="171" y="511" type="line"/>
	</contour>
	<contour>
	  <point x="267" y="511" type="move" name="top"/>
	</contour>
	<contour>
	  <point x="267" y="0" type="move" name="bottom"/>
	</contour>
  </outline>
</glyph>
<glyph name="P" format="1">
  <advance width="419"/>
  <unicode hex="0050"/>
  <outline>
	<contour>
	  <point x="64" y="469" type="line"/>
	  <point x="64" y="0" type="line"/>
	  <point x="164" y="0" type="line"/>
	  <point x="164" y="469" type="line"/>
	</contour>
	<contour>
	  <point x="244" y="181" type="line" smooth="yes"/>
	  <point x="373" y="181"/>
	  <point x="408" y="260"/>
	  <point x="408" y="345" type="curve" smooth="yes"/>
	  <point x="408" y="431"/>
	  <point x="373" y="511"/>
	  <point x="244" y="511" type="curve" smooth="yes"/>
	  <point x="64" y="511" type="line"/>
	  <point x="64" y="181" type="line"/>
	</contour>
	<contour>
	  <point x="164" y="217" type="line"/>
	  <point x="164" y="474" type="line"/>
	  <point x="228" y="474" type="line" smooth="yes"/>
	  <point x="284" y="474"/>
	  <point x="308" y="425"/>
	  <point x="308" y="345" type="curve" smooth="yes"/>
	  <point x="308" y="266"/>
	  <point x="284" y="217"/>
	  <point x="228" y="217" type="curve" smooth="yes"/>
	</contour>
  </outline>
</glyph>
<glyph name="S" format="1">
  <advance width="429"/>
  <unicode hex="0053"/>
  <outline>
	<contour>
	  <point x="100" y="521"/>
	  <point x="40" y="469"/>
	  <point x="40" y="369" type="curve" smooth="yes"/>
	  <point x="40" y="282"/>
	  <point x="76" y="239"/>
	  <point x="173" y="216" type="curve" smooth="yes"/>
	  <point x="213" y="206" type="line" smooth="yes"/>
	  <point x="294" y="187"/>
	  <point x="317" y="168"/>
	  <point x="317" y="118" type="curve" smooth="yes"/>
	  <point x="317" y="62"/>
	  <point x="281" y="31"/>
	  <point x="215" y="31" type="curve" smooth="yes"/>
	  <point x="153" y="31"/>
	  <point x="117" y="76"/>
	  <point x="109" y="156" type="curve"/>
	  <point x="29" y="144" type="line"/>
	  <point x="42" y="39"/>
	  <point x="101" y="-10"/>
	  <point x="215" y="-10" type="curve" smooth="yes"/>
	  <point x="334" y="-10"/>
	  <point x="399" y="43"/>
	  <point x="399" y="141" type="curve" smooth="yes"/>
	  <point x="399" y="226"/>
	  <point x="362" y="268"/>
	  <point x="264" y="293" type="curve" smooth="yes"/>
	  <point x="219" y="305" type="line" smooth="yes"/>
	  <point x="145" y="324"/>
	  <point x="121" y="343"/>
	  <point x="121" y="393" type="curve" smooth="yes"/>
	  <point x="121" y="448"/>
	  <point x="156" y="480"/>
	  <point x="216" y="480" type="curve" smooth="yes"/>
	  <point x="274" y="480"/>
	  <point x="309" y="435"/>
	  <point x="315" y="356" type="curve"/>
	  <point x="396" y="367" type="line"/>
	  <point x="382" y="472"/>
	  <point x="325" y="521"/>
	  <point x="217" y="521" type="curve" smooth="yes"/>
	</contour>
	<contour>
	  <point x="219" y="511" type="move" name="top"/>
	</contour>
	<contour>
	  <point x="214" y="0" type="move" name="bottom"/>
	</contour>
  </outline>
</glyph>
<glyph name="T" format="1">
  <advance width="362"/>
  <unicode hex="0054"/>
  <outline>
	<contour>
	  <point x="-3" y="462" type="line"/>
	  <point x="365" y="462" type="line"/>
	  <point x="365" y="511" type="line"/>
	  <point x="-3" y="511" type="line"/>
	</contour>
	<contour>
	  <point x="132" y="462" type="line"/>
	  <point x="132" y="0" type="line"/>
	  <point x="232" y="0" type="line"/>
	  <point x="232" y="462" type="line"/>
	</contour>
	<contour>
	  <point x="182" y="255" type="move" name="center"/>
	</contour>
	<contour>
	  <point x="182" y="0" type="move" name="bottom"/>
	</contour>
	<contour>
	  <point x="182" y="511" type="move" name="top"/>
	</contour>
  </outline>
</glyph>
<glyph name="X" format="1">
  <advance width="435"/>
  <unicode hex="0058"/>
  <outline>
	<contour>
	  <point x="376" y="511" type="line"/>
	  <point x="211" y="274" type="line"/>
	  <point x="247" y="239" type="line"/>
	  <point x="436" y="511" type="line"/>
	</contour>
	<contour>
	  <point x="0" y="511" type="line"/>
	  <point x="332" y="0" type="line"/>
	  <point x="446" y="0" type="line"/>
	  <point x="114" y="511" type="line"/>
	</contour>
	<contour>
	  <point x="63" y="0" type="line"/>
	  <point x="232" y="249" type="line"/>
	  <point x="196" y="281" type="line"/>
	  <point x="3" y="0" type="line"/>
	</contour>
  </outline>
</glyph>
<glyph name="Y" format="1">
  <advance width="404"/>
  <unicode hex="0059"/>
  <outline>
	<contour>
	  <point x="152" y="207" type="line"/>
	  <point x="152" y="0" type="line"/>
	  <point x="252" y="0" type="line"/>
	  <point x="252" y="207" type="line"/>
	</contour>
	<contour>
	  <point x="245" y="176" type="line"/>
	  <point x="94" y="511" type="line"/>
	  <point x="-6" y="511" type="line"/>
	  <point x="152" y="176" type="line"/>
	</contour>
	<contour>
	  <point x="252" y="176" type="line"/>
	  <point x="409" y="511" type="line"/>
	  <point x="351" y="511" type="line"/>
	  <point x="194" y="176" type="line"/>
	</contour>
	<contour>
	  <point x="203" y="511" type="move" name="top"/>
	</contour>
  </outline>
</glyph>
<glyph name="Z" format="1">
  <advance width="395"/>
  <unicode hex="005A"/>
  <outline>
	<contour>
	  <point x="29" y="462" type="line"/>
	  <point x="297" y="462" type="line"/>
	  <point x="277" y="472" type="line"/>
	  <point x="15" y="63" type="line"/>
	  <point x="15" y="0" type="line"/>
	  <point x="380" y="0" type="line"/>
	  <point x="380" y="49" type="line"/>
	  <point x="91" y="49" type="line"/>
	  <point x="111" y="39" type="line"/>
	  <point x="373" y="448" type="line"/>
	  <point x="373" y="511" type="line"/>
	  <point x="29" y="511" type="line"/>
	</contour>
	<contour>
	  <point x="197" y="511" type="move" name="top"/>
	</contour>
  </outline>
</glyph>
<glyph name="bracketleft" format="1">
  <advance width="233"/>
  <unicode hex="005B"/>
  <outline>
	<contour>
	  <point x="50" y="-25" type="line"/>
	  <point x="151" y="-25" type="line"/>
	  <point x="151" y="536" type="line"/>
	  <point x="50" y="536" type="line"/>
	</contour>
	<contour>
	  <point x="139" y="495" type="line"/>
	  <point x="227" y="495" type="line"/>
	  <point x="227" y="536" type="line"/>
	  <point x="139" y="536" type="line"/>
	</contour>
	<contour>
	  <point x="139" y="-25" type="line"/>
	  <point x="227" y="-25" type="line"/>
	  <point x="227" y="15" type="line"/>
	  <point x="139" y="15" type="line"/>
	</contour>
  </outline>
</glyph>
<glyph name="backslash" format="1">
  <advance width="282"/>
  <unicode hex="005C"/>
  <outline>
	<contour>
	  <point x="108" y="543" type="line"/>
	  <point x="8" y="543" type="line"/>
	  <point x="174" y="-74" type="line"/>
	  <point x="274" y="-74" type="line"/>
	</contour>
  </outline>
</glyph>
<glyph name="bracketright" format="1">
  <advance width="233"/>
  <unicode hex="005D"/>
  <outline>
	<contour>
	  <point x="183" y="536" type="line"/>
	  <point x="82" y="536" type="line"/>
	  <point x="82" y="-25" type="line"/>
	  <point x="183" y="-25" type="line"/>
	</contour>
	<contour>
	  <point x="95" y="15" type="line"/>
	  <point x="7" y="15" type="line"/>
	  <point x="7" y="-25" type="line"/>
	  <point x="95" y="-25" type="line"/>
	</contour>
	<contour>
	  <point x="95" y="536" type="line"/>
	  <point x="7" y="536" type="line"/>
	  <point x="7" y="495" type="line"/>
	  <point x="95" y="495" type="line"/>
	</contour>
  </outline>
</glyph>
<glyph name="asciicircum" format="1">
  <advance width="406"/>
  <unicode hex="005E"/>
  <outline>
	<contour>
	  <point x="161" y="433" type="line"/>
	  <point x="54" y="221" type="line"/>
	  <point x="129" y="221" type="line"/>
	  <point x="228" y="433" type="line"/>
	</contour>
	<contour>
	  <point x="178" y="433" type="line"/>
	  <point x="278" y="221" type="line"/>
	  <point x="352" y="221" type="line"/>
	  <point x="245" y="433" type="line"/>
	</contour>
  </outline>
</glyph>
<glyph name="underscore" format="1">
  <advance width="394"/>
  <unicode hex="005F"/>
  <outline>
	<contour>
	  <point x="43" y="-67" type="line"/>
	  <point x="351" y="-67" type="line"/>
	  <point x="351" y="0" type="line"/>
	  <point x="43" y="0" type="line"/>
	</contour>
  </outline>
</glyph>
<glyph name="grave" format="1">
  <advance width="208"/>
  <unicode hex="0060"/>
  <outline>
	<contour>
	  <point x="53" y="602" type="line"/>
	  <point x="-6" y="533" type="line"/>
	  <point x="134" y="441" type="line"/>
	  <point x="154" y="463" type="line"/>
	</contour>
	<contour>
	  <point x="100" y="400" type="move" name="_top"/>
	</contour>
  </outline>
</glyph>
<glyph name="a" format="1">
  <advance width="431"/>
  <unicode hex="0061"/>
  <outline>
	<contour>
	  <point x="198" y="-10"/>
	  <point x="246" y="10"/>
	  <point x="281" y="54" type="curve"/>
	  <point x="310" y="0" type="line"/>
	  <point x="374" y="0" type="line"/>
	  <point x="374" y="271" type="line" smooth="yes"/>
	  <point x="374" y="363"/>
	  <point x="319" y="410"/>
	  <point x="213" y="410" type="curve"/>
	  <point x="99" y="410"/>
	  <point x="61" y="360"/>
	  <point x="54" y="275" type="curve"/>
	  <point x="137" y="266" type="line"/>
	  <point x="140" y="330"/>
	  <point x="161" y="361"/>
	  <point x="212" y="361" type="curve"/>
	  <point x="254" y="361"/>
	  <point x="275" y="332"/>
	  <point x="275" y="276" type="curve" smooth="yes"/>
	  <point x="275" y="235" type="line"/>
	  <point x="192" y="221" type="line" smooth="yes"/>
	  <point x="91" y="203"/>
	  <point x="37" y="168"/>
	  <point x="37" y="96" type="curve" smooth="yes"/>
	  <point x="37" y="31"/>
	  <point x="79" y="-10"/>
	  <point x="148" y="-10" type="curve" smooth="yes"/>
	</contour>
	<contour>
	  <point x="148" y="42"/>
	  <point x="127" y="65"/>
	  <point x="127" y="102" type="curve" smooth="yes"/>
	  <point x="127" y="146"/>
	  <point x="153" y="171"/>
	  <point x="205" y="182" type="curve" smooth="yes"/>
	  <point x="275" y="195" type="line"/>
	  <point x="275" y="90" type="line"/>
	  <point x="256" y="67"/>
	  <point x="221" y="42"/>
	  <point x="184" y="42" type="curve" smooth="yes"/>
	</contour>
	<contour>
	  <point x="409" y="7" type="move" name="ogonek"/>
	</contour>
	<contour>
	  <point x="220" y="400" type="move" name="top"/>
	</contour>
  </outline>
</glyph>
<glyph name="d" format="1">
  <advance width="452"/>
  <unicode hex="0064"/>
  <outline>
	<contour>
	  <point x="325" y="0" type="line"/>
	  <point x="388" y="0" type="line"/>
	  <point x="388" y="539" type="line"/>
	  <point x="289" y="526" type="line"/>
	  <point x="289" y="60" type="line"/>
	</contour>
	<contour>
	  <point x="329" y="174" type="line"/>
	  <point x="307" y="84"/>
	  <point x="270" y="39"/>
	  <point x="215" y="39" type="curve" smooth="yes"/>
	  <point x="162" y="39"/>
	  <point x="135" y="91"/>
	  <point x="135" y="194" type="curve" smooth="yes"/>
	  <point x="135" y="301"/>
	  <point x="166" y="355"/>
	  <point x="227" y="355" type="curve" smooth="yes"/>
	  <point x="272" y="355"/>
	  <point x="308" y="330"/>
	  <point x="341" y="279" type="curve"/>
	  <point x="353" y="327" type="line"/>
	  <point x="315" y="379"/>
	  <point x="258" y="410"/>
	  <point x="200" y="410" type="curve" smooth="yes"/>
	  <point x="91" y="410"/>
	  <point x="36" y="338"/>
	  <point x="36" y="194" type="curve" smooth="yes"/>
	  <point x="36" y="59"/>
	  <point x="87" y="-10"/>
	  <point x="187" y="-10" type="curve" smooth="yes"/>
	  <point x="255" y="-10"/>
	  <point x="309" y="33"/>
	  <point x="341" y="110" type="curve"/>
	</contour>
	<contour>
	  <point x="232" y="200" type="move" name="center"/>
	</contour>
	<contour>
	  <point x="438" y="400" type="move" name="topright"/>
	</contour>
  </outline>
</glyph>
<glyph name="g" format="1">
  <advance width="432"/>
  <unicode hex="0067"/>
  <outline>
	<contour>
	  <point x="304" y="-169"/>
	  <point x="400" y="-147"/>
	  <point x="400" y="-55" type="curve" smooth="yes"/>
	  <point x="400" y="2"/>
	  <point x="356" y="47"/>
	  <point x="278" y="47" type="curve" smooth="yes"/>
	  <point x="124" y="47" type="line" smooth="yes"/>
	  <point x="102" y="47"/>
	  <point x="92" y="62"/>
	  <point x="92" y="75" type="curve" smooth="yes"/>
	  <point x="92" y="85"/>
	  <point x="97" y="98"/>
	  <point x="111" y="111" type="curve" smooth="yes"/>
	  <point x="155" y="153" type="line"/>
	  <point x="113" y="180" type="line"/>
	  <point x="67" y="135" type="line" smooth="yes"/>
	  <point x="40" y="109"/>
	  <point x="35" y="89"/>
	  <point x="35" y="67" type="curve" smooth="yes"/>
	  <point x="35" y="35"/>
	  <point x="55" y="13"/>
	  <point x="83" y="4" type="curve"/>
	  <point x="52" y="-8"/>
	  <point x="28" y="-39"/>
	  <point x="28" y="-69" type="curve" smooth="yes"/>
	  <point x="28" y="-146"/>
	  <point x="104" y="-169"/>
	  <point x="206" y="-169" type="curve" smooth="yes"/>
	</contour>
	<contour>
	  <point x="114" y="-103"/>
	  <point x="114" y="-65" type="curve" smooth="yes"/>
	  <point x="114" y="-39"/>
	  <point x="127" y="-15"/>
	  <point x="145" y="0" type="curve"/>
	  <point x="247" y="0" type="line" smooth="yes"/>
	  <point x="287" y="0"/>
	  <point x="315" y="-21"/>
	  <point x="315" y="-55" type="curve" smooth="yes"/>
	  <point x="315" y="-102"/>
	  <point x="285" y="-120"/>
	  <point x="206" y="-120" type="curve" smooth="yes"/>
	  <point x="146" y="-120"/>
	</contour>
	<contour>
	  <point x="346" y="111"/>
	  <point x="376" y="194"/>
	  <point x="376" y="263" type="curve" smooth="yes"/>
	  <point x="376" y="331"/>
	  <point x="346" y="410"/>
	  <point x="215" y="410" type="curve" smooth="yes"/>
	  <point x="85" y="410"/>
	  <point x="55" y="331"/>
	  <point x="55" y="263" type="curve" smooth="yes"/>
	  <point x="55" y="194"/>
	  <point x="85" y="118"/>
	  <point x="215" y="115" type="curve" smooth="yes"/>
	</contour>
	<contour>
	  <point x="150" y="198"/>
	  <point x="150" y="263" type="curve" smooth="yes"/>
	  <point x="150" y="327"/>
	  <point x="166" y="362"/>
	  <point x="215" y="362" type="curve" smooth="yes"/>
	  <point x="266" y="362"/>
	  <point x="282" y="327"/>
	  <point x="282" y="263" type="curve" smooth="yes"/>
	  <point x="282" y="198"/>
	  <point x="266" y="163"/>
	  <point x="215" y="163" type="curve" smooth="yes"/>
	  <point x="166" y="163"/>
	</contour>
	<contour>
	  <point x="403" y="360" type="line"/>
	  <point x="403" y="400" type="line"/>
	  <point x="272" y="400" type="line"/>
	  <point x="273" y="360" type="line"/>
	</contour>
	<contour>
	  <point x="220" y="400" type="move" name="top"/>
	</contour>
  </outline>
</glyph>
<glyph name="h" format="1">
  <advance width="465"/>
  <unicode hex="0068"/>
  <outline>
	<contour>
	  <point x="163" y="539" type="line"/>
	  <point x="64" y="526" type="line" smooth="yes"/>
	  <point x="64" y="0" type="line"/>
	  <point x="163" y="0" type="line"/>
	</contour>
	<contour>
	  <point x="126" y="290" type="line"/>
	  <point x="155" y="319"/>
	  <point x="195" y="354"/>
	  <point x="251" y="354" type="curve" smooth="yes"/>
	  <point x="294" y="354"/>
	  <point x="309" y="327"/>
	  <point x="309" y="272" type="curve" smooth="yes"/>
	  <point x="309" y="0" type="line"/>
	  <point x="408" y="0" type="line"/>
	  <point x="408" y="282" type="line" smooth="yes"/>
	  <point x="408" y="357"/>
	  <point x="371" y="410"/>
	  <point x="279" y="410" type="curve" smooth="yes"/>
	  <point x="209" y="410"/>
	  <point x="141" y="364"/>
	  <point x="112" y="330" type="curve"/>
	</contour>
	<contour>
	  <point x="232" y="200" type="move" name="center"/>
	</contour>
	<contour>
	  <point x="115" y="511" type="move" name="top"/>
	</contour>
  </outline>
</glyph>
<glyph name="i" format="1">
  <advance width="227"/>
  <unicode hex="0069"/>
  <outline>
	<contour>
	  <point x="63" y="400" type="line"/>
	  <point x="63" y="0" type="line"/>
	  <point x="162" y="0" type="line"/>
	  <point x="162" y="400" type="line"/>
	</contour>
	<contour>
	  <point x="146" y="447"/>
	  <point x="173" y="473"/>
	  <point x="173" y="506" type="curve" smooth="yes"/>
	  <point x="173" y="540"/>
	  <point x="146" y="567"/>
	  <point x="113" y="567" type="curve" smooth="yes"/>
	  <point x="80" y="567"/>
	  <point x="53" y="540"/>
	  <point x="53" y="506" type="curve" smooth="yes"/>
	  <point x="53" y="474"/>
	  <point x="80" y="447"/>
	  <point x="113" y="447" type="curve" smooth="yes"/>
	</contour>
  </outline>
</glyph>
<glyph name="o" format="1">
  <advance width="439"/>
  <unicode hex="006F"/>
  <outline>
	<contour>
	  <point x="368" y="-10"/>
	  <point x="403" y="92"/>
	  <point x="403" y="200" type="curve" smooth="yes"/>
	  <point x="403" y="309"/>
	  <point x="368" y="410"/>
	  <point x="220" y="410" type="curve" smooth="yes"/>
	  <point x="71" y="410"/>
	  <point x="36" y="309"/>
	  <point x="36" y="200" type="curve" smooth="yes"/>
	  <point x="36" y="92"/>
	  <point x="71" y="-10"/>
	  <point x="220" y="-10" type="curve" smooth="yes"/>
	</contour>
	<contour>
	  <point x="148" y="39"/>
	  <point x="135" y="106"/>
	  <point x="135" y="200" type="curve" smooth="yes"/>
	  <point x="135" y="295"/>
	  <point x="148" y="361"/>
	  <point x="220" y="361" type="curve" smooth="yes"/>
	  <point x="291" y="361"/>
	  <point x="304" y="295"/>
	  <point x="304" y="200" type="curve" smooth="yes"/>
	  <point x="304" y="106"/>
	  <point x="291" y="39"/>
	  <point x="220" y="39" type="curve" smooth="yes"/>
	</contour>
	<contour>
	  <point x="219" y="400" type="move" name="top"/>
	</contour>
  </outline>
</glyph>
<glyph name="q" format="1">
  <advance width="452"/>
  <unicode hex="0071"/>
  <outline>
	<contour>
	  <point x="342" y="89" type="line"/>
	  <point x="306" y="55"/>
	  <point x="268" y="39"/>
	  <point x="228" y="39" type="curve" smooth="yes"/>
	  <point x="159" y="39"/>
	  <point x="135" y="102"/>
	  <point x="135" y="200" type="curve" smooth="yes"/>
	  <point x="135" y="291"/>
	  <point x="160" y="355"/>
	  <point x="227" y="355" type="curve" smooth="yes"/>
	  <point x="268" y="355"/>
	  <point x="306" y="334"/>
	  <point x="341" y="279" type="curve"/>
	  <point x="353" y="327" type="line"/>
	  <point x="326" y="364"/>
	  <point x="275" y="410"/>
	  <point x="200" y="410" type="curve" smooth="yes"/>
	  <point x="67" y="410"/>
	  <point x="36" y="309"/>
	  <point x="36" y="200" type="curve" smooth="yes"/>
	  <point x="36" y="92"/>
	  <point x="67" y="-10"/>
	  <point x="200" y="-10" type="curve" smooth="yes"/>
	  <point x="259" y="-10"/>
	  <point x="315" y="20"/>
	  <point x="353" y="49" type="curve"/>
	</contour>
	<contour>
	  <point x="289" y="341" type="line"/>
	  <point x="289" y="-155" type="line"/>
	  <point x="388" y="-142" type="line"/>
	  <point x="388" y="400" type="line"/>
	  <point x="344" y="400" type="line"/>
	</contour>
  </outline>
</glyph>
<glyph name="r" format="1">
  <advance width="285"/>
  <unicode hex="0072"/>
  <outline>
	<contour>
	  <point x="164" y="234" type="line"/>
	  <point x="164" y="295"/>
	  <point x="195" y="332"/>
	  <point x="285" y="332" type="curve"/>
	  <point x="285" y="403" type="line"/>
	  <point x="179" y="403"/>
	  <point x="128" y="307"/>
	  <point x="128" y="234" type="curve"/>
	</contour>
	<contour>
	  <point x="108" y="400" type="line"/>
	  <point x="64" y="400" type="line"/>
	  <point x="64" y="0" type="line"/>
	  <point x="163" y="0" type="line"/>
	  <point x="163" y="306" type="line"/>
	</contour>
	<contour>
	  <point x="165" y="400" type="move" name="top"/>
	</contour>
	<contour>
	  <point x="114" y="0" type="move" name="bottom"/>
	</contour>
  </outline>
</glyph>
<glyph name="t" format="1">
  <advance width="260"/>
  <unicode hex="0074"/>
  <outline>
	<contour>
	  <point x="12" y="350" type="line"/>
	  <point x="256" y="350" type="line"/>
	  <point x="256" y="400" type="line"/>
	  <point x="12" y="400" type="line"/>
	</contour>
	<contour>
	  <point x="253" y="59" type="line"/>
	  <point x="237" y="50"/>
	  <point x="221" y="45"/>
	  <point x="204" y="45" type="curve" smooth="yes"/>
	  <point x="185" y="45"/>
	  <point x="174" y="54"/>
	  <point x="174" y="90" type="curve" smooth="yes"/>
	  <point x="174" y="497" type="line"/>
	  <point x="75" y="461" type="line"/>
	  <point x="75" y="105" type="line" smooth="yes"/>
	  <point x="75" y="56"/>
	  <point x="77" y="-10"/>
	  <point x="177" y="-10" type="curve" smooth="yes"/>
	  <point x="198" y="-10"/>
	  <point x="232" y="-4"/>
	  <point x="266" y="14" type="curve"/>
	</contour>
	<contour>
	  <point x="133" y="200" type="move" name="center"/>
	</contour>
	<contour>
	  <point x="133" y="0" type="move" name="bottom"/>
	</contour>
	<contour>
	  <point x="245" y="400" type="move" name="topright"/>
	</contour>
  </outline>
</glyph>
<glyph name="x" format="1">
  <advance width="372"/>
  <unicode hex="0078"/>
  <outline>
	<contour>
	  <point x="369" y="0" type="line"/>
	  <point x="111" y="400" type="line"/>
	  <point x="2" y="400" type="line"/>
	  <point x="260" y="0" type="line"/>
	</contour>
	<contour>
	  <point x="54" y="0" type="line"/>
	  <point x="183" y="174" type="line"/>
	  <point x="160" y="213" type="line"/>
	  <point x="-3" y="0" type="line"/>
	</contour>
	<contour>
	  <point x="364" y="400" type="line"/>
	  <point x="307" y="400" type="line"/>
	  <point x="179" y="228" type="line"/>
	  <point x="202" y="188" type="line"/>
	</contour>
  </outline>
</glyph>
<glyph name="y" format="1">
  <advance width="384"/>
  <unicode hex="0079"/>
  <outline>
	<contour>
	  <point x="240" y="66" type="line"/>
	  <point x="104" y="400" type="line"/>
	  <point x="5" y="400" type="line"/>
	  <point x="186" y="-28" type="line"/>
	</contour>
	<contour>
	  <point x="182" y="-169" type="line"/>
	  <point x="381" y="400" type="line"/>
	  <point x="324" y="400" type="line"/>
	  <point x="194" y="7" type="line"/>
	  <point x="104" y="-159" type="line"/>
	</contour>
	<contour>
	  <point x="212" y="400" type="move" name="top"/>
	</contour>
  </outline>
</glyph>
<glyph name="z" format="1">
  <advance width="355"/>
  <unicode hex="007A"/>
  <outline>
	<contour>
	  <point x="28" y="350" type="line"/>
	  <point x="256" y="350" type="line"/>
	  <point x="237" y="368" type="line"/>
	  <point x="22" y="60" type="line"/>
	  <point x="22" y="0" type="line"/>
	  <point x="333" y="0" type="line"/>
	  <point x="333" y="50" type="line"/>
	  <point x="96" y="50" type="line"/>
	  <point x="115" y="33" type="line"/>
	  <point x="327" y="340" type="line"/>
	  <point x="327" y="400" type="line"/>
	  <point x="28" y="400" type="line"/>
	</contour>
	<contour>
	  <point x="178" y="400" type="move" name="top"/>
	</contour>
  </outline>
</glyph>
<glyph name="currency" format="1">
  <advance width="441"/>
  <unicode hex="00A4"/>
  <outline>
	<contour>
	  <point x="338" y="94"/>
	  <point x="382" y="173"/>
	  <point x="382" y="255" type="curve" smooth="yes"/>
	  <point x="382" y="339"/>
	  <point x="339" y="417"/>
	  <point x="228" y="417" type="curve" smooth="yes"/>
	  <point x="108" y="417"/>
	  <point x="66" y="339"/>
	  <point x="66" y="255" type="curve" smooth="yes"/>
	  <point x="66" y="173"/>
	  <point x="108" y="94"/>
	  <point x="219" y="94" type="curve" smooth="yes"/>
	</contour>
	<contour>
	  <point x="159" y="146" type="line"/>
	  <point x="111" y="194" type="line"/>
	  <point x="21" y="102" type="line"/>
	  <point x="67" y="56" type="line"/>
	</contour>
	<contour>
	  <point x="421" y="102" type="line"/>
	  <point x="333" y="191" type="line"/>
	  <point x="286" y="144" type="line"/>
	  <point x="374" y="56" type="line"/>
	</contour>
	<contour>
	  <point x="157" y="367" type="line"/>
	  <point x="67" y="455" type="line"/>
	  <point x="21" y="409" type="line"/>
	  <point x="109" y="320" type="line"/>
	</contour>
	<contour>
	  <point x="154" y="198"/>
	  <point x="154" y="255" type="curve" smooth="yes"/>
	  <point x="154" y="313"/>
	  <point x="170" y="377"/>
	  <point x="228" y="377" type="curve" smooth="yes"/>
	  <point x="279" y="377"/>
	  <point x="294" y="313"/>
	  <point x="294" y="255" type="curve" smooth="yes"/>
	  <point x="294" y="198"/>
	  <point x="278" y="134"/>
	  <point x="219" y="134" type="curve" smooth="yes"/>
	  <point x="170" y="134"/>
	</contour>
	<contour>
	  <point x="421" y="409" type="line"/>
	  <point x="374" y="455" type="line"/>
	  <point x="283" y="365" type="line"/>
	  <point x="330" y="318" type="line"/>
	</contour>
  </outline>
</glyph>
<glyph name="yen" format="1">
  <advance width="441"/>
  <unicode hex="00A5"/>
  <outline>
	<contour>
	  <point x="40" y="157" type="line"/>
	  <point x="401" y="157" type="line"/>
	  <point x="401" y="216" type="line"/>
	  <point x="40" y="216" type="line"/>
	</contour>
	<contour>
	  <point x="40" y="266" type="line"/>
	  <point x="175" y="266" type="line"/>
	  <point x="175" y="325" type="line"/>
	  <point x="40" y="325" type="line"/>
	</contour>
	<contour>
	  <point x="293" y="266" type="line"/>
	  <point x="401" y="266" type="line"/>
	  <point x="401" y="325" type="line"/>
	  <point x="293" y="325" type="line"/>
	</contour>
	<contour>
	  <point x="170" y="207" type="line"/>
	  <point x="170" y="0" type="line"/>
	  <point x="271" y="0" type="line"/>
	  <point x="271" y="207" type="line"/>
	</contour>
	<contour>
	  <point x="264" y="176" type="line"/>
	  <point x="113" y="511" type="line"/>
	  <point x="13" y="511" type="line"/>
	  <point x="171" y="176" type="line"/>
	</contour>
	<contour>
	  <point x="270" y="176" type="line"/>
	  <point x="428" y="511" type="line"/>
	  <point x="369" y="511" type="line"/>
	  <point x="212" y="176" type="line"/>
	</contour>
  </outline>
</glyph>
<glyph name="brokenbar" format="1">
  <advance width="238"/>
  <unicode hex="00A6"/>
  <outline>
	<contour>
	  <point x="65" y="293" type="line"/>
	  <point x="172" y="293" type="line"/>
	  <point x="172" y="543" type="line"/>
	  <point x="65" y="543" type="line"/>
	</contour>
	<contour>
	  <point x="65" y="-74" type="line"/>
	  <point x="172" y="-74" type="line"/>
	  <point x="172" y="176" type="line"/>
	  <point x="65" y="176" type="line"/>
	</contour>
  </outline>
</glyph>
<glyph name="section" format="1">
  <advance width="354"/>
  <unicode hex="00A7"/>
  <outline>
	<contour>
	  <point x="193" y="382" type="line"/>
	  <point x="176" y="402"/>
	  <point x="170" y="414"/>
	  <point x="170" y="440" type="curve" smooth="yes"/>
	  <point x="170" y="477"/>
	  <point x="216" y="498"/>
	  <point x="251" y="505" type="curve"/>
	  <point x="228" y="576" type="line"/>
	  <point x="132" y="554"/>
	  <point x="71" y="503"/>
	  <point x="71" y="427" type="curve" smooth="yes"/>
	  <point x="71" y="391"/>
	  <point x="86" y="352"/>
	  <point x="121" y="311" type="curve" smooth="yes"/>
	  <point x="210" y="206" type="line" smooth="yes"/>
	  <point x="234" y="178"/>
	  <point x="240" y="167"/>
	  <point x="240" y="140" type="curve" smooth="yes"/>
	  <point x="240" y="102"/>
	  <point x="193" y="82"/>
	  <point x="159" y="75" type="curve"/>
	  <point x="182" y="4" type="line"/>
	  <point x="279" y="26"/>
	  <point x="339" y="76"/>
	  <point x="339" y="153" type="curve" smooth="yes"/>
	  <point x="339" y="189"/>
	  <point x="327" y="230"/>
	  <point x="286" y="271" type="curve" smooth="yes"/>
	</contour>
	<contour>
	  <point x="137" y="162" type="line" smooth="yes"/>
	  <point x="120" y="182"/>
	  <point x="114" y="193"/>
	  <point x="114" y="221" type="curve" smooth="yes"/>
	  <point x="114" y="258"/>
	  <point x="160" y="278"/>
	  <point x="195" y="285" type="curve"/>
	  <point x="172" y="356" type="line"/>
	  <point x="75" y="334"/>
	  <point x="15" y="284"/>
	  <point x="15" y="207" type="curve" smooth="yes"/>
	  <point x="15" y="171"/>
	  <point x="30" y="132"/>
	  <point x="65" y="91" type="curve" smooth="yes"/>
	  <point x="154" y="-14" type="line" smooth="yes"/>
	  <point x="178" y="-42"/>
	  <point x="184" y="-53"/>
	  <point x="184" y="-80" type="curve" smooth="yes"/>
	  <point x="184" y="-117"/>
	  <point x="137" y="-138"/>
	  <point x="103" y="-145" type="curve"/>
	  <point x="126" y="-216" type="line"/>
	  <point x="222" y="-194"/>
	  <point x="283" y="-142"/>
	  <point x="283" y="-67" type="curve" smooth="yes"/>
	  <point x="283" y="-31"/>
	  <point x="271" y="11"/>
	  <point x="230" y="51" type="curve" smooth="yes"/>
	</contour>
  </outline>
</glyph>
<glyph name="dieresis" format="1">
  <advance width="279"/>
  <unicode hex="00A8"/>
  <outline>
	<contour>
	  <point x="89" y="452"/>
	  <point x="114" y="477"/>
	  <point x="114" y="506" type="curve" smooth="yes"/>
	  <point x="114" y="537"/>
	  <point x="89" y="562"/>
	  <point x="59" y="562" type="curve" smooth="yes"/>
	  <point x="29" y="562"/>
	  <point x="5" y="537"/>
	  <point x="5" y="506" type="curve" smooth="yes"/>
	  <point x="5" y="478"/>
	  <point x="29" y="452"/>
	  <point x="59" y="452" type="curve" smooth="yes"/>
	</contour>
	<contour>
	  <point x="251" y="452"/>
	  <point x="275" y="477"/>
	  <point x="275" y="506" type="curve" smooth="yes"/>
	  <point x="275" y="537"/>
	  <point x="251" y="562"/>
	  <point x="220" y="562" type="curve" smooth="yes"/>
	  <point x="191" y="562"/>
	  <point x="166" y="537"/>
	  <point x="166" y="506" type="curve" smooth="yes"/>
	  <point x="166" y="478"/>
	  <point x="191" y="452"/>
	  <point x="220" y="452" type="curve" smooth="yes"/>
	</contour>
	<contour>
	  <point x="140" y="400" type="move" name="_top"/>
	</contour>
  </outline>
</glyph>
<glyph name="copyright" format="1">
  <advance width="515"/>
  <unicode hex="00A9"/>
  <outline>
	<contour>
	  <point x="362" y="448" type="line"/>
	  <point x="357" y="506"/>
	  <point x="325" y="538"/>
	  <point x="260" y="538" type="curve" smooth="yes"/>
	  <point x="180" y="538"/>
	  <point x="151" y="485"/>
	  <point x="151" y="393" type="curve" smooth="yes"/>
	  <point x="151" y="301"/>
	  <point x="176" y="246"/>
	  <point x="260" y="246" type="curve" smooth="yes"/>
	  <point x="332" y="246"/>
	  <point x="359" y="288"/>
	  <point x="363" y="350" type="curve"/>
	  <point x="315" y="352" type="line"/>
	  <point x="313" y="316"/>
	  <point x="300" y="290"/>
	  <point x="263" y="290" type="curve" smooth="yes"/>
	  <point x="220" y="290"/>
	  <point x="207" y="332"/>
	  <point x="207" y="393" type="curve" smooth="yes"/>
	  <point x="207" y="455"/>
	  <point x="223" y="497"/>
	  <point x="262" y="497" type="curve" smooth="yes"/>
	  <point x="297" y="497"/>
	  <point x="310" y="479"/>
	  <point x="313" y="445" type="curve"/>
	</contour>
	<contour>
	  <point x="33" y="247"/>
	  <point x="112" y="168"/>
	  <point x="258" y="168" type="curve" smooth="yes"/>
	  <point x="403" y="168"/>
	  <point x="482" y="247"/>
	  <point x="482" y="392" type="curve" smooth="yes"/>
	  <point x="482" y="538"/>
	  <point x="403" y="617"/>
	  <point x="258" y="617" type="curve" smooth="yes"/>
	  <point x="112" y="617"/>
	  <point x="33" y="538"/>
	  <point x="33" y="392" type="curve" smooth="yes"/>
	</contour>
	<contour>
	  <point x="86" y="505"/>
	  <point x="141" y="568"/>
	  <point x="258" y="568" type="curve" smooth="yes"/>
	  <point x="374" y="568"/>
	  <point x="430" y="505"/>
	  <point x="430" y="392" type="curve" smooth="yes"/>
	  <point x="430" y="279"/>
	  <point x="374" y="217"/>
	  <point x="258" y="217" type="curve" smooth="yes"/>
	  <point x="141" y="217"/>
	  <point x="86" y="279"/>
	  <point x="86" y="392" type="curve" smooth="yes"/>
	</contour>
  </outline>
</glyph>
<glyph name="threesuperior" format="1">
  <advance width="314"/>
  <unicode hex="00B3"/>
  <outline>
	<contour>
	  <point x="113" y="475" type="line"/>
	  <point x="115" y="520"/>
	  <point x="129" y="537"/>
	  <point x="154" y="537" type="curve" smooth="yes"/>
	  <point x="182" y="537"/>
	  <point x="193" y="526"/>
	  <point x="193" y="495" type="curve" smooth="yes"/>
	  <point x="193" y="456"/>
	  <point x="184" y="436"/>
	  <point x="140" y="436" type="curve" smooth="yes"/>
	  <point x="110" y="436" type="line"/>
	  <point x="110" y="416" type="line"/>
	  <point x="150" y="416" type="line" smooth="yes"/>
	  <point x="209" y="416"/>
	  <point x="266" y="437"/>
	  <point x="266" y="495" type="curve" smooth="yes"/>
	  <point x="266" y="536"/>
	  <point x="228" y="566"/>
	  <point x="154" y="566" type="curve" smooth="yes"/>
	  <point x="89" y="566"/>
	  <point x="54" y="544"/>
	  <point x="49" y="482" type="curve"/>
	</contour>
	<contour>
	  <point x="44" y="354" type="line"/>
	  <point x="49" y="295"/>
	  <point x="84" y="274"/>
	  <point x="153" y="274" type="curve" smooth="yes"/>
	  <point x="230" y="274"/>
	  <point x="270" y="310"/>
	  <point x="270" y="350" type="curve" smooth="yes"/>
	  <point x="270" y="403"/>
	  <point x="218" y="422"/>
	  <point x="154" y="422" type="curve" smooth="yes"/>
	  <point x="110" y="422" type="line"/>
	  <point x="110" y="402" type="line"/>
	  <point x="139" y="402" type="line" smooth="yes"/>
	  <point x="167" y="402"/>
	  <point x="198" y="401"/>
	  <point x="198" y="350" type="curve" smooth="yes"/>
	  <point x="198" y="317"/>
	  <point x="182" y="304"/>
	  <point x="153" y="304" type="curve" smooth="yes"/>
	  <point x="126" y="304"/>
	  <point x="111" y="321"/>
	  <point x="108" y="362" type="curve"/>
	</contour>
  </outline>
</glyph>
<glyph name="cedilla" format="1">
  <advance width="195"/>
  <unicode hex="00B8"/>
  <outline>
	<contour>
	  <point x="118" y="4" type="line"/>
	  <point x="76" y="4" type="line"/>
	  <point x="57" y="-62" type="line"/>
	  <point x="109" y="-71"/>
	  <point x="122" y="-87"/>
	  <point x="122" y="-111" type="curve" smooth="yes"/>
	  <point x="122" y="-130"/>
	  <point x="116" y="-143"/>
	  <point x="100" y="-143" type="curve" smooth="yes"/>
	  <point x="85" y="-143"/>
	  <point x="74" y="-127"/>
	  <point x="74" y="-98" type="curve"/>
	  <point x="19" y="-105" type="line"/>
	  <point x="19" y="-149"/>
	  <point x="45" y="-176"/>
	  <point x="101" y="-176" type="curve" smooth="yes"/>
	  <point x="163" y="-176"/>
	  <point x="183" y="-140"/>
	  <point x="183" y="-103" type="curve" smooth="yes"/>
	  <point x="183" y="-63"/>
	  <point x="152" y="-40"/>
	  <point x="106" y="-34" type="curve"/>
	</contour>
	<contour>
	  <point x="94" y="0" type="move" name="_bottom"/>
	</contour>
  </outline>
</glyph>
<glyph name="ordmasculine" format="1">
  <advance width="312"/>
  <unicode hex="00BA"/>
  <outline>
	<contour>
	  <point x="29" y="140" type="line"/>
	  <point x="282" y="140" type="line"/>
	  <point x="282" y="197" type="line"/>
	  <point x="29" y="197" type="line"/>
	</contour>
	<contour>
	  <point x="114" y="273"/>
	  <point x="106" y="310"/>
	  <point x="106" y="385" type="curve" smooth="yes"/>
	  <point x="106" y="460"/>
	  <point x="114" y="498"/>
	  <point x="155" y="498" type="curve" smooth="yes"/>
	  <point x="198" y="498"/>
	  <point x="206" y="460"/>
	  <point x="206" y="385" type="curve" smooth="yes"/>
	  <point x="206" y="310"/>
	  <point x="198" y="273"/>
	  <point x="155" y="273" type="curve" smooth="yes"/>
	</contour>
	<contour>
	  <point x="264" y="238"/>
	  <point x="289" y="309"/>
	  <point x="289" y="385" type="curve" smooth="yes"/>
	  <point x="289" y="461"/>
	  <point x="264" y="532"/>
	  <point x="155" y="532" type="curve" smooth="yes"/>
	  <point x="48" y="532"/>
	  <point x="22" y="461"/>
	  <point x="22" y="385" type="curve" smooth="yes"/>
	  <point x="22" y="309"/>
	  <point x="48" y="238"/>
	  <point x="155" y="238" type="curve" smooth="yes"/>
	</contour>
  </outline>
</glyph>
<glyph name="AE" format="1">
  <advance width="657"/>
  <unicode hex="00C6"/>
  <outline>
	<contour>
	  <point x="232" y="511" type="line"/>
	  <point x="11" y="0" type="line"/>
	  <point x="69" y="0" type="line"/>
	  <point x="286" y="511" type="line"/>
	</contour>
	<contour>
	  <point x="137" y="221" type="line"/>
	  <point x="603" y="221" type="line"/>
	  <point x="603" y="271" type="line"/>
	  <point x="137" y="271" type="line"/>
	</contour>
	<contour>
	  <point x="329" y="462" type="line"/>
	  <point x="620" y="462" type="line"/>
	  <point x="620" y="511" type="line"/>
	  <point x="329" y="511" type="line"/>
	  <point x="329" y="0" type="line"/>
	  <point x="430" y="0" type="line"/>
	  <point x="430" y="462" type="line"/>
	</contour>
	<contour>
	  <point x="329" y="0" type="line"/>
	  <point x="634" y="0" type="line"/>
	  <point x="634" y="49" type="line"/>
	  <point x="329" y="49" type="line"/>
	</contour>
	<contour>
	  <point x="251" y="462" type="line"/>
	  <point x="329" y="462" type="line"/>
	  <point x="329" y="511" type="line"/>
	  <point x="251" y="511" type="line"/>
	</contour>
	<contour>
	  <point x="413" y="511" type="move" name="top"/>
	</contour>
  </outline>
</glyph>
<glyph name="multiply" format="1">
  <advance width="406"/>
  <unicode hex="00D7"/>
  <outline>
	<contour>
	  <point x="113" y="85" type="line"/>
	  <point x="203" y="175" type="line"/>
	  <point x="294" y="85" type="line"/>
	  <point x="341" y="132" type="line"/>
	  <point x="251" y="223" type="line"/>
	  <point x="341" y="313" type="line"/>
	  <point x="294" y="360" type="line"/>
	  <point x="203" y="270" type="line"/>
	  <point x="113" y="360" type="line"/>
	  <point x="66" y="313" type="line"/>
	  <point x="156" y="223" type="line"/>
	  <point x="66" y="132" type="line"/>
	</contour>
  </outline>
</glyph>
<glyph name="Oslash" format="1">
  <advance width="495"/>
  <unicode hex="00D8"/>
  <outline>
	<component base="O"/>
	<component base="fraction" xOffset="148" yOffset="-39" yScale="1.15"/>
	<contour>
	  <point x="248" y="511" type="move" name="top"/>
	</contour>
  </outline>
</glyph>
<glyph name="Thorn" format="1">
  <advance width="419"/>
  <unicode hex="00DE"/>
  <outline>
	<contour>
	  <point x="64" y="509" type="line"/>
	  <point x="64" y="0" type="line"/>
	  <point x="164" y="0" type="line"/>
	  <point x="164" y="509" type="line"/>
	</contour>
	<contour>
	  <point x="244" y="90" type="line" smooth="yes"/>
	  <point x="373" y="90"/>
	  <point x="408" y="169"/>
	  <point x="408" y="254" type="curve" smooth="yes"/>
	  <point x="408" y="340"/>
	  <point x="373" y="419"/>
	  <point x="244" y="419" type="curve" smooth="yes"/>
	  <point x="64" y="419" type="line"/>
	  <point x="64" y="90" type="line"/>
	</contour>
	<contour>
	  <point x="164" y="127" type="line"/>
	  <point x="164" y="382" type="line"/>
	  <point x="228" y="382" type="line" smooth="yes"/>
	  <point x="284" y="382"/>
	  <point x="308" y="334"/>
	  <point x="308" y="254" type="curve" smooth="yes"/>
	  <point x="308" y="175"/>
	  <point x="284" y="127"/>
	  <point x="228" y="127" type="curve" smooth="yes"/>
	</contour>
  </outline>
</glyph>
<glyph name="ae" format="1">
  <advance width="644"/>
  <unicode hex="00E6"/>
  <outline>
	<contour>
	  <point x="559" y="-10"/>
	  <point x="596" y="46"/>
	  <point x="603" y="115" type="curve"/>
	  <point x="522" y="118" type="line"/>
	  <point x="520" y="75"/>
	  <point x="501" y="39"/>
	  <point x="443" y="39" type="curve" smooth="yes"/>
	  <point x="383" y="39"/>
	  <point x="358" y="77"/>
	  <point x="358" y="190" type="curve" smooth="yes"/>
	  <point x="358" y="312"/>
	  <point x="376" y="361"/>
	  <point x="436" y="361" type="curve" smooth="yes"/>
	  <point x="500" y="361"/>
	  <point x="513" y="300"/>
	  <point x="513" y="201" type="curve"/>
	  <point x="608" y="201" type="line"/>
	  <point x="608" y="306"/>
	  <point x="579" y="410"/>
	  <point x="437" y="410" type="curve" smooth="yes"/>
	  <point x="294" y="410"/>
	  <point x="259" y="309"/>
	  <point x="259" y="200" type="curve" smooth="yes"/>
	  <point x="259" y="64"/>
	  <point x="306" y="-10"/>
	  <point x="439" y="-10" type="curve" smooth="yes"/>
	</contour>
	<contour>
	  <point x="148" y="42"/>
	  <point x="127" y="65"/>
	  <point x="127" y="102" type="curve" smooth="yes"/>
	  <point x="127" y="146"/>
	  <point x="153" y="172"/>
	  <point x="205" y="182" type="curve" smooth="yes"/>
	  <point x="275" y="194" type="line"/>
	  <point x="275" y="90" type="line"/>
	  <point x="256" y="67"/>
	  <point x="221" y="42"/>
	  <point x="184" y="42" type="curve" smooth="yes"/>
	</contour>
	<contour>
	  <point x="202" y="-10"/>
	  <point x="258" y="12"/>
	  <point x="297" y="70" type="curve"/>
	  <point x="353" y="70" type="line"/>
	  <point x="353" y="271" type="line"/>
	  <point x="275" y="270" type="line"/>
	  <point x="275" y="235" type="line"/>
	  <point x="192" y="221" type="line" smooth="yes"/>
	  <point x="91" y="203"/>
	  <point x="37" y="168"/>
	  <point x="37" y="96" type="curve" smooth="yes"/>
	  <point x="37" y="31"/>
	  <point x="79" y="-10"/>
	  <point x="148" y="-10" type="curve" smooth="yes"/>
	</contour>
	<contour>
	  <point x="140" y="330"/>
	  <point x="162" y="361"/>
	  <point x="213" y="361" type="curve"/>
	  <point x="251" y="361"/>
	  <point x="272" y="333"/>
	  <point x="275" y="282" type="curve"/>
	  <point x="359" y="328" type="line"/>
	  <point x="335" y="384"/>
	  <point x="287" y="410"/>
	  <point x="214" y="410" type="curve"/>
	  <point x="99" y="410"/>
	  <point x="61" y="360"/>
	  <point x="54" y="275" type="curve"/>
	  <point x="137" y="266" type="line"/>
	</contour>
	<contour>
	  <point x="608" y="190" type="line"/>
	  <point x="608" y="201" type="line"/>
	  <point x="604" y="239" type="line"/>
	  <point x="297" y="239" type="line"/>
	  <point x="297" y="190" type="line"/>
	</contour>
	<contour>
	  <point x="589" y="7" type="move" name="ogonek"/>
	</contour>
	<contour>
	  <point x="433" y="0" type="move" name="bottom"/>
	</contour>
	<contour>
	  <point x="433" y="400" type="move" name="top"/>
	</contour>
  </outline>
</glyph>
<glyph name="divide" format="1">
  <advance width="406"/>
  <unicode hex="00F7"/>
  <outline>
	<contour>
	  <point x="60" y="190" type="line"/>
	  <point x="347" y="190" type="line"/>
	  <point x="347" y="257" type="line"/>
	  <point x="60" y="257" type="line"/>
	</contour>
	<contour>
	  <point x="246" y="39"/>
	  <point x="249" y="67"/>
	  <point x="249" y="92" type="curve" smooth="yes"/>
	  <point x="249" y="117"/>
	  <point x="246" y="146"/>
	  <point x="202" y="146" type="curve" smooth="yes"/>
	  <point x="159" y="146"/>
	  <point x="156" y="117"/>
	  <point x="156" y="92" type="curve" smooth="yes"/>
	  <point x="156" y="67"/>
	  <point x="159" y="39"/>
	  <point x="202" y="39" type="curve" smooth="yes"/>
	</contour>
	<contour>
	  <point x="246" y="293"/>
	  <point x="249" y="321"/>
	  <point x="249" y="346" type="curve" smooth="yes"/>
	  <point x="249" y="371"/>
	  <point x="246" y="400"/>
	  <point x="202" y="400" type="curve" smooth="yes"/>
	  <point x="159" y="400"/>
	  <point x="156" y="371"/>
	  <point x="156" y="346" type="curve" smooth="yes"/>
	  <point x="156" y="321"/>
	  <point x="159" y="293"/>
	  <point x="202" y="293" type="curve" smooth="yes"/>
	</contour>
  </outline>
</glyph>
<glyph name="eng" format="1">
  <advance width="465"/>
  <unicode hex="014B"/>
  <outline>
	<contour>
	  <point x="167" y="-141" type="line"/>
	  <point x="201" y="-158"/>
	  <point x="234" y="-169"/>
	  <point x="270" y="-169" type="curve" smooth="yes"/>
	  <point x="360" y="-169"/>
	  <point x="407" y="-124"/>
	  <point x="407" y="-35" type="curve" smooth="yes"/>
	  <point x="407" y="1" type="line"/>
	  <point x="308" y="1" type="line"/>
	  <point x="308" y="-58" type="line" smooth="yes"/>
	  <point x="308" y="-89"/>
	  <point x="291" y="-112"/>
	  <point x="260" y="-112" type="curve" smooth="yes"/>
	  <point x="235" y="-112"/>
	  <point x="213" y="-94"/>
	  <point x="198" y="-70" type="curve"/>
	</contour>
	<component base="n"/>
  </outline>
</glyph>
<glyph name="OE" format="1">
  <advance width="662"/>
  <unicode hex="0152"/>
  <outline>
	<contour>
	  <point x="411" y="0"/>
	  <point x="450" y="110"/>
	  <point x="450" y="255" type="curve" smooth="yes"/>
	  <point x="450" y="400"/>
	  <point x="411" y="511"/>
	  <point x="244" y="511" type="curve" smooth="yes"/>
	  <point x="76" y="511"/>
	  <point x="37" y="400"/>
	  <point x="37" y="255" type="curve" smooth="yes"/>
	  <point x="37" y="110"/>
	  <point x="76" y="0"/>
	  <point x="244" y="0" type="curve" smooth="yes"/>
	</contour>
	<contour>
	  <point x="157" y="49"/>
	  <point x="137" y="138"/>
	  <point x="137" y="255" type="curve" smooth="yes"/>
	  <point x="137" y="373"/>
	  <point x="158" y="462"/>
	  <point x="244" y="462" type="curve" smooth="yes"/>
	  <point x="330" y="462"/>
	  <point x="350" y="373"/>
	  <point x="350" y="255" type="curve" smooth="yes"/>
	  <point x="350" y="138"/>
	  <point x="330" y="49"/>
	  <point x="244" y="49" type="curve" smooth="yes"/>
	</contour>
	<contour>
	  <point x="245" y="462" type="line"/>
	  <point x="626" y="462" type="line"/>
	  <point x="626" y="511" type="line"/>
	  <point x="245" y="511" type="line"/>
	</contour>
	<contour>
	  <point x="244" y="0" type="line"/>
	  <point x="640" y="0" type="line"/>
	  <point x="640" y="49" type="line"/>
	  <point x="244" y="49" type="line"/>
	</contour>
	<contour>
	  <point x="444" y="235" type="line"/>
	  <point x="608" y="235" type="line"/>
	  <point x="608" y="285" type="line"/>
	  <point x="444" y="285" type="line"/>
	</contour>
	<contour>
	  <point x="331" y="511" type="move" name="top"/>
	</contour>
  </outline>
</glyph>
<glyph name="breve" format="1">
  <advance width="282"/>
  <unicode hex="02D8"/>
  <outline>
	<contour>
	  <point x="201" y="564" type="line"/>
	  <point x="201" y="529"/>
	  <point x="183" y="505"/>
	  <point x="140" y="505" type="curve" smooth="yes"/>
	  <point x="97" y="505"/>
	  <point x="78" y="529"/>
	  <point x="78" y="564" type="curve"/>
	  <point x="37" y="564" type="line"/>
	  <point x="37" y="506"/>
	  <point x="55" y="445"/>
	  <point x="140" y="445" type="curve" smooth="yes"/>
	  <point x="226" y="445"/>
	  <point x="244" y="506"/>
	  <point x="244" y="564" type="curve"/>
	</contour>
	<contour>
	  <point x="141" y="400" type="move" name="_top"/>
	</contour>
  </outline>
</glyph>
<glyph name="ogonek" format="1">
  <advance width="220"/>
  <unicode hex="02DB"/>
  <outline>
	<contour>
	  <point x="157" y="-150"/>
	  <point x="195" y="-114"/>
	  <point x="213" y="-81" type="curve"/>
	  <point x="181" y="-60" type="line"/>
	  <point x="168" y="-81"/>
	  <point x="151" y="-99"/>
	  <point x="126" y="-99" type="curve" smooth="yes"/>
	  <point x="109" y="-99"/>
	  <point x="96" y="-89"/>
	  <point x="96" y="-72" type="curve" smooth="yes"/>
	  <point x="96" y="-54"/>
	  <point x="103" y="-40"/>
	  <point x="133" y="-20" type="curve" smooth="yes"/>
	  <point x="166" y="0" type="line"/>
	  <point x="135" y="15" type="line"/>
	  <point x="105" y="-4" type="line" smooth="yes"/>
	  <point x="67" y="-28"/>
	  <point x="43" y="-53"/>
	  <point x="43" y="-88" type="curve" smooth="yes"/>
	  <point x="43" y="-126"/>
	  <point x="71" y="-150"/>
	  <point x="113" y="-150" type="curve" smooth="yes"/>
	</contour>
	<contour>
	  <point x="211" y="7" type="move" name="_ogonek"/>
	</contour>
  </outline>
</glyph>
<glyph name="tilde" format="1">
  <advance width="275"/>
  <unicode hex="02DC"/>
  <outline>
	<contour>
	  <point x="219" y="464"/>
	  <point x="249" y="486"/>
	  <point x="259" y="550" type="curve"/>
	  <point x="228" y="561" type="line"/>
	  <point x="221" y="541"/>
	  <point x="208" y="532"/>
	  <point x="187" y="532" type="curve" smooth="yes"/>
	  <point x="156" y="532"/>
	  <point x="128" y="558"/>
	  <point x="86" y="558" type="curve" smooth="yes"/>
	  <point x="56" y="558"/>
	  <point x="26" y="536"/>
	  <point x="16" y="469" type="curve"/>
	  <point x="47" y="458" type="line"/>
	  <point x="55" y="480"/>
	  <point x="68" y="490"/>
	  <point x="88" y="490" type="curve" smooth="yes"/>
	  <point x="120" y="490"/>
	  <point x="147" y="464"/>
	  <point x="190" y="464" type="curve" smooth="yes"/>
	</contour>
	<contour>
	  <point x="138" y="400" type="move" name="_top"/>
	</contour>
  </outline>
</glyph>
<glyph name="anusvara-deva" format="1">
  <advance width="0"/>
  <unicode hex="0902"/>
  <outline>
	<contour>
	  <point x="-152" y="730"/>
	  <point x="-178" y="705"/>
	  <point x="-178" y="675" type="curve" smooth="yes"/>
	  <point x="-178" y="641"/>
	  <point x="-152" y="615"/>
	  <point x="-120" y="615" type="curve" smooth="yes"/>
	  <point x="-88" y="615"/>
	  <point x="-63" y="641"/>
	  <point x="-63" y="675" type="curve" smooth="yes"/>
	  <point x="-63" y="705"/>
	  <point x="-88" y="730"/>
	  <point x="-120" y="730" type="curve" smooth="yes"/>
	</contour>
	<contour>
	  <point x="-120" y="500" type="move" name="_top"/>
	</contour>
  </outline>
</glyph>
<glyph name="a-deva" format="1">
  <advance width="659"/>
  <unicode hex="0905"/>
  <outline>
	<contour>
	  <point x="117" y="510"/>
	  <point x="39" y="462"/>
	  <point x="39" y="405" type="curve" smooth="yes"/>
	  <point x="39" y="370"/>
	  <point x="67" y="348"/>
	  <point x="99" y="348" type="curve" smooth="yes"/>
	  <point x="123" y="348"/>
	  <point x="149" y="359"/>
	  <point x="169" y="385" type="curve"/>
	  <point x="156" y="396"/>
	  <point x="149" y="408"/>
	  <point x="149" y="420" type="curve" smooth="yes"/>
	  <point x="149" y="453"/>
	  <point x="178" y="480"/>
	  <point x="214" y="480" type="curve" smooth="yes"/>
	  <point x="255" y="480"/>
	  <point x="289" y="449"/>
	  <point x="289" y="410" type="curve" smooth="yes"/>
	  <point x="289" y="342"/>
	  <point x="253" y="305"/>
	  <point x="154" y="305" type="curve"/>
	  <point x="119" y="253" type="line"/>
	  <point x="137" y="260"/>
	  <point x="159" y="263"/>
	  <point x="184" y="263" type="curve" smooth="yes"/>
	  <point x="261" y="263"/>
	  <point x="324" y="209"/>
	  <point x="324" y="140" type="curve" smooth="yes"/>
	  <point x="324" y="76"/>
	  <point x="279" y="25"/>
	  <point x="224" y="25" type="curve" smooth="yes"/>
	  <point x="177" y="25"/>
	  <point x="139" y="73"/>
	  <point x="139" y="130" type="curve" smooth="yes"/>
	  <point x="139" y="146"/>
	  <point x="141" y="165"/>
	  <point x="144" y="180" type="curve"/>
	  <point x="70" y="180"/>
	  <point x="29" y="149"/>
	  <point x="29" y="110" type="curve" smooth="yes"/>
	  <point x="29" y="43"/>
	  <point x="106" y="-10"/>
	  <point x="224" y="-10" type="curve" smooth="yes"/>
	  <point x="340" y="-10"/>
	  <point x="434" y="57"/>
	  <point x="434" y="140" type="curve" smooth="yes"/>
	  <point x="434" y="210"/>
	  <point x="395" y="280"/>
	  <point x="274" y="294" type="curve"/>
	  <point x="357" y="316"/>
	  <point x="399" y="363"/>
	  <point x="399" y="410" type="curve" smooth="yes"/>
	  <point x="399" y="465"/>
	  <point x="327" y="510"/>
	  <point x="214" y="510" type="curve" smooth="yes"/>
	</contour>
	<contour>
	  <point x="439" y="500" type="line"/>
	  <point x="439" y="470" type="line"/>
	  <point x="489" y="470" type="line"/>
	  <point x="489" y="285" type="line"/>
	  <point x="436" y="285"/>
	  <point x="376" y="261"/>
	  <point x="369" y="229" type="curve"/>
	  <point x="363" y="200" type="line"/>
	  <point x="391" y="227"/>
	  <point x="436" y="240"/>
	  <point x="459" y="240" type="curve" smooth="yes"/>
	  <point x="470" y="240"/>
	  <point x="480" y="237"/>
	  <point x="489" y="230" type="curve"/>
	  <point x="489" y="0" type="line"/>
	  <point x="589" y="0" type="line"/>
	  <point x="589" y="470" type="line"/>
	  <point x="669" y="470" type="line"/>
	  <point x="669" y="500" type="line"/>
	</contour>
	<contour>
	  <point x="224" y="-100" type="move" name="nukta"/>
	</contour>
	<contour>
	  <point x="539" y="0" type="move" name="bottom"/>
	</contour>
	<contour>
	  <point x="539" y="500" type="move" name="top"/>
	</contour>
  </outline>
</glyph>
<glyph name="uu-deva" format="1">
  <advance width="714"/>
  <unicode hex="090A"/>
  <outline>
	<contour>
	  <point x="399" y="225" type="line"/>
	  <point x="420" y="270"/>
	  <point x="459" y="300"/>
	  <point x="499" y="300" type="curve" smooth="yes"/>
	  <point x="540" y="300"/>
	  <point x="574" y="252"/>
	  <point x="574" y="180" type="curve" smooth="yes"/>
	  <point x="574" y="111"/>
	  <point x="535" y="40"/>
	  <point x="474" y="10" type="curve"/>
	  <point x="544" y="0" type="line"/>
	  <point x="628" y="31"/>
	  <point x="684" y="111"/>
	  <point x="684" y="200" type="curve" smooth="yes"/>
	  <point x="684" y="283"/>
	  <point x="620" y="350"/>
	  <point x="541" y="350" type="curve" smooth="yes"/>
	  <point x="476" y="350"/>
	  <point x="412" y="314"/>
	  <point x="374" y="255" type="curve"/>
	</contour>
	<contour>
	  <point x="-10" y="500" type="line"/>
	  <point x="-10" y="470" type="line"/>
	  <point x="724" y="470" type="line"/>
	  <point x="724" y="500" type="line"/>
	</contour>
	<contour>
	  <point x="119" y="253" type="line"/>
	  <point x="137" y="260"/>
	  <point x="159" y="263"/>
	  <point x="184" y="263" type="curve" smooth="yes"/>
	  <point x="261" y="263"/>
	  <point x="324" y="209"/>
	  <point x="324" y="140" type="curve" smooth="yes"/>
	  <point x="324" y="76"/>
	  <point x="279" y="25"/>
	  <point x="224" y="25" type="curve" smooth="yes"/>
	  <point x="177" y="25"/>
	  <point x="139" y="73"/>
	  <point x="139" y="130" type="curve" smooth="yes"/>
	  <point x="139" y="146"/>
	  <point x="141" y="165"/>
	  <point x="144" y="180" type="curve"/>
	  <point x="70" y="180"/>
	  <point x="29" y="149"/>
	  <point x="29" y="110" type="curve" smooth="yes"/>
	  <point x="29" y="43"/>
	  <point x="106" y="-10"/>
	  <point x="224" y="-10" type="curve" smooth="yes"/>
	  <point x="340" y="-10"/>
	  <point x="434" y="57"/>
	  <point x="434" y="140" type="curve" smooth="yes"/>
	  <point x="434" y="210"/>
	  <point x="395" y="280"/>
	  <point x="274" y="294" type="curve"/>
	  <point x="357" y="314"/>
	  <point x="399" y="351"/>
	  <point x="399" y="398" type="curve" smooth="yes"/>
	  <point x="399" y="444"/>
	  <point x="318" y="495"/>
	  <point x="189" y="495" type="curve"/>
	  <point x="184" y="470" type="line"/>
	  <point x="253" y="470"/>
	  <point x="289" y="427"/>
	  <point x="289" y="388" type="curve" smooth="yes"/>
	  <point x="289" y="328"/>
	  <point x="250" y="305"/>
	  <point x="154" y="305" type="curve"/>
	</contour>
	<contour>
	  <point x="275" y="500" type="move" name="top"/>
	</contour>
	<contour>
	  <point x="270" y="0" type="move" name="bottom"/>
	</contour>
  </outline>
</glyph>
<glyph name="rVocalic-deva" format="1">
  <advance width="818"/>
  <unicode hex="090B"/>
  <outline>
	<contour>
	  <point x="-10" y="500" type="line"/>
	  <point x="-10" y="470" type="line"/>
	  <point x="382" y="470" type="line"/>
	  <point x="382" y="194" type="line"/>
	  <point x="282" y="137" type="line"/>
	  <point x="331" y="178"/>
	  <point x="342" y="215"/>
	  <point x="342" y="250" type="curve" smooth="yes"/>
	  <point x="342" y="343"/>
	  <point x="271" y="405"/>
	  <point x="162" y="405" type="curve" smooth="yes"/>
	  <point x="93" y="405"/>
	  <point x="35" y="374"/>
	  <point x="12" y="325" type="curve"/>
	  <point x="82" y="250" type="line"/>
	  <point x="82" y="317"/>
	  <point x="120" y="370"/>
	  <point x="167" y="370" type="curve" smooth="yes"/>
	  <point x="203" y="370"/>
	  <point x="232" y="307"/>
	  <point x="232" y="230" type="curve" smooth="yes"/>
	  <point x="232" y="157"/>
	  <point x="201" y="93"/>
	  <point x="152" y="65" type="curve" smooth="yes"/>
	  <point x="82" y="25" type="line"/>
	  <point x="97" y="-10" type="line"/>
	  <point x="382" y="150" type="line"/>
	  <point x="382" y="0" type="line"/>
	  <point x="482" y="0" type="line"/>
	  <point x="482" y="206" type="line"/>
	  <point x="562" y="251" type="line"/>
	  <point x="639" y="207"/>
	  <point x="687" y="156"/>
	  <point x="687" y="120" type="curve" smooth="yes"/>
	  <point x="687" y="71"/>
	  <point x="636" y="30"/>
	  <point x="572" y="30" type="curve"/>
	  <point x="592" y="0" type="line"/>
	  <point x="705" y="0"/>
	  <point x="797" y="58"/>
	  <point x="797" y="130" type="curve" smooth="yes"/>
	  <point x="797" y="177"/>
	  <point x="741" y="238"/>
	  <point x="652" y="290" type="curve"/>
	  <point x="683" y="307"/>
	  <point x="702" y="331"/>
	  <point x="702" y="350" type="curve" smooth="yes"/>
	  <point x="702" y="383"/>
	  <point x="673" y="410"/>
	  <point x="637" y="410" type="curve" smooth="yes"/>
	  <point x="580" y="410"/>
	  <point x="532" y="372"/>
	  <point x="532" y="325" type="curve" smooth="yes"/>
	  <point x="532" y="310"/>
	  <point x="535" y="295"/>
	  <point x="542" y="284" type="curve"/>
	  <point x="482" y="250" type="line"/>
	  <point x="482" y="470" type="line"/>
	  <point x="828" y="470" type="line"/>
	  <point x="828" y="500" type="line"/>
	</contour>
	<contour>
	  <point x="432" y="500" type="move" name="top"/>
	</contour>
	<contour>
	  <point x="432" y="0" type="move" name="bottom"/>
	</contour>
  </outline>
</glyph>
<glyph name="e-deva" format="1">
  <advance width="465"/>
  <unicode hex="090F"/>
  <outline>
	<contour>
	  <point x="-10" y="500" type="line"/>
	  <point x="-10" y="470" type="line"/>
	  <point x="42" y="470" type="line"/>
	  <point x="42" y="250" type="line" smooth="yes"/>
	  <point x="42" y="121"/>
	  <point x="377" y="36"/>
	  <point x="377" y="-100" type="curve" smooth="yes"/>
	  <point x="377" y="-149"/>
	  <point x="336" y="-190"/>
	  <point x="287" y="-190" type="curve" smooth="yes"/>
	  <point x="240" y="-190"/>
	  <point x="192" y="-137"/>
	  <point x="172" y="-60" type="curve"/>
	  <point x="82" y="-120" type="line"/>
	  <point x="106" y="-187"/>
	  <point x="181" y="-230"/>
	  <point x="272" y="-230" type="curve" smooth="yes"/>
	  <point x="368" y="-230"/>
	  <point x="447" y="-167"/>
	  <point x="447" y="-90" type="curve" smooth="yes"/>
	  <point x="447" y="120"/>
	  <point x="142" y="125"/>
	  <point x="142" y="270" type="curve" smooth="yes"/>
	  <point x="142" y="470" type="line"/>
	  <point x="222" y="470" type="line"/>
	  <point x="283" y="434"/>
	  <point x="322" y="364"/>
	  <point x="322" y="285" type="curve" smooth="yes"/>
	  <point x="322" y="237"/>
	  <point x="296" y="187"/>
	  <point x="252" y="150" type="curve"/>
	  <point x="352" y="150"/>
	  <point x="432" y="213"/>
	  <point x="432" y="290" type="curve" smooth="yes"/>
	  <point x="432" y="357"/>
	  <point x="399" y="422"/>
	  <point x="342" y="470" type="curve"/>
	  <point x="475" y="470" type="line"/>
	  <point x="475" y="500" type="line"/>
	</contour>
	<contour>
	  <point x="272" y="500" type="move" name="top"/>
	</contour>
  </outline>
</glyph>
<glyph name="au-deva" format="1">
  <advance width="899"/>
  <unicode hex="0914"/>
  <outline>
	<component base="aa-deva"/>
	<component base="aiMatra-deva" xOffset="787"/>
	<contour>
	  <point x="671" y="500" type="move" name="top"/>
	</contour>
  </outline>
</glyph>
<glyph name="ka-deva" format="1">
  <advance width="761"/>
  <unicode hex="0915"/>
  <outline>
	<contour>
	  <point x="-10" y="500" type="line"/>
	  <point x="-10" y="470" type="line"/>
	  <point x="333" y="470" type="line"/>
	  <point x="333" y="343" type="line"/>
	  <point x="311" y="390"/>
	  <point x="266" y="420"/>
	  <point x="213" y="420" type="curve" smooth="yes"/>
	  <point x="113" y="420"/>
	  <point x="33" y="331"/>
	  <point x="33" y="220" type="curve" smooth="yes"/>
	  <point x="33" y="106"/>
	  <point x="107" y="35"/>
	  <point x="198" y="35" type="curve" smooth="yes"/>
	  <point x="267" y="35"/>
	  <point x="318" y="86"/>
	  <point x="333" y="115" type="curve"/>
	  <point x="333" y="0" type="line"/>
	  <point x="434" y="0" type="line"/>
	  <point x="434" y="190" type="line" smooth="yes"/>
	  <point x="434" y="281"/>
	  <point x="479" y="355"/>
	  <point x="534" y="355" type="curve" smooth="yes"/>
	  <point x="581" y="355"/>
	  <point x="619" y="297"/>
	  <point x="619" y="225" type="curve" smooth="yes"/>
	  <point x="619" y="135"/>
	  <point x="573" y="71"/>
	  <point x="512" y="71" type="curve" smooth="yes"/>
	  <point x="494" y="71"/>
	  <point x="474" y="77"/>
	  <point x="454" y="90" type="curve"/>
	  <point x="477" y="53"/>
	  <point x="516" y="35"/>
	  <point x="560" y="35" type="curve" smooth="yes"/>
	  <point x="640" y="35"/>
	  <point x="729" y="99"/>
	  <point x="729" y="225" type="curve" smooth="yes"/>
	  <point x="729" y="330"/>
	  <point x="657" y="415"/>
	  <point x="569" y="415" type="curve" smooth="yes"/>
	  <point x="512" y="415"/>
	  <point x="459" y="373"/>
	  <point x="434" y="310" type="curve"/>
	  <point x="434" y="470" type="line"/>
	  <point x="771" y="470" type="line"/>
	  <point x="771" y="500" type="line"/>
	</contour>
	<contour>
	  <point x="222" y="380"/>
	  <point x="233" y="311"/>
	  <point x="233" y="260" type="curve"/>
	  <point x="333" y="305" type="line"/>
	  <point x="333" y="177" type="line"/>
	  <point x="304" y="117"/>
	  <point x="270" y="91"/>
	  <point x="225" y="91" type="curve" smooth="yes"/>
	  <point x="172" y="91"/>
	  <point x="143" y="162"/>
	  <point x="143" y="250" type="curve" smooth="yes"/>
	  <point x="143" y="322"/>
	  <point x="167" y="380"/>
	  <point x="198" y="380" type="curve" smooth="yes"/>
	</contour>
	<contour>
	  <point x="176" y="-71" type="move" name="nukta"/>
	</contour>
	<contour>
	  <point x="384" y="0" type="move" name="bottom"/>
	</contour>
	<contour>
	  <point x="384" y="500" type="move" name="top"/>
	</contour>
  </outline>
</glyph>
<glyph name="nga-deva" format="1">
  <advance width="569"/>
  <unicode hex="0919"/>
  <outline>
	<contour>
	  <point x="-10" y="500" type="line"/>
	  <point x="-10" y="470" type="line"/>
	  <point x="301" y="470" type="line"/>
	  <point x="301" y="410" type="line"/>
	  <point x="284" y="419"/>
	  <point x="254" y="424"/>
	  <point x="221" y="424" type="curve" smooth="yes"/>
	  <point x="150" y="424"/>
	  <point x="66" y="399"/>
	  <point x="66" y="330" type="curve" smooth="yes"/>
	  <point x="66" y="199"/>
	  <point x="341" y="214"/>
	  <point x="341" y="120" type="curve" smooth="yes"/>
	  <point x="341" y="65"/>
	  <point x="293" y="30"/>
	  <point x="236" y="30" type="curve" smooth="yes"/>
	  <point x="179" y="30"/>
	  <point x="121" y="68"/>
	  <point x="121" y="160" type="curve" smooth="yes"/>
	  <point x="121" y="168"/>
	  <point x="124" y="188"/>
	  <point x="131" y="200" type="curve"/>
	  <point x="117" y="205"/>
	  <point x="104" y="207"/>
	  <point x="92" y="207" type="curve" smooth="yes"/>
	  <point x="50" y="207"/>
	  <point x="21" y="182"/>
	  <point x="21" y="140" type="curve" smooth="yes"/>
	  <point x="21" y="53"/>
	  <point x="116" y="0"/>
	  <point x="236" y="0" type="curve" smooth="yes"/>
	  <point x="354" y="0"/>
	  <point x="451" y="60"/>
	  <point x="451" y="135" type="curve" smooth="yes"/>
	  <point x="451" y="296"/>
	  <point x="176" y="276"/>
	  <point x="176" y="350" type="curve" smooth="yes"/>
	  <point x="176" y="376"/>
	  <point x="204" y="389"/>
	  <point x="237" y="389" type="curve" smooth="yes"/>
	  <point x="265" y="389"/>
	  <point x="297" y="379"/>
	  <point x="316" y="360" type="curve"/>
	  <point x="401" y="395" type="line"/>
	  <point x="401" y="470" type="line"/>
	  <point x="579" y="470" type="line"/>
	  <point x="579" y="500" type="line"/>
	</contour>
	<contour>
	  <point x="446" y="367"/>
	  <point x="423" y="344"/>
	  <point x="423" y="317" type="curve" smooth="yes"/>
	  <point x="423" y="290"/>
	  <point x="446" y="267"/>
	  <point x="473" y="267" type="curve" smooth="yes"/>
	  <point x="500" y="267"/>
	  <point x="523" y="290"/>
	  <point x="523" y="317" type="curve" smooth="yes"/>
	  <point x="523" y="344"/>
	  <point x="500" y="367"/>
	  <point x="473" y="367" type="curve" smooth="yes"/>
	</contour>
	<contour>
	  <point x="236" y="-100" type="move" name="nukta"/>
	</contour>
	<contour>
	  <point x="356" y="0" type="move" name="bottom"/>
	</contour>
	<contour>
	  <point x="356" y="500" type="move" name="top"/>
	</contour>
  </outline>
</glyph>
<glyph name="nya-deva" format="1">
  <advance width="638"/>
  <unicode hex="091E"/>
  <outline>
	<contour>
	  <point x="-10" y="500" type="line"/>
	  <point x="-10" y="470" type="line"/>
	  <point x="468" y="470" type="line"/>
	  <point x="468" y="300" type="line"/>
	  <point x="460" y="291"/>
	  <point x="449" y="285"/>
	  <point x="438" y="285" type="curve" smooth="yes"/>
	  <point x="421" y="285"/>
	  <point x="404" y="296"/>
	  <point x="393" y="315" type="curve" smooth="yes"/>
	  <point x="358" y="376"/>
	  <point x="298" y="415"/>
	  <point x="233" y="415" type="curve" smooth="yes"/>
	  <point x="198" y="415"/>
	  <point x="186" y="412"/>
	  <point x="168" y="405" type="curve"/>
	  <point x="123" y="350" type="line"/>
	  <point x="270" y="350"/>
	  <point x="333" y="290"/>
	  <point x="333" y="200" type="curve" smooth="yes"/>
	  <point x="333" y="136"/>
	  <point x="285" y="85"/>
	  <point x="228" y="85" type="curve" smooth="yes"/>
	  <point x="159" y="85"/>
	  <point x="103" y="159"/>
	  <point x="103" y="250" type="curve"/>
	  <point x="18" y="185" type="line"/>
	  <point x="29" y="100"/>
	  <point x="105" y="30"/>
	  <point x="198" y="30" type="curve" smooth="yes"/>
	  <point x="317" y="30"/>
	  <point x="403" y="110"/>
	  <point x="403" y="250" type="curve"/>
	  <point x="414" y="243"/>
	  <point x="426" y="240"/>
	  <point x="438" y="240" type="curve" smooth="yes"/>
	  <point x="447" y="240"/>
	  <point x="457" y="243"/>
	  <point x="468" y="250" type="curve"/>
	  <point x="468" y="0" type="line"/>
	  <point x="568" y="0" type="line"/>
	  <point x="568" y="470" type="line"/>
	  <point x="648" y="470" type="line"/>
	  <point x="648" y="500" type="line"/>
	</contour>
	<contour>
	  <point x="228" y="-100" type="move" name="nukta"/>
	</contour>
	<contour>
	  <point x="518" y="0" type="move" name="bottom"/>
	</contour>
	<contour>
	  <point x="518" y="500" type="move" name="top"/>
	</contour>
  </outline>
</glyph>
<glyph name="tta-deva" format="1">
  <advance width="499"/>
  <unicode hex="091F"/>
  <outline>
	<contour>
	  <point x="-10" y="500" type="line"/>
	  <point x="-10" y="470" type="line"/>
	  <point x="318" y="470" type="line"/>
	  <point x="318" y="390" type="line"/>
	  <point x="304" y="397"/>
	  <point x="282" y="400"/>
	  <point x="253" y="400" type="curve" smooth="yes"/>
	  <point x="120" y="400"/>
	  <point x="33" y="322"/>
	  <point x="33" y="205" type="curve" smooth="yes"/>
	  <point x="33" y="81"/>
	  <point x="124" y="0"/>
	  <point x="263" y="0" type="curve" smooth="yes"/>
	  <point x="382" y="0"/>
	  <point x="478" y="72"/>
	  <point x="478" y="160" type="curve" smooth="yes"/>
	  <point x="478" y="208"/>
	  <point x="447" y="237"/>
	  <point x="402" y="237" type="curve" smooth="yes"/>
	  <point x="386" y="237"/>
	  <point x="367" y="233"/>
	  <point x="348" y="225" type="curve"/>
	  <point x="361" y="202"/>
	  <point x="368" y="180"/>
	  <point x="368" y="160" type="curve" smooth="yes"/>
	  <point x="368" y="88"/>
	  <point x="320" y="30"/>
	  <point x="263" y="30" type="curve" smooth="yes"/>
	  <point x="196" y="30"/>
	  <point x="143" y="109"/>
	  <point x="143" y="205" type="curve" smooth="yes"/>
	  <point x="143" y="296"/>
	  <point x="196" y="370"/>
	  <point x="263" y="370" type="curve" smooth="yes"/>
	  <point x="288" y="370"/>
	  <point x="314" y="359"/>
	  <point x="333" y="340" type="curve"/>
	  <point x="418" y="365" type="line"/>
	  <point x="418" y="470" type="line"/>
	  <point x="509" y="470" type="line"/>
	  <point x="509" y="500" type="line"/>
	</contour>
	<contour>
	  <point x="263" y="-100" type="move" name="nukta"/>
	</contour>
	<contour>
	  <point x="368" y="0" type="move" name="bottom"/>
	</contour>
	<contour>
	  <point x="368" y="500" type="move" name="top"/>
	</contour>
  </outline>
</glyph>
<glyph name="ddha-deva" format="1">
  <advance width="540"/>
  <unicode hex="0922"/>
  <outline>
	<contour>
	  <point x="-10" y="500" type="line"/>
	  <point x="-10" y="470" type="line"/>
	  <point x="327" y="470" type="line"/>
	  <point x="327" y="390" type="line"/>
	  <point x="313" y="397"/>
	  <point x="291" y="400"/>
	  <point x="262" y="400" type="curve" smooth="yes"/>
	  <point x="123" y="400"/>
	  <point x="32" y="321"/>
	  <point x="32" y="200" type="curve" smooth="yes"/>
	  <point x="32" y="79"/>
	  <point x="129" y="0"/>
	  <point x="277" y="0" type="curve" smooth="yes"/>
	  <point x="422" y="0"/>
	  <point x="517" y="59"/>
	  <point x="517" y="150" type="curve" smooth="yes"/>
	  <point x="517" y="217"/>
	  <point x="447" y="270"/>
	  <point x="362" y="270" type="curve" smooth="yes"/>
	  <point x="287" y="270"/>
	  <point x="227" y="217"/>
	  <point x="227" y="150" type="curve" smooth="yes"/>
	  <point x="227" y="102"/>
	  <point x="259" y="57"/>
	  <point x="307" y="40" type="curve"/>
	  <point x="296" y="33"/>
	  <point x="281" y="30"/>
	  <point x="262" y="30" type="curve" smooth="yes"/>
	  <point x="195" y="30"/>
	  <point x="142" y="107"/>
	  <point x="142" y="200" type="curve" smooth="yes"/>
	  <point x="142" y="293"/>
	  <point x="195" y="370"/>
	  <point x="262" y="370" type="curve" smooth="yes"/>
	  <point x="289" y="370"/>
	  <point x="311" y="363"/>
	  <point x="327" y="350" type="curve"/>
	  <point x="427" y="375" type="line"/>
	  <point x="427" y="470" type="line"/>
	  <point x="550" y="470" type="line"/>
	  <point x="550" y="500" type="line"/>
	</contour>
	<contour>
	  <point x="389" y="240"/>
	  <point x="407" y="199"/>
	  <point x="407" y="150" type="curve" smooth="yes"/>
	  <point x="407" y="101"/>
	  <point x="389" y="60"/>
	  <point x="367" y="60" type="curve"/>
	  <point x="345" y="60"/>
	  <point x="327" y="101"/>
	  <point x="327" y="150" type="curve" smooth="yes"/>
	  <point x="327" y="199"/>
	  <point x="345" y="240"/>
	  <point x="367" y="240" type="curve"/>
	</contour>
	<contour>
	  <point x="277" y="-100" type="move" name="nukta"/>
	</contour>
	<contour>
	  <point x="377" y="0" type="move" name="bottom"/>
	</contour>
	<contour>
	  <point x="377" y="500" type="move" name="top"/>
	</contour>
  </outline>
</glyph>
<glyph name="tha-deva" format="1">
  <advance width="569"/>
  <unicode hex="0925"/>
  <outline>
	<contour>
	  <point x="106" y="525"/>
	  <point x="39" y="472"/>
	  <point x="39" y="405" type="curve" smooth="yes"/>
	  <point x="39" y="357"/>
	  <point x="94" y="293"/>
	  <point x="169" y="300" type="curve"/>
	  <point x="162" y="295"/>
	  <point x="139" y="285"/>
	  <point x="79" y="285" type="curve" smooth="yes"/>
	  <point x="56" y="285"/>
	  <point x="39" y="260"/>
	  <point x="39" y="235" type="curve" smooth="yes"/>
	  <point x="39" y="127"/>
	  <point x="126" y="40"/>
	  <point x="234" y="40" type="curve" smooth="yes"/>
	  <point x="306" y="40"/>
	  <point x="368" y="73"/>
	  <point x="399" y="125" type="curve"/>
	  <point x="399" y="0" type="line"/>
	  <point x="499" y="0" type="line"/>
	  <point x="499" y="470" type="line"/>
	  <point x="579" y="470" type="line"/>
	  <point x="579" y="500" type="line"/>
	  <point x="349" y="500" type="line"/>
	  <point x="349" y="470" type="line"/>
	  <point x="399" y="470" type="line"/>
	  <point x="399" y="195" type="line"/>
	  <point x="383" y="134"/>
	  <point x="334" y="90"/>
	  <point x="279" y="90" type="curve" smooth="yes"/>
	  <point x="202" y="90"/>
	  <point x="139" y="164"/>
	  <point x="139" y="255" type="curve"/>
	  <point x="250" y="255"/>
	  <point x="339" y="322"/>
	  <point x="339" y="405" type="curve" smooth="yes"/>
	  <point x="339" y="472"/>
	  <point x="272" y="525"/>
	  <point x="189" y="525" type="curve" smooth="yes"/>
	</contour>
	<contour>
	  <point x="212" y="495"/>
	  <point x="229" y="459"/>
	  <point x="229" y="415" type="curve" smooth="yes"/>
	  <point x="229" y="374"/>
	  <point x="214" y="340"/>
	  <point x="189" y="325" type="curve"/>
	  <point x="166" y="329"/>
	  <point x="149" y="369"/>
	  <point x="149" y="420" type="curve" smooth="yes"/>
	  <point x="149" y="461"/>
	  <point x="166" y="495"/>
	  <point x="189" y="495" type="curve" smooth="yes"/>
	</contour>
	<contour>
	  <point x="189" y="-80" type="move" name="nukta"/>
	</contour>
	<contour>
	  <point x="449" y="0" type="move" name="bottom"/>
	</contour>
	<contour>
	  <point x="449" y="500" type="move" name="top"/>
	</contour>
  </outline>
</glyph>
<glyph name="nnna-deva" format="1">
  <advance width="567"/>
  <unicode hex="0929"/>
  <outline>
	<component base="na-deva"/>
	<component base="nukta-deva" xOffset="312" yOffset="-55"/>
	<contour>
	  <point x="447" y="500" type="move" name="top"/>
	</contour>
	<contour>
	  <point x="447" y="0" type="move" name="bottom"/>
	</contour>
  </outline>
</glyph>
<glyph name="pa-deva" format="1">
  <advance width="523"/>
  <unicode hex="092A"/>
  <outline>
	<contour>
	  <point x="-10" y="500" type="line"/>
	  <point x="-10" y="470" type="line"/>
	  <point x="53" y="470" type="line"/>
	  <point x="53" y="235" type="line" smooth="yes"/>
	  <point x="53" y="142"/>
	  <point x="123" y="85"/>
	  <point x="208" y="85" type="curve" smooth="yes"/>
	  <point x="279" y="85"/>
	  <point x="336" y="133"/>
	  <point x="353" y="180" type="curve"/>
	  <point x="353" y="0" type="line"/>
	  <point x="453" y="0" type="line"/>
	  <point x="453" y="470" type="line"/>
	  <point x="533" y="470" type="line"/>
	  <point x="533" y="500" type="line"/>
	</contour>
	<contour>
	  <point x="353" y="255" type="line"/>
	  <point x="337" y="186"/>
	  <point x="293" y="135"/>
	  <point x="238" y="135" type="curve" smooth="yes"/>
	  <point x="186" y="135"/>
	  <point x="153" y="169"/>
	  <point x="153" y="235" type="curve" smooth="yes"/>
	  <point x="153" y="470" type="line"/>
	  <point x="353" y="470" type="line"/>
	</contour>
	<contour>
	  <point x="153" y="-55" type="move" name="nukta"/>
	</contour>
	<contour>
	  <point x="403" y="0" type="move" name="bottom"/>
	</contour>
	<contour>
	  <point x="403" y="500" type="move" name="top"/>
	</contour>
  </outline>
</glyph>
<glyph name="pha-deva" format="1">
  <advance width="780"/>
  <unicode hex="092B"/>
  <outline>
	<contour>
	  <point x="-10" y="500" type="line"/>
	  <point x="-10" y="470" type="line"/>
	  <point x="53" y="470" type="line"/>
	  <point x="53" y="235" type="line" smooth="yes"/>
	  <point x="53" y="142"/>
	  <point x="123" y="85"/>
	  <point x="208" y="85" type="curve" smooth="yes"/>
	  <point x="279" y="85"/>
	  <point x="336" y="133"/>
	  <point x="353" y="180" type="curve"/>
	  <point x="353" y="0" type="line"/>
	  <point x="453" y="0" type="line"/>
	  <point x="453" y="470" type="line"/>
	  <point x="790" y="470" type="line"/>
	  <point x="790" y="500" type="line"/>
	</contour>
	<contour>
	  <point x="353" y="255" type="line"/>
	  <point x="337" y="186"/>
	  <point x="293" y="135"/>
	  <point x="238" y="135" type="curve" smooth="yes"/>
	  <point x="186" y="135"/>
	  <point x="153" y="169"/>
	  <point x="153" y="235" type="curve" smooth="yes"/>
	  <point x="153" y="470" type="line"/>
	  <point x="353" y="470" type="line"/>
	</contour>
	<contour>
	  <point x="453" y="312"/>
	  <point x="494" y="365"/>
	  <point x="543" y="365" type="curve" smooth="yes"/>
	  <point x="595" y="365"/>
	  <point x="638" y="298"/>
	  <point x="638" y="215" type="curve" smooth="yes"/>
	  <point x="638" y="146"/>
	  <point x="609" y="90"/>
	  <point x="573" y="90" type="curve" smooth="yes"/>
	  <point x="556" y="90"/>
	  <point x="538" y="113"/>
	  <point x="533" y="145" type="curve"/>
	  <point x="478" y="90" type="line"/>
	  <point x="497" y="67"/>
	  <point x="529" y="55"/>
	  <point x="568" y="55" type="curve" smooth="yes"/>
	  <point x="677" y="55"/>
	  <point x="748" y="126"/>
	  <point x="748" y="235" type="curve" smooth="yes"/>
	  <point x="748" y="344"/>
	  <point x="677" y="415"/>
	  <point x="568" y="415" type="curve" smooth="yes"/>
	  <point x="524" y="415"/>
	  <point x="480" y="387"/>
	  <point x="453" y="340" type="curve"/>
	  <point x="453" y="245" type="line"/>
	</contour>
	<contour>
	  <point x="153" y="-55" type="move" name="nukta"/>
	</contour>
	<contour>
	  <point x="403" y="0" type="move" name="bottom"/>
	</contour>
	<contour>
	  <point x="403" y="500" type="move" name="top"/>
	</contour>
  </outline>
</glyph>
<glyph name="ba-deva" format="1">
  <advance width="531"/>
  <unicode hex="092C"/>
  <outline>
	<contour>
	  <point x="123" y="349" type="line"/>
	  <point x="297" y="89" type="line"/>
	  <point x="322" y="129" type="line"/>
	  <point x="148" y="389" type="line"/>
	</contour>
	<component base="va-deva"/>
	<contour>
	  <point x="87" y="-55" type="move" name="nukta"/>
	</contour>
	<contour>
	  <point x="411" y="0" type="move" name="bottom"/>
	</contour>
	<contour>
	  <point x="411" y="500" type="move" name="top"/>
	</contour>
  </outline>
</glyph>
<glyph name="bha-deva" format="1">
  <advance width="602"/>
  <unicode hex="092D"/>
  <outline>
	<contour>
	  <point x="97" y="530"/>
	  <point x="27" y="487"/>
	  <point x="27" y="435" type="curve" smooth="yes"/>
	  <point x="27" y="394"/>
	  <point x="83" y="360"/>
	  <point x="152" y="360" type="curve"/>
	  <point x="177" y="385" type="line"/>
	  <point x="154" y="385"/>
	  <point x="137" y="409"/>
	  <point x="137" y="440" type="curve" smooth="yes"/>
	  <point x="137" y="473"/>
	  <point x="157" y="500"/>
	  <point x="182" y="500" type="curve" smooth="yes"/>
	  <point x="207" y="500"/>
	  <point x="227" y="469"/>
	  <point x="227" y="430" type="curve" smooth="yes"/>
	  <point x="227" y="292" type="line"/>
	  <point x="192" y="292" type="line"/>
	  <point x="101" y="292"/>
	  <point x="27" y="243"/>
	  <point x="27" y="182" type="curve" smooth="yes"/>
	  <point x="27" y="110"/>
	  <point x="101" y="52"/>
	  <point x="192" y="52" type="curve" smooth="yes"/>
	  <point x="267" y="52"/>
	  <point x="327" y="97"/>
	  <point x="327" y="152" type="curve" smooth="yes"/>
	  <point x="327" y="252" type="line"/>
	  <point x="432" y="252" type="line"/>
	  <point x="432" y="0" type="line"/>
	  <point x="532" y="0" type="line"/>
	  <point x="532" y="470" type="line"/>
	  <point x="612" y="470" type="line"/>
	  <point x="612" y="500" type="line"/>
	  <point x="372" y="500" type="line"/>
	  <point x="372" y="470" type="line"/>
	  <point x="432" y="470" type="line"/>
	  <point x="432" y="292" type="line"/>
	  <point x="327" y="292" type="line"/>
	  <point x="327" y="430" type="line" smooth="yes"/>
	  <point x="327" y="485"/>
	  <point x="262" y="530"/>
	  <point x="182" y="530" type="curve" smooth="yes"/>
	</contour>
	<contour>
	  <point x="227" y="142" type="line" smooth="yes"/>
	  <point x="227" y="112"/>
	  <point x="211" y="87"/>
	  <point x="192" y="87" type="curve" smooth="yes"/>
	  <point x="161" y="87"/>
	  <point x="137" y="130"/>
	  <point x="137" y="182" type="curve" smooth="yes"/>
	  <point x="137" y="221"/>
	  <point x="160" y="252"/>
	  <point x="227" y="252" type="curve"/>
	</contour>
	<contour>
	  <point x="192" y="-55" type="move" name="nukta"/>
	</contour>
	<contour>
	  <point x="482" y="0" type="move" name="bottom"/>
	</contour>
	<contour>
	  <point x="482" y="500" type="move" name="top"/>
	</contour>
  </outline>
</glyph>
<glyph name="ma-deva" format="1">
  <advance width="568"/>
  <unicode hex="092E"/>
  <outline>
	<contour>
	  <point x="-10" y="500" type="line"/>
	  <point x="-10" y="470" type="line"/>
	  <point x="143" y="470" type="line"/>
	  <point x="167" y="438"/>
	  <point x="188" y="353"/>
	  <point x="188" y="300" type="curve"/>
	  <point x="78" y="300"/>
	  <point x="23" y="250"/>
	  <point x="23" y="180" type="curve" smooth="yes"/>
	  <point x="23" y="113"/>
	  <point x="80" y="60"/>
	  <point x="153" y="60" type="curve" smooth="yes"/>
	  <point x="236" y="60"/>
	  <point x="288" y="123"/>
	  <point x="288" y="200" type="curve" smooth="yes"/>
	  <point x="288" y="260" type="line"/>
	  <point x="398" y="260" type="line"/>
	  <point x="398" y="0" type="line"/>
	  <point x="498" y="0" type="line"/>
	  <point x="498" y="470" type="line"/>
	  <point x="578" y="470" type="line"/>
	  <point x="578" y="500" type="line"/>
	</contour>
	<contour>
	  <point x="188" y="124"/>
	  <point x="174" y="95"/>
	  <point x="158" y="95" type="curve" smooth="yes"/>
	  <point x="140" y="95"/>
	  <point x="133" y="144"/>
	  <point x="133" y="180" type="curve" smooth="yes"/>
	  <point x="133" y="221"/>
	  <point x="147" y="260"/>
	  <point x="188" y="260" type="curve"/>
	</contour>
	<contour>
	  <point x="398" y="300" type="line"/>
	  <point x="288" y="300" type="line"/>
	  <point x="288" y="353"/>
	  <point x="272" y="438"/>
	  <point x="248" y="470" type="curve"/>
	  <point x="398" y="470" type="line"/>
	</contour>
	<contour>
	  <point x="158" y="-55" type="move" name="nukta"/>
	</contour>
	<contour>
	  <point x="448" y="0" type="move" name="bottom"/>
	</contour>
	<contour>
	  <point x="448" y="500" type="move" name="top"/>
	</contour>
  </outline>
</glyph>
<glyph name="ya-deva" format="1">
  <advance width="524"/>
  <unicode hex="092F"/>
  <outline>
	<contour>
	  <point x="-10" y="500" type="line"/>
	  <point x="-10" y="470" type="line"/>
	  <point x="149" y="470" type="line"/>
	  <point x="180" y="453"/>
	  <point x="199" y="422"/>
	  <point x="199" y="390" type="curve" smooth="yes"/>
	  <point x="199" y="346"/>
	  <point x="161" y="310"/>
	  <point x="114" y="310" type="curve"/>
	  <point x="59" y="315" type="line"/>
	  <point x="40" y="315"/>
	  <point x="24" y="286"/>
	  <point x="24" y="250" type="curve" smooth="yes"/>
	  <point x="24" y="150"/>
	  <point x="106" y="70"/>
	  <point x="209" y="70" type="curve" smooth="yes"/>
	  <point x="265" y="70"/>
	  <point x="319" y="99"/>
	  <point x="354" y="150" type="curve"/>
	  <point x="354" y="0" type="line"/>
	  <point x="454" y="0" type="line"/>
	  <point x="454" y="470" type="line"/>
	  <point x="534" y="470" type="line"/>
	  <point x="534" y="500" type="line"/>
	</contour>
	<contour>
	  <point x="354" y="220" type="line"/>
	  <point x="338" y="161"/>
	  <point x="291" y="120"/>
	  <point x="239" y="120" type="curve" smooth="yes"/>
	  <point x="182" y="120"/>
	  <point x="134" y="178"/>
	  <point x="134" y="250" type="curve" smooth="yes"/>
	  <point x="134" y="260"/>
	  <point x="137" y="280"/>
	  <point x="144" y="280" type="curve" smooth="yes"/>
	  <point x="235" y="280"/>
	  <point x="309" y="329"/>
	  <point x="309" y="390" type="curve" smooth="yes"/>
	  <point x="309" y="408"/>
	  <point x="301" y="444"/>
	  <point x="259" y="470" type="curve"/>
	  <point x="354" y="470" type="line"/>
	</contour>
	<contour>
	  <point x="114" y="-55" type="move" name="nukta"/>
	</contour>
	<contour>
	  <point x="404" y="0" type="move" name="bottom"/>
	</contour>
	<contour>
	  <point x="404" y="500" type="move" name="top"/>
	</contour>
  </outline>
</glyph>
<glyph name="rra-deva" format="1">
  <advance width="355"/>
  <unicode hex="0931"/>
  <outline>
	<component base="ra-deva"/>
	<component base="nukta-deva" xOffset="186"/>
	<contour>
	  <point x="66" y="0" type="move" name="nukta"/>
	</contour>
	<contour>
	  <point x="246" y="0" type="move" name="bottom"/>
	</contour>
	<contour>
	  <point x="200" y="500" type="move" name="top"/>
	</contour>
  </outline>
</glyph>
<glyph name="avagraha-deva" format="1">
  <advance width="477"/>
  <unicode hex="093D"/>
  <outline>
	<contour>
	  <point x="252" y="500"/>
	  <point x="62" y="475"/>
	  <point x="62" y="378" type="curve" smooth="yes"/>
	  <point x="62" y="241"/>
	  <point x="342" y="216"/>
	  <point x="342" y="120" type="curve" smooth="yes"/>
	  <point x="342" y="65"/>
	  <point x="276" y="40"/>
	  <point x="217" y="40" type="curve" smooth="yes"/>
	  <point x="137" y="40"/>
	  <point x="65" y="76"/>
	  <point x="32" y="135" type="curve"/>
	  <point x="12" y="95" type="line"/>
	  <point x="65" y="31"/>
	  <point x="145" y="-5"/>
	  <point x="232" y="-5" type="curve" smooth="yes"/>
	  <point x="353" y="-5"/>
	  <point x="452" y="55"/>
	  <point x="452" y="150" type="curve" smooth="yes"/>
	  <point x="452" y="298"/>
	  <point x="172" y="328"/>
	  <point x="172" y="400" type="curve" smooth="yes"/>
	  <point x="172" y="446"/>
	  <point x="303" y="460"/>
	  <point x="392" y="460" type="curve"/>
	  <point x="372" y="500" type="line"/>
	</contour>
  </outline>
</glyph>
<glyph name="aaMatra-deva" format="1">
  <advance width="240"/>
  <unicode hex="093E"/>
  <outline>
	<contour>
	  <point x="-10" y="500" type="line"/>
	  <point x="-10" y="470" type="line"/>
	  <point x="70" y="470" type="line"/>
	  <point x="70" y="0" type="line"/>
	  <point x="170" y="0" type="line"/>
	  <point x="170" y="470" type="line"/>
	  <point x="250" y="470" type="line"/>
	  <point x="250" y="500" type="line"/>
	</contour>
	<contour>
	  <point x="120" y="500" type="move" name="top"/>
	</contour>
	<contour>
	  <point x="120" y="0" type="move" name="bottom"/>
	</contour>
  </outline>
</glyph>
<glyph name="rrVocalicMatra-deva" format="1">
  <advance width="0"/>
  <unicode hex="0944"/>
  <outline>
	<contour>
	  <point x="-261" y="-137" type="line"/>
	  <point x="-314" y="-150"/>
	  <point x="-350" y="-177"/>
	  <point x="-350" y="-210" type="curve" smooth="yes"/>
	  <point x="-350" y="-260"/>
	  <point x="-266" y="-285"/>
	  <point x="-210" y="-285" type="curve" smooth="yes"/>
	  <point x="-98" y="-285"/>
	  <point x="-42" y="-258"/>
	  <point x="0" y="-215" type="curve"/>
	  <point x="-75" y="-180" type="line"/>
	  <point x="-99" y="-217"/>
	  <point x="-134" y="-240"/>
	  <point x="-190" y="-240" type="curve" smooth="yes"/>
	  <point x="-222" y="-240"/>
	  <point x="-245" y="-221"/>
	  <point x="-245" y="-200" type="curve" smooth="yes"/>
	  <point x="-245" y="-172"/>
	  <point x="-176" y="-149"/>
	  <point x="-125" y="-140" type="curve"/>
	  <point x="-145" y="-110" type="line"/>
	  <point x="-218" y="-110"/>
	  <point x="-245" y="-101"/>
	  <point x="-245" y="-80" type="curve" smooth="yes"/>
	  <point x="-245" y="-54"/>
	  <point x="-104" y="-19"/>
	  <point x="-35" y="0" type="curve"/>
	  <point x="-135" y="0" type="line"/>
	  <point x="-289" y="-34"/>
	  <point x="-350" y="-58"/>
	  <point x="-350" y="-90" type="curve" smooth="yes"/>
	  <point x="-350" y="-112"/>
	  <point x="-330" y="-132"/>
	  <point x="-261" y="-132" type="curve"/>
	</contour>
	<contour>
	  <point x="-120" y="0" type="move" name="_bottom"/>
	</contour>
  </outline>
</glyph>
<glyph name="eCandraMatra-deva" format="1">
  <advance width="0"/>
  <unicode hex="0945"/>
  <outline>
	<contour>
	  <point x="-5" y="637"/>
	  <point x="-51" y="600"/>
	  <point x="-111" y="600" type="curve" smooth="yes"/>
	  <point x="-162" y="600"/>
	  <point x="-203" y="638"/>
	  <point x="-215" y="710" type="curve"/>
	  <point x="-301" y="679" type="line"/>
	  <point x="-279" y="601"/>
	  <point x="-209" y="560"/>
	  <point x="-130" y="560" type="curve" smooth="yes"/>
	  <point x="-55" y="560"/>
	  <point x="11" y="604"/>
	  <point x="36" y="697" type="curve"/>
	  <point x="17" y="710" type="line"/>
	</contour>
	<contour>
	  <point x="-120" y="500" type="move" name="_top"/>
	</contour>
  </outline>
</glyph>
<glyph name="eShortMatra-deva" format="1">
  <advance width="0"/>
  <unicode hex="0946"/>
  <outline>
	<contour>
	  <point x="-548" y="717" type="line"/>
	  <point x="-489" y="553"/>
	  <point x="-165" y="668"/>
	  <point x="-165" y="500" type="curve"/>
	  <point x="-75" y="500" type="line"/>
	  <point x="-75" y="693"/>
	  <point x="-400" y="572"/>
	  <point x="-463" y="747" type="curve"/>
	</contour>
	<contour>
	  <point x="-120" y="500" type="move" name="_top"/>
	</contour>
  </outline>
</glyph>
<glyph name="eMatra-deva" format="1">
  <advance width="0"/>
  <unicode hex="0947"/>
  <outline>
	<contour>
	  <point x="-450" y="700" type="line"/>
	  <point x="-325" y="700"/>
	  <point x="-251" y="500"/>
	  <point x="-130" y="500" type="curve" smooth="yes"/>
	  <point x="-87" y="500"/>
	  <point x="-59" y="514"/>
	  <point x="-45" y="530" type="curve"/>
	  <point x="-151" y="530"/>
	  <point x="-262" y="750"/>
	  <point x="-375" y="750" type="curve"/>
	</contour>
	<contour>
	  <point x="-120" y="500" type="move" name="_top"/>
	</contour>
  </outline>
</glyph>
<glyph name="aiMatra-deva" format="1">
  <advance width="0"/>
  <unicode hex="0948"/>
  <outline>
	<contour>
	  <point x="-276" y="699" type="line"/>
	  <point x="-184" y="699"/>
	  <point x="-134" y="588"/>
	  <point x="-119" y="528" type="curve"/>
	  <point x="-123" y="528" type="line"/>
	  <point x="-181" y="618"/>
	  <point x="-238" y="661"/>
	  <point x="-306" y="661" type="curve"/>
	  <point x="-370" y="610" type="line"/>
	  <point x="-236" y="610"/>
	  <point x="-211" y="500"/>
	  <point x="-131" y="500" type="curve"/>
	  <point x="-91" y="500"/>
	  <point x="-69" y="513"/>
	  <point x="-49" y="535" type="curve"/>
	  <point x="-97" y="581"/>
	  <point x="-99" y="724"/>
	  <point x="-212" y="749" type="curve"/>
	</contour>
	<contour>
	  <point x="-126" y="500" type="move" name="_top"/>
	</contour>
  </outline>
</glyph>
<glyph name="oShortMatra-deva" format="1">
  <advance width="240"/>
  <unicode hex="094A"/>
  <outline>
	<component base="aaMatra-deva"/>
	<component base="eShortMatra-deva" xOffset="240"/>
	<contour>
	  <point x="120" y="500" type="move" name="top"/>
	</contour>
	<contour>
	  <point x="120" y="0" type="move" name="bottom"/>
	</contour>
  </outline>
</glyph>
<glyph name="uni0956" format="1">
  <advance width="0"/>
  <unicode hex="0956"/>
  <outline>
	<contour>
	  <point x="-19" y="-86"/>
	  <point x="-66" y="-119"/>
	  <point x="-129" y="-119" type="curve" smooth="yes"/>
	  <point x="-187" y="-119"/>
	  <point x="-231" y="-85"/>
	  <point x="-242" y="-42" type="curve"/>
	  <point x="-316" y="-73" type="line"/>
	  <point x="-295" y="-124"/>
	  <point x="-224" y="-162"/>
	  <point x="-142" y="-162" type="curve" smooth="yes"/>
	  <point x="-60" y="-162"/>
	  <point x="2" y="-115"/>
	  <point x="26" y="-51" type="curve"/>
	  <point x="4" y="-42" type="line"/>
	</contour>
	<contour>
	  <point x="-136" y="0" type="move" name="_bottom"/>
	</contour>
  </outline>
</glyph>
<glyph name="rrVocalic-deva" format="1">
  <advance width="768"/>
  <unicode hex="0960"/>
  <outline>
	<contour>
	  <point x="-10" y="500" type="line"/>
	  <point x="-10" y="470" type="line"/>
	  <point x="348" y="470" type="line"/>
	  <point x="348" y="215" type="line"/>
	  <point x="263" y="170" type="line"/>
	  <point x="312" y="202"/>
	  <point x="328" y="251"/>
	  <point x="328" y="289" type="curve" smooth="yes"/>
	  <point x="328" y="356"/>
	  <point x="263" y="410"/>
	  <point x="183" y="410" type="curve" smooth="yes"/>
	  <point x="111" y="410"/>
	  <point x="49" y="377"/>
	  <point x="18" y="325" type="curve"/>
	  <point x="33" y="285" type="line"/>
	  <point x="60" y="332"/>
	  <point x="99" y="360"/>
	  <point x="138" y="360" type="curve" smooth="yes"/>
	  <point x="178" y="360"/>
	  <point x="222" y="325"/>
	  <point x="222" y="267" type="curve" smooth="yes"/>
	  <point x="222" y="205"/>
	  <point x="193" y="137"/>
	  <point x="31" y="41" type="curve"/>
	  <point x="48" y="10" type="line"/>
	  <point x="348" y="170" type="line"/>
	  <point x="348" y="0" type="line"/>
	  <point x="448" y="0" type="line"/>
	  <point x="448" y="223" type="line"/>
	  <point x="547" y="276" type="line"/>
	  <point x="573" y="235" type="line"/>
	  <point x="531" y="206"/>
	  <point x="503" y="160"/>
	  <point x="503" y="120" type="curve" smooth="yes"/>
	  <point x="503" y="54"/>
	  <point x="555" y="10"/>
	  <point x="621" y="10" type="curve" smooth="yes"/>
	  <point x="669" y="10"/>
	  <point x="715" y="27"/>
	  <point x="748" y="75" type="curve"/>
	  <point x="728" y="110" type="line"/>
	  <point x="711" y="84"/>
	  <point x="682" y="67"/>
	  <point x="653" y="67" type="curve" smooth="yes"/>
	  <point x="620" y="67"/>
	  <point x="590" y="84"/>
	  <point x="590" y="141" type="curve" smooth="yes"/>
	  <point x="590" y="186"/>
	  <point x="616" y="222"/>
	  <point x="659" y="247" type="curve"/>
	  <point x="618" y="314" type="line"/>
	  <point x="640" y="326"/>
	  <point x="653" y="343"/>
	  <point x="653" y="365" type="curve" smooth="yes"/>
	  <point x="653" y="390"/>
	  <point x="622" y="410"/>
	  <point x="580" y="410" type="curve" smooth="yes"/>
	  <point x="537" y="410"/>
	  <point x="505" y="395"/>
	  <point x="505" y="361" type="curve" smooth="yes"/>
	  <point x="505" y="347"/>
	  <point x="515" y="330"/>
	  <point x="527" y="311" type="curve"/>
	  <point x="448" y="269" type="line"/>
	  <point x="448" y="470" type="line"/>
	  <point x="768" y="470" type="line"/>
	  <point x="768" y="500" type="line"/>
	</contour>
	<contour>
	  <point x="398" y="500" type="move" name="top"/>
	</contour>
	<contour>
	  <point x="398" y="0" type="move" name="bottom"/>
	</contour>
  </outline>
</glyph>
<glyph name="lVocalicMatra-deva" format="1">
  <advance width="0"/>
  <unicode hex="0962"/>
  <outline>
	<contour>
	  <point x="81" y="-19"/>
	  <point x="40" y="13"/>
	  <point x="-22" y="13" type="curve"/>
	  <point x="-67" y="13"/>
	  <point x="-101" y="-6"/>
	  <point x="-120" y="-45" type="curve"/>
	  <point x="-132" y="-9"/>
	  <point x="-165" y="13"/>
	  <point x="-211" y="13" type="curve" smooth="yes"/>
	  <point x="-274" y="13"/>
	  <point x="-326" y="-34"/>
	  <point x="-326" y="-92" type="curve" smooth="yes"/>
	  <point x="-326" y="-159"/>
	  <point x="-272" y="-213"/>
	  <point x="-204" y="-213" type="curve"/>
	  <point x="-159" y="-185" type="line"/>
	  <point x="-203" y="-185"/>
	  <point x="-246" y="-137"/>
	  <point x="-246" y="-77" type="curve" smooth="yes"/>
	  <point x="-246" y="-28"/>
	  <point x="-223" y="-17"/>
	  <point x="-202" y="-17" type="curve" smooth="yes"/>
	  <point x="-175" y="-17"/>
	  <point x="-150" y="-48"/>
	  <point x="-150" y="-89" type="curve"/>
	  <point x="-91" y="-89" type="line"/>
	  <point x="-91" y="-48"/>
	  <point x="-70" y="-17"/>
	  <point x="-45" y="-17" type="curve" smooth="yes"/>
	  <point x="-27" y="-17"/>
	  <point x="-1" y="-33"/>
	  <point x="-1" y="-86" type="curve"/>
	  <point x="-1" y="-177"/>
	  <point x="-90" y="-189"/>
	  <point x="-90" y="-248" type="curve" smooth="yes"/>
	  <point x="-90" y="-301"/>
	  <point x="-51" y="-319"/>
	  <point x="-7" y="-319" type="curve" smooth="yes"/>
	  <point x="38" y="-319"/>
	  <point x="88" y="-299"/>
	  <point x="106" y="-278" type="curve"/>
	  <point x="79" y="-241" type="line"/>
	  <point x="66" y="-256"/>
	  <point x="43" y="-268"/>
	  <point x="23" y="-268" type="curve" smooth="yes"/>
	  <point x="4" y="-268"/>
	  <point x="-11" y="-258"/>
	  <point x="-11" y="-230" type="curve" smooth="yes"/>
	  <point x="-11" y="-170"/>
	  <point x="81" y="-155"/>
	  <point x="81" y="-74" type="curve"/>
	</contour>
  </outline>
</glyph>
<glyph name="llVocalicMatra-deva" format="1">
  <advance width="0"/>
  <unicode hex="0963"/>
  <outline>
	<contour>
	  <point x="37" y="-344"/>
	  <point x="87" y="-324"/>
	  <point x="105" y="-303" type="curve"/>
	  <point x="78" y="-266" type="line"/>
	  <point x="65" y="-281"/>
	  <point x="42" y="-293"/>
	  <point x="22" y="-293" type="curve" smooth="yes"/>
	  <point x="3" y="-293"/>
	  <point x="-12" y="-286"/>
	  <point x="-12" y="-267" type="curve"/>
	  <point x="-12" y="-244"/>
	  <point x="13" y="-226"/>
	  <point x="54" y="-219" type="curve"/>
	  <point x="44" y="-200" type="line"/>
	  <point x="3" y="-200"/>
	  <point x="-12" y="-193"/>
	  <point x="-12" y="-178" type="curve"/>
	  <point x="-12" y="-138"/>
	  <point x="81" y="-123"/>
	  <point x="81" y="-64" type="curve"/>
	  <point x="81" y="-15"/>
	  <point x="40" y="13"/>
	  <point x="-22" y="13" type="curve"/>
	  <point x="-67" y="13"/>
	  <point x="-101" y="-6"/>
	  <point x="-120" y="-45" type="curve"/>
	  <point x="-132" y="-9"/>
	  <point x="-165" y="13"/>
	  <point x="-211" y="13" type="curve" smooth="yes"/>
	  <point x="-274" y="13"/>
	  <point x="-326" y="-34"/>
	  <point x="-326" y="-92" type="curve" smooth="yes"/>
	  <point x="-326" y="-159"/>
	  <point x="-272" y="-213"/>
	  <point x="-204" y="-213" type="curve"/>
	  <point x="-159" y="-185" type="line"/>
	  <point x="-203" y="-185"/>
	  <point x="-246" y="-137"/>
	  <point x="-246" y="-77" type="curve" smooth="yes"/>
	  <point x="-246" y="-28"/>
	  <point x="-223" y="-17"/>
	  <point x="-202" y="-17" type="curve" smooth="yes"/>
	  <point x="-175" y="-17"/>
	  <point x="-150" y="-48"/>
	  <point x="-150" y="-89" type="curve"/>
	  <point x="-91" y="-89" type="line"/>
	  <point x="-91" y="-48"/>
	  <point x="-70" y="-17"/>
	  <point x="-45" y="-17" type="curve" smooth="yes"/>
	  <point x="-27" y="-17"/>
	  <point x="-1" y="-30"/>
	  <point x="-1" y="-76" type="curve"/>
	  <point x="-1" y="-135"/>
	  <point x="-81" y="-147"/>
	  <point x="-81" y="-183" type="curve"/>
	  <point x="-81" y="-200"/>
	  <point x="-67" y="-215"/>
	  <point x="-24" y="-215" type="curve"/>
	  <point x="-24" y="-218" type="line"/>
	  <point x="-64" y="-229"/>
	  <point x="-91" y="-254"/>
	  <point x="-91" y="-283" type="curve"/>
	  <point x="-91" y="-329"/>
	  <point x="-52" y="-344"/>
	  <point x="-8" y="-344" type="curve" smooth="yes"/>
	</contour>
  </outline>
</glyph>
<glyph name="dbldanda-deva" format="1">
  <advance width="540"/>
  <unicode hex="0965"/>
  <outline>
	<contour>
	  <point x="370" y="540" type="line"/>
	  <point x="370" y="-40" type="line"/>
	  <point x="470" y="-40" type="line"/>
	  <point x="470" y="540" type="line"/>
	</contour>
	<contour>
	  <point x="140" y="540" type="line"/>
	  <point x="140" y="-40" type="line"/>
	  <point x="240" y="-40" type="line"/>
	  <point x="240" y="540" type="line"/>
	</contour>
  </outline>
</glyph>
<glyph name="zero-deva" format="1">
  <advance width="550"/>
  <unicode hex="0966"/>
  <outline>
	<contour>
	  <point x="140" y="500"/>
	  <point x="61" y="368"/>
	  <point x="61" y="240" type="curve" smooth="yes"/>
	  <point x="61" y="118"/>
	  <point x="132" y="0"/>
	  <point x="275" y="0" type="curve" smooth="yes"/>
	  <point x="423" y="0"/>
	  <point x="499" y="133"/>
	  <point x="499" y="261" type="curve" smooth="yes"/>
	  <point x="499" y="382"/>
	  <point x="431" y="500"/>
	  <point x="295" y="500" type="curve" smooth="yes"/>
	</contour>
	<contour>
	  <point x="348" y="465"/>
	  <point x="399" y="327"/>
	  <point x="399" y="207" type="curve" smooth="yes"/>
	  <point x="399" y="116"/>
	  <point x="367" y="35"/>
	  <point x="300" y="35" type="curve" smooth="yes"/>
	  <point x="213" y="35"/>
	  <point x="161" y="173"/>
	  <point x="161" y="292" type="curve" smooth="yes"/>
	  <point x="161" y="385"/>
	  <point x="190" y="465"/>
	  <point x="255" y="465" type="curve" smooth="yes"/>
	</contour>
  </outline>
</glyph>
<glyph name="two-deva" format="1">
  <advance width="549"/>
  <unicode hex="0968"/>
  <outline>
	<contour>
	  <point x="199" y="504"/>
	  <point x="117" y="454"/>
	  <point x="117" y="385" type="curve" smooth="yes"/>
	  <point x="117" y="362"/>
	  <point x="131" y="333"/>
	  <point x="177" y="320" type="curve"/>
	  <point x="287" y="355" type="line"/>
	  <point x="248" y="355"/>
	  <point x="217" y="379"/>
	  <point x="217" y="410" type="curve" smooth="yes"/>
	  <point x="217" y="443"/>
	  <point x="246" y="469"/>
	  <point x="282" y="469" type="curve" smooth="yes"/>
	  <point x="334" y="469"/>
	  <point x="377" y="419"/>
	  <point x="377" y="360" type="curve" smooth="yes"/>
	  <point x="377" y="271"/>
	  <point x="307" y="198"/>
	  <point x="211" y="198" type="curve" smooth="yes"/>
	  <point x="158" y="198"/>
	  <point x="129" y="210"/>
	  <point x="112" y="210" type="curve"/>
	  <point x="60" y="155" type="line"/>
	  <point x="103" y="155"/>
	  <point x="137" y="138"/>
	  <point x="166" y="118" type="curve" smooth="yes"/>
	  <point x="295" y="31" type="line" smooth="yes"/>
	  <point x="347" y="-4"/>
	  <point x="370" y="-10"/>
	  <point x="402" y="-10" type="curve" smooth="yes"/>
	  <point x="441" y="-10"/>
	  <point x="481" y="22"/>
	  <point x="492" y="70" type="curve"/>
	  <point x="476" y="58"/>
	  <point x="429" y="30"/>
	  <point x="359" y="78" type="curve" smooth="yes"/>
	  <point x="232" y="164" type="line"/>
	  <point x="371" y="177"/>
	  <point x="477" y="253"/>
	  <point x="477" y="360" type="curve" smooth="yes"/>
	  <point x="477" y="441"/>
	  <point x="399" y="504"/>
	  <point x="302" y="504" type="curve" smooth="yes"/>
	</contour>
  </outline>
</glyph>
<glyph name="six-deva" format="1">
  <advance width="550"/>
  <unicode hex="096C"/>
  <outline>
	<contour>
	  <point x="182" y="505"/>
	  <point x="95" y="468"/>
	  <point x="95" y="390" type="curve" smooth="yes"/>
	  <point x="95" y="346"/>
	  <point x="134" y="294"/>
	  <point x="220" y="278" type="curve"/>
	  <point x="130" y="263"/>
	  <point x="65" y="201"/>
	  <point x="65" y="135" type="curve" smooth="yes"/>
	  <point x="65" y="52"/>
	  <point x="154" y="-15"/>
	  <point x="265" y="-15" type="curve" smooth="yes"/>
	  <point x="348" y="-15"/>
	  <point x="424" y="19"/>
	  <point x="477" y="83" type="curve"/>
	  <point x="452" y="110" type="line"/>
	  <point x="407" y="60"/>
	  <point x="344" y="35"/>
	  <point x="285" y="35" type="curve" smooth="yes"/>
	  <point x="210" y="35"/>
	  <point x="165" y="82"/>
	  <point x="165" y="140" type="curve" smooth="yes"/>
	  <point x="165" y="206"/>
	  <point x="231" y="260"/>
	  <point x="355" y="260" type="curve"/>
	  <point x="355" y="295" type="line"/>
	  <point x="266" y="295"/>
	  <point x="195" y="338"/>
	  <point x="195" y="400" type="curve" smooth="yes"/>
	  <point x="195" y="446"/>
	  <point x="228" y="475"/>
	  <point x="270" y="475" type="curve" smooth="yes"/>
	  <point x="310" y="475"/>
	  <point x="346" y="442"/>
	  <point x="355" y="395" type="curve"/>
	  <point x="407" y="395"/>
	  <point x="450" y="412"/>
	  <point x="450" y="435" type="curve" smooth="yes"/>
	  <point x="450" y="474"/>
	  <point x="378" y="505"/>
	  <point x="290" y="505" type="curve" smooth="yes"/>
	</contour>
  </outline>
</glyph>
<glyph name="seven-deva" format="1">
  <advance width="550"/>
  <unicode hex="096D"/>
  <outline>
	<contour>
	  <point x="66" y="453" type="line"/>
	  <point x="55" y="411"/>
	  <point x="49" y="377"/>
	  <point x="49" y="352" type="curve" smooth="yes"/>
	  <point x="49" y="149"/>
	  <point x="168" y="-15"/>
	  <point x="313" y="-15" type="curve" smooth="yes"/>
	  <point x="417" y="-15"/>
	  <point x="501" y="86"/>
	  <point x="501" y="210" type="curve" smooth="yes"/>
	  <point x="501" y="329"/>
	  <point x="423" y="425"/>
	  <point x="329" y="425" type="curve" smooth="yes"/>
	  <point x="261" y="425"/>
	  <point x="206" y="369"/>
	  <point x="206" y="301" type="curve" smooth="yes"/>
	  <point x="206" y="232"/>
	  <point x="257" y="175"/>
	  <point x="320" y="175" type="curve" smooth="yes"/>
	  <point x="349" y="175"/>
	  <point x="376" y="194"/>
	  <point x="388" y="227" type="curve"/>
	  <point x="396" y="202"/>
	  <point x="401" y="176"/>
	  <point x="401" y="148" type="curve" smooth="yes"/>
	  <point x="401" y="77"/>
	  <point x="366" y="20"/>
	  <point x="323" y="20" type="curve" smooth="yes"/>
	  <point x="233" y="20"/>
	  <point x="149" y="170"/>
	  <point x="149" y="355" type="curve" smooth="yes"/>
	  <point x="149" y="394"/>
	  <point x="156" y="440"/>
	  <point x="171" y="495" type="curve"/>
	</contour>
	<contour>
	  <point x="352" y="390"/>
	  <point x="370" y="332"/>
	  <point x="370" y="274" type="curve" smooth="yes"/>
	  <point x="370" y="250"/>
	  <point x="359" y="227"/>
	  <point x="346" y="227" type="curve" smooth="yes"/>
	  <point x="323" y="227"/>
	  <point x="306" y="267"/>
	  <point x="306" y="316" type="curve" smooth="yes"/>
	  <point x="306" y="349"/>
	  <point x="313" y="390"/>
	  <point x="329" y="390" type="curve" smooth="yes"/>
	</contour>
  </outline>
</glyph>
<glyph name="eight-deva" format="1">
  <advance width="550"/>
  <unicode hex="096E"/>
  <outline>
	<contour>
	  <point x="199" y="385"/>
	  <point x="85" y="252"/>
	  <point x="85" y="155" type="curve" smooth="yes"/>
	  <point x="85" y="35"/>
	  <point x="181" y="-15"/>
	  <point x="283" y="-15" type="curve" smooth="yes"/>
	  <point x="352" y="-15"/>
	  <point x="421" y="20"/>
	  <point x="469" y="81" type="curve"/>
	  <point x="391" y="118" type="line"/>
	  <point x="367" y="52"/>
	  <point x="318" y="21"/>
	  <point x="276" y="21" type="curve" smooth="yes"/>
	  <point x="229" y="21"/>
	  <point x="185" y="60"/>
	  <point x="185" y="135" type="curve" smooth="yes"/>
	  <point x="185" y="228"/>
	  <point x="280" y="348"/>
	  <point x="434" y="455" type="curve"/>
	  <point x="390" y="507" type="line"/>
	</contour>
  </outline>
</glyph>
<glyph name="highspacingdot-deva" format="1">
  <advance width="140"/>
  <unicode hex="0971"/>
  <outline>
	<contour>
	  <point x="-154" y="742"/>
	  <point x="-185" y="712"/>
	  <point x="-185" y="675" type="curve" smooth="yes"/>
	  <point x="-185" y="635"/>
	  <point x="-154" y="602"/>
	  <point x="-115" y="602" type="curve" smooth="yes"/>
	  <point x="-76" y="602"/>
	  <point x="-45" y="635"/>
	  <point x="-45" y="675" type="curve" smooth="yes"/>
	  <point x="-45" y="712"/>
	  <point x="-76" y="742"/>
	  <point x="-115" y="742" type="curve" smooth="yes"/>
	</contour>
  </outline>
</glyph>
<glyph name="zha-deva" format="1">
  <advance width="673"/>
  <unicode hex="0979"/>
  <outline>
	<component base="ja-deva"/>
	<component base="nukta-deva" xOffset="243" yOffset="-55"/>
	<component base="nukta-deva" xOffset="443" yOffset="-55"/>
	<component base="nukta-deva" xOffset="343" yOffset="-155"/>
	<contour>
	  <point x="233" y="-55" type="move" name="nukta"/>
	</contour>
	<contour>
	  <point x="553" y="0" type="move" name="bottom"/>
	</contour>
	<contour>
	  <point x="553" y="500" type="move" name="top"/>
	</contour>
  </outline>
</glyph>
<glyph name="jjya-deva" format="1">
  <advance width="524"/>
  <unicode hex="097A"/>
  <outline>
	<contour>
	  <point x="218" y="324" type="line"/>
	  <point x="382" y="183" type="line"/>
	  <point x="403" y="225" type="line"/>
	  <point x="239" y="366" type="line"/>
	</contour>
	<component base="ya-deva"/>
	<contour>
	  <point x="114" y="-55" type="move" name="nukta"/>
	</contour>
	<contour>
	  <point x="404" y="0" type="move" name="bottom"/>
	</contour>
	<contour>
	  <point x="404" y="500" type="move" name="top"/>
	</contour>
  </outline>
</glyph>
<glyph name="jja-deva" format="1">
  <advance width="673"/>
  <unicode hex="097C"/>
  <outline>
	<contour>
	  <point x="72" y="-35" type="line"/>
	  <point x="72" y="-75" type="line"/>
	  <point x="382" y="-75" type="line"/>
	  <point x="382" y="-35" type="line"/>
	</contour>
	<component base="ja-deva"/>
	<contour>
	  <point x="430" y="500" type="move" name="top"/>
	</contour>
  </outline>
</glyph>
<glyph name="glottalstop-deva" format="1">
  <advance width="436"/>
  <unicode hex="097D"/>
  <outline>
	<contour>
	  <point x="124" y="500"/>
	  <point x="20" y="451"/>
	  <point x="20" y="375" type="curve"/>
	  <point x="20" y="326"/>
	  <point x="65" y="315"/>
	  <point x="120" y="315" type="curve"/>
	  <point x="120" y="419"/>
	  <point x="162" y="463"/>
	  <point x="219" y="463" type="curve" smooth="yes"/>
	  <point x="272" y="463"/>
	  <point x="300" y="419"/>
	  <point x="300" y="363" type="curve" smooth="yes"/>
	  <point x="300" y="247"/>
	  <point x="150" y="220"/>
	  <point x="150" y="75" type="curve" smooth="yes"/>
	  <point x="150" y="33"/>
	  <point x="178" y="0"/>
	  <point x="215" y="0" type="curve"/>
	  <point x="215" y="195"/>
	  <point x="410" y="173"/>
	  <point x="410" y="363" type="curve" smooth="yes"/>
	  <point x="410" y="440"/>
	  <point x="322" y="500"/>
	  <point x="210" y="500" type="curve" smooth="yes"/>
	</contour>
  </outline>
</glyph>
<glyph name="ddda-deva" format="1">
  <advance width="477"/>
  <unicode hex="097E"/>
  <outline>
	<contour>
	  <point x="82" y="-35" type="line"/>
	  <point x="82" y="-75" type="line"/>
	  <point x="392" y="-75" type="line"/>
	  <point x="392" y="-35" type="line"/>
	</contour>
	<component base="dda-deva"/>
  </outline>
</glyph>
<glyph name="emdash" format="1">
  <advance width="627"/>
  <unicode hex="2014"/>
  <outline>
	<contour>
	  <point x="43" y="190" type="line"/>
	  <point x="584" y="190" type="line"/>
	  <point x="584" y="257" type="line"/>
	  <point x="43" y="257" type="line"/>
	</contour>
  </outline>
</glyph>
<glyph name="guilsinglleft" format="1">
  <advance width="204"/>
  <unicode hex="2039"/>
  <outline>
	<contour>
	  <point x="181" y="330" type="line"/>
	  <point x="150" y="361" type="line"/>
	  <point x="22" y="238" type="line"/>
	  <point x="22" y="203" type="line"/>
	  <point x="150" y="80" type="line"/>
	  <point x="181" y="111" type="line"/>
	  <point x="104" y="221" type="line"/>
	</contour>
  </outline>
</glyph>
<glyph name="zerosuperior" format="1">
  <advance width="314"/>
  <unicode hex="2070"/>
  <outline>
	<contour>
	  <point x="254" y="274"/>
	  <point x="277" y="337"/>
	  <point x="277" y="421" type="curve" smooth="yes"/>
	  <point x="277" y="503"/>
	  <point x="254" y="567"/>
	  <point x="157" y="567" type="curve" smooth="yes"/>
	  <point x="60" y="567"/>
	  <point x="37" y="503"/>
	  <point x="37" y="421" type="curve" smooth="yes"/>
	  <point x="37" y="337"/>
	  <point x="60" y="274"/>
	  <point x="157" y="274" type="curve" smooth="yes"/>
	</contour>
	<contour>
	  <point x="119" y="304"/>
	  <point x="111" y="360"/>
	  <point x="111" y="421" type="curve" smooth="yes"/>
	  <point x="111" y="501"/>
	  <point x="119" y="538"/>
	  <point x="156" y="538" type="curve" smooth="yes"/>
	  <point x="193" y="538"/>
	  <point x="202" y="501"/>
	  <point x="202" y="421" type="curve" smooth="yes"/>
	  <point x="202" y="360"/>
	  <point x="193" y="304"/>
	  <point x="156" y="304" type="curve" smooth="yes"/>
	</contour>
  </outline>
</glyph>
<glyph name="foursuperior" format="1">
  <advance width="314"/>
  <unicode hex="2074"/>
  <outline>
	<contour>
	  <point x="135" y="561" type="line"/>
	  <point x="26" y="376" type="line"/>
	  <point x="26" y="329" type="line"/>
	  <point x="273" y="329" type="line"/>
	  <point x="273" y="385" type="line"/>
	  <point x="85" y="385" type="line"/>
	  <point x="187" y="561" type="line"/>
	</contour>
	<contour>
	  <point x="245" y="280" type="line"/>
	  <point x="245" y="561" type="line"/>
	  <point x="172" y="561" type="line"/>
	  <point x="172" y="280" type="line"/>
	</contour>
  </outline>
</glyph>
<glyph name="sevensuperior" format="1">
  <advance width="314"/>
  <unicode hex="2077"/>
  <outline>
	<contour>
	  <point x="137" y="280" type="line"/>
	  <point x="263" y="515" type="line"/>
	  <point x="263" y="561" type="line"/>
	  <point x="43" y="561" type="line"/>
	  <point x="43" y="504" type="line"/>
	  <point x="205" y="504" type="line"/>
	  <point x="72" y="280" type="line"/>
	</contour>
  </outline>
</glyph>
<glyph name="eightsuperior" format="1">
  <advance width="314"/>
  <unicode hex="2078"/>
  <outline>
	<contour>
	  <point x="146" y="430" type="line"/>
	  <point x="78" y="421"/>
	  <point x="39" y="400"/>
	  <point x="39" y="353" type="curve" smooth="yes"/>
	  <point x="39" y="309"/>
	  <point x="83" y="274"/>
	  <point x="157" y="274" type="curve" smooth="yes"/>
	  <point x="230" y="274"/>
	  <point x="275" y="309"/>
	  <point x="275" y="353" type="curve" smooth="yes"/>
	  <point x="275" y="401"/>
	  <point x="234" y="429"/>
	  <point x="169" y="436" type="curve" smooth="yes"/>
	  <point x="159" y="437" type="line" smooth="yes"/>
	  <point x="131" y="440"/>
	  <point x="117" y="454"/>
	  <point x="117" y="488" type="curve" smooth="yes"/>
	  <point x="117" y="515"/>
	  <point x="128" y="538"/>
	  <point x="157" y="538" type="curve" smooth="yes"/>
	  <point x="185" y="538"/>
	  <point x="196" y="515"/>
	  <point x="196" y="488" type="curve" smooth="yes"/>
	  <point x="196" y="461"/>
	  <point x="186" y="437"/>
	  <point x="159" y="432" type="curve"/>
	  <point x="162" y="410" type="line"/>
	  <point x="231" y="419"/>
	  <point x="271" y="440"/>
	  <point x="271" y="488" type="curve" smooth="yes"/>
	  <point x="271" y="531"/>
	  <point x="234" y="566"/>
	  <point x="157" y="566" type="curve" smooth="yes"/>
	  <point x="79" y="566"/>
	  <point x="43" y="531"/>
	  <point x="43" y="488" type="curve" smooth="yes"/>
	  <point x="43" y="441"/>
	  <point x="80" y="419"/>
	  <point x="150" y="410" type="curve" smooth="yes"/>
	  <point x="158" y="408" type="line" smooth="yes"/>
	  <point x="182" y="406"/>
	  <point x="200" y="388"/>
	  <point x="200" y="353" type="curve" smooth="yes"/>
	  <point x="200" y="319"/>
	  <point x="186" y="304"/>
	  <point x="157" y="304" type="curve" smooth="yes"/>
	  <point x="128" y="304"/>
	  <point x="114" y="325"/>
	  <point x="114" y="353" type="curve" smooth="yes"/>
	  <point x="114" y="384"/>
	  <point x="124" y="407"/>
	  <point x="150" y="411" type="curve"/>
	</contour>
  </outline>
</glyph>
<glyph name="ninesuperior" format="1">
  <advance width="314"/>
  <unicode hex="2079"/>
  <outline>
	<contour>
	  <point x="44" y="359" type="line"/>
	  <point x="47" y="300"/>
	  <point x="85" y="274"/>
	  <point x="152" y="274" type="curve" smooth="yes"/>
	  <point x="245" y="274"/>
	  <point x="275" y="325"/>
	  <point x="275" y="439" type="curve" smooth="yes"/>
	  <point x="275" y="512"/>
	  <point x="243" y="566"/>
	  <point x="159" y="566" type="curve" smooth="yes"/>
	  <point x="81" y="566"/>
	  <point x="38" y="526"/>
	  <point x="38" y="471" type="curve" smooth="yes"/>
	  <point x="38" y="423"/>
	  <point x="64" y="389"/>
	  <point x="141" y="389" type="curve" smooth="yes"/>
	  <point x="167" y="389"/>
	  <point x="190" y="391"/>
	  <point x="224" y="411" type="curve"/>
	  <point x="224" y="438" type="line"/>
	  <point x="202" y="424"/>
	  <point x="183" y="418"/>
	  <point x="163" y="418" type="curve" smooth="yes"/>
	  <point x="124" y="418"/>
	  <point x="113" y="449"/>
	  <point x="113" y="475" type="curve" smooth="yes"/>
	  <point x="113" y="511"/>
	  <point x="127" y="538"/>
	  <point x="159" y="538" type="curve" smooth="yes"/>
	  <point x="192" y="538"/>
	  <point x="200" y="491"/>
	  <point x="200" y="420" type="curve" smooth="yes"/>
	  <point x="200" y="342"/>
	  <point x="194" y="304"/>
	  <point x="152" y="304" type="curve" smooth="yes"/>
	  <point x="120" y="304"/>
	  <point x="108" y="327"/>
	  <point x="108" y="367" type="curve"/>
	</contour>
  </outline>
</glyph>
<glyph name="uni2113" format="1">
  <advance width="253"/>
  <unicode hex="2113"/>
  <outline>
	<contour>
	  <point x="247" y="59" type="line"/>
	  <point x="231" y="50"/>
	  <point x="215" y="45"/>
	  <point x="198" y="45" type="curve" smooth="yes"/>
	  <point x="179" y="45"/>
	  <point x="168" y="54"/>
	  <point x="168" y="90" type="curve" smooth="yes"/>
	  <point x="168" y="511" type="line"/>
	  <point x="69" y="511" type="line"/>
	  <point x="69" y="105" type="line" smooth="yes"/>
	  <point x="69" y="56"/>
	  <point x="71" y="-10"/>
	  <point x="171" y="-10" type="curve" smooth="yes"/>
	  <point x="192" y="-10"/>
	  <point x="226" y="-4"/>
	  <point x="260" y="14" type="curve"/>
	</contour>
  </outline>
</glyph>
<glyph name="partialdiff" format="1">
  <advance width="418"/>
  <unicode hex="2202"/>
  <outline>
	<contour>
	  <point x="394" y="409"/>
	  <point x="325" y="493"/>
	  <point x="286" y="535" type="curve"/>
	  <point x="230" y="479" type="line"/>
	  <point x="265" y="440"/>
	  <point x="295" y="394"/>
	  <point x="307" y="325" type="curve"/>
	  <point x="295" y="343"/>
	  <point x="258" y="354"/>
	  <point x="224" y="354" type="curve" smooth="yes"/>
	  <point x="104" y="354"/>
	  <point x="23" y="269"/>
	  <point x="23" y="140" type="curve" smooth="yes"/>
	  <point x="23" y="50"/>
	  <point x="84" y="-10"/>
	  <point x="176" y="-10" type="curve" smooth="yes"/>
	  <point x="306" y="-10"/>
	  <point x="394" y="98"/>
	  <point x="394" y="259" type="curve" smooth="yes"/>
	</contour>
	<contour>
	  <point x="150" y="63"/>
	  <point x="123" y="94"/>
	  <point x="123" y="140" type="curve" smooth="yes"/>
	  <point x="123" y="225"/>
	  <point x="163" y="282"/>
	  <point x="224" y="282" type="curve" smooth="yes"/>
	  <point x="265" y="282"/>
	  <point x="290" y="251"/>
	  <point x="290" y="206" type="curve" smooth="yes"/>
	  <point x="290" y="120"/>
	  <point x="249" y="63"/>
	  <point x="189" y="63" type="curve" smooth="yes"/>
	</contour>
  </outline>
</glyph>
<glyph name="product" format="1">
  <advance width="533"/>
  <unicode hex="220F"/>
  <outline>
	<contour>
	  <point x="352" y="511" type="line"/>
	  <point x="352" y="-120" type="line"/>
	  <point x="451" y="-120" type="line"/>
	  <point x="451" y="511" type="line"/>
	</contour>
	<contour>
	  <point x="81" y="511" type="line"/>
	  <point x="81" y="-120" type="line"/>
	  <point x="180" y="-120" type="line"/>
	  <point x="180" y="511" type="line"/>
	</contour>
	<contour>
	  <point x="36" y="446" type="line"/>
	  <point x="497" y="446" type="line"/>
	  <point x="497" y="511" type="line"/>
	  <point x="36" y="511" type="line"/>
	</contour>
  </outline>
</glyph>
<glyph name="summation" format="1">
  <advance width="417"/>
  <unicode hex="2211"/>
  <outline>
	<contour>
	  <point x="26" y="446" type="line"/>
	  <point x="398" y="446" type="line"/>
	  <point x="398" y="511" type="line"/>
	  <point x="26" y="511" type="line"/>
	</contour>
	<contour>
	  <point x="26" y="-120" type="line"/>
	  <point x="398" y="-120" type="line"/>
	  <point x="398" y="-55" type="line"/>
	  <point x="26" y="-55" type="line"/>
	</contour>
	<contour>
	  <point x="133" y="-55" type="line"/>
	  <point x="297" y="190" type="line"/>
	  <point x="190" y="190" type="line"/>
	  <point x="26" y="-55" type="line"/>
	</contour>
	<contour>
	  <point x="26" y="446" type="line"/>
	  <point x="190" y="190" type="line"/>
	  <point x="297" y="190" type="line"/>
	  <point x="129" y="446" type="line"/>
	</contour>
  </outline>
</glyph>
<glyph name="integral" format="1">
  <advance width="332"/>
  <unicode hex="222B"/>
  <outline>
	<contour>
	  <point x="119" y="-23" type="line" smooth="yes"/>
	  <point x="119" y="-74"/>
	  <point x="102" y="-104"/>
	  <point x="56" y="-104" type="curve" smooth="yes"/>
	  <point x="32" y="-104"/>
	  <point x="12" y="-98"/>
	  <point x="-4" y="-88" type="curve"/>
	  <point x="-32" y="-156" type="line"/>
	  <point x="-7" y="-172"/>
	  <point x="27" y="-183"/>
	  <point x="69" y="-183" type="curve" smooth="yes"/>
	  <point x="175" y="-183"/>
	  <point x="220" y="-130"/>
	  <point x="220" y="-23" type="curve" smooth="yes"/>
	  <point x="220" y="360" type="line" smooth="yes"/>
	  <point x="220" y="412"/>
	  <point x="238" y="442"/>
	  <point x="282" y="442" type="curve" smooth="yes"/>
	  <point x="308" y="442"/>
	  <point x="327" y="436"/>
	  <point x="342" y="426" type="curve"/>
	  <point x="370" y="494" type="line"/>
	  <point x="345" y="510"/>
	  <point x="311" y="521"/>
	  <point x="270" y="521" type="curve" smooth="yes"/>
	  <point x="164" y="521"/>
	  <point x="119" y="468"/>
	  <point x="119" y="360" type="curve" smooth="yes"/>
	</contour>
  </outline>
</glyph>
<glyph name="approxequal" format="1">
  <advance width="406"/>
  <unicode hex="2248"/>
  <outline>
	<contour>
	  <point x="60" y="260" type="line"/>
	  <point x="79" y="248"/>
	  <point x="104" y="244"/>
	  <point x="123" y="244" type="curve" smooth="yes"/>
	  <point x="176" y="244"/>
	  <point x="230" y="274"/>
	  <point x="283" y="274" type="curve" smooth="yes"/>
	  <point x="302" y="274"/>
	  <point x="328" y="270"/>
	  <point x="347" y="260" type="curve"/>
	  <point x="347" y="327" type="line"/>
	  <point x="328" y="336"/>
	  <point x="302" y="340"/>
	  <point x="283" y="340" type="curve" smooth="yes"/>
	  <point x="230" y="340"/>
	  <point x="176" y="310"/>
	  <point x="123" y="310" type="curve" smooth="yes"/>
	  <point x="104" y="310"/>
	  <point x="79" y="313"/>
	  <point x="60" y="327" type="curve"/>
	</contour>
	<contour>
	  <point x="60" y="120" type="line"/>
	  <point x="79" y="108"/>
	  <point x="104" y="104"/>
	  <point x="123" y="104" type="curve" smooth="yes"/>
	  <point x="176" y="104"/>
	  <point x="230" y="134"/>
	  <point x="283" y="134" type="curve" smooth="yes"/>
	  <point x="302" y="134"/>
	  <point x="328" y="130"/>
	  <point x="347" y="120" type="curve"/>
	  <point x="347" y="187" type="line"/>
	  <point x="328" y="196"/>
	  <point x="302" y="200"/>
	  <point x="283" y="200" type="curve" smooth="yes"/>
	  <point x="230" y="200"/>
	  <point x="176" y="170"/>
	  <point x="123" y="170" type="curve" smooth="yes"/>
	  <point x="104" y="170"/>
	  <point x="79" y="173"/>
	  <point x="60" y="187" type="curve"/>
	</contour>
  </outline>
</glyph>
<glyph name="apple" format="1">
  <advance width="634"/>
  <unicode hex="F8FF"/>
  <outline>
	<contour>
	  <point x="385" y="-62"/>
	  <point x="388" y="-62"/>
	  <point x="390" y="-62" type="curve" smooth="yes"/>
	  <point x="396" y="-62"/>
	  <point x="401" y="-62"/>
	  <point x="406" y="-62" type="curve" smooth="yes"/>
	  <point x="425" y="-62"/>
	  <point x="426" y="-49"/>
	  <point x="438" y="-42" type="curve" smooth="yes"/>
	  <point x="448" y="-36"/>
	  <point x="463" y="-36"/>
	  <point x="472" y="-29" type="curve" smooth="yes"/>
	  <point x="481" y="-23"/>
	  <point x="485" y="-8"/>
	  <point x="493" y="1" type="curve" smooth="yes"/>
	  <point x="500" y="8"/>
	  <point x="511" y="8"/>
	  <point x="518" y="16" type="curve" smooth="yes"/>
	  <point x="525" y="25"/>
	  <point x="525" y="42"/>
	  <point x="530" y="52" type="curve" smooth="yes"/>
	  <point x="537" y="64"/>
	  <point x="554" y="64"/>
	  <point x="554" y="84" type="curve" smooth="yes"/>
	  <point x="554" y="91"/>
	  <point x="553" y="99"/>
	  <point x="553" y="106" type="curve" smooth="yes"/>
	  <point x="553" y="124"/>
	  <point x="568" y="126"/>
	  <point x="570" y="140" type="curve"/>
	  <point x="570" y="150"/>
	  <point x="562" y="160"/>
	  <point x="562" y="171" type="curve" smooth="yes"/>
	  <point x="562" y="180"/>
	  <point x="570" y="188"/>
	  <point x="570" y="198" type="curve" smooth="yes"/>
	  <point x="570" y="214"/>
	  <point x="553" y="223"/>
	  <point x="553" y="241" type="curve" smooth="yes"/>
	  <point x="553" y="246"/>
	  <point x="554" y="252"/>
	  <point x="554" y="258" type="curve" smooth="yes"/>
	  <point x="554" y="278"/>
	  <point x="537" y="280"/>
	  <point x="529" y="293" type="curve" smooth="yes"/>
	  <point x="525" y="300"/>
	  <point x="528" y="315"/>
	  <point x="524" y="322" type="curve" smooth="yes"/>
	  <point x="516" y="335"/>
	  <point x="498" y="338"/>
	  <point x="488" y="347" type="curve" smooth="yes"/>
	  <point x="480" y="356"/>
	  <point x="481" y="368"/>
	  <point x="472" y="375" type="curve" smooth="yes"/>
	  <point x="462" y="382"/>
	  <point x="451" y="379"/>
	  <point x="441" y="385" type="curve" smooth="yes"/>
	  <point x="427" y="392"/>
	  <point x="426" y="410"/>
	  <point x="407" y="410" type="curve" smooth="yes"/>
	  <point x="400" y="410"/>
	  <point x="393" y="408"/>
	  <point x="387" y="408" type="curve" smooth="yes"/>
	  <point x="371" y="408"/>
	  <point x="366" y="426"/>
	  <point x="348" y="426" type="curve" smooth="yes"/>
	  <point x="338" y="426"/>
	  <point x="326" y="417"/>
	  <point x="316" y="417" type="curve" smooth="yes"/>
	  <point x="307" y="417"/>
	  <point x="294" y="426"/>
	  <point x="285" y="426" type="curve" smooth="yes"/>
	  <point x="270" y="426"/>
	  <point x="264" y="410"/>
	  <point x="247" y="410" type="curve" smooth="yes"/>
	  <point x="240" y="410"/>
	  <point x="234" y="411"/>
	  <point x="228" y="411" type="curve" smooth="yes"/>
	  <point x="211" y="410"/>
	  <point x="206" y="391"/>
	  <point x="194" y="384" type="curve" smooth="yes"/>
	  <point x="183" y="379"/>
	  <point x="168" y="380"/>
	  <point x="159" y="372" type="curve" smooth="yes"/>
	  <point x="151" y="365"/>
	  <point x="148" y="351"/>
	  <point x="141" y="344" type="curve" smooth="yes"/>
	  <point x="133" y="336"/>
	  <point x="119" y="336"/>
	  <point x="113" y="327" type="curve" smooth="yes"/>
	  <point x="108" y="319"/>
	  <point x="110" y="305"/>
	  <point x="105" y="297" type="curve" smooth="yes"/>
	  <point x="98" y="285"/>
	  <point x="81" y="281"/>
	  <point x="81" y="263" type="curve" smooth="yes"/>
	  <point x="81" y="258"/>
	  <point x="82" y="251"/>
	  <point x="82" y="246" type="curve" smooth="yes"/>
	  <point x="82" y="232"/>
	  <point x="64" y="218"/>
	  <point x="64" y="203" type="curve" smooth="yes"/>
	  <point x="64" y="193"/>
	  <point x="72" y="186"/>
	  <point x="72" y="174" type="curve" smooth="yes"/>
	  <point x="72" y="163"/>
	  <point x="64" y="153"/>
	  <point x="64" y="143" type="curve" smooth="yes"/>
	  <point x="64" y="128"/>
	  <point x="82" y="118"/>
	  <point x="82" y="104" type="curve" smooth="yes"/>
	  <point x="82" y="99"/>
	  <point x="79" y="93"/>
	  <point x="79" y="87" type="curve" smooth="yes"/>
	  <point x="79" y="69"/>
	  <point x="98" y="61"/>
	  <point x="103" y="53" type="curve" smooth="yes"/>
	  <point x="111" y="40"/>
	  <point x="106" y="32"/>
	  <point x="114" y="20" type="curve" smooth="yes"/>
	  <point x="121" y="8"/>
	  <point x="132" y="11"/>
	  <point x="141" y="3" type="curve" smooth="yes"/>
	  <point x="150" y="-5"/>
	  <point x="149" y="-22"/>
	  <point x="162" y="-29" type="curve" smooth="yes"/>
	  <point x="173" y="-36"/>
	  <point x="178" y="-30"/>
	  <point x="194" y="-39" type="curve" smooth="yes"/>
	  <point x="203" y="-43"/>
	  <point x="212" y="-64"/>
	  <point x="230" y="-64" type="curve" smooth="yes"/>
	  <point x="235" y="-64"/>
	  <point x="241" y="-62"/>
	  <point x="247" y="-62" type="curve" smooth="yes"/>
	  <point x="264" y="-62"/>
	  <point x="271" y="-80"/>
	  <point x="285" y="-80" type="curve" smooth="yes"/>
	  <point x="296" y="-80"/>
	  <point x="306" y="-71"/>
	  <point x="317" y="-71" type="curve" smooth="yes"/>
	  <point x="328" y="-71"/>
	  <point x="339" y="-78"/>
	  <point x="350" y="-78" type="curve" smooth="yes"/>
	  <point x="362" y="-78"/>
	  <point x="371" y="-66"/>
	  <point x="383" y="-62" type="curve" smooth="yes"/>
	</contour>
	<contour>
	  <point x="356" y="0"/>
	  <point x="349" y="-9"/>
	  <point x="341" y="-9" type="curve" smooth="yes"/>
	  <point x="333" y="-9"/>
	  <point x="325" y="-4"/>
	  <point x="317" y="-4" type="curve" smooth="yes"/>
	  <point x="309" y="-4"/>
	  <point x="301" y="-11"/>
	  <point x="292" y="-11" type="curve"/>
	  <point x="282" y="-9"/>
	  <point x="278" y="2"/>
	  <point x="264" y="2" type="curve" smooth="yes"/>
	  <point x="261" y="2"/>
	  <point x="257" y="1"/>
	  <point x="254" y="1" type="curve" smooth="yes"/>
	  <point x="240" y="1"/>
	  <point x="235" y="16"/>
	  <point x="228" y="20" type="curve" smooth="yes"/>
	  <point x="216" y="26"/>
	  <point x="212" y="20"/>
	  <point x="205" y="26" type="curve" smooth="yes"/>
	  <point x="196" y="31"/>
	  <point x="196" y="44"/>
	  <point x="189" y="50" type="curve" smooth="yes"/>
	  <point x="183" y="55"/>
	  <point x="175" y="54"/>
	  <point x="170" y="62" type="curve" smooth="yes"/>
	  <point x="164" y="71"/>
	  <point x="168" y="77"/>
	  <point x="162" y="86" type="curve" smooth="yes"/>
	  <point x="159" y="92"/>
	  <point x="145" y="97"/>
	  <point x="145" y="111" type="curve" smooth="yes"/>
	  <point x="145" y="114"/>
	  <point x="146" y="118"/>
	  <point x="146" y="122" type="curve" smooth="yes"/>
	  <point x="146" y="132"/>
	  <point x="134" y="140"/>
	  <point x="134" y="151" type="curve" smooth="yes"/>
	  <point x="134" y="158"/>
	  <point x="140" y="166"/>
	  <point x="140" y="174" type="curve" smooth="yes"/>
	  <point x="140" y="182"/>
	  <point x="134" y="187"/>
	  <point x="134" y="195" type="curve" smooth="yes"/>
	  <point x="134" y="206"/>
	  <point x="146" y="216"/>
	  <point x="146" y="227" type="curve" smooth="yes"/>
	  <point x="146" y="230"/>
	  <point x="145" y="234"/>
	  <point x="145" y="238" type="curve" smooth="yes"/>
	  <point x="145" y="251"/>
	  <point x="159" y="254"/>
	  <point x="163" y="263" type="curve" smooth="yes"/>
	  <point x="167" y="269"/>
	  <point x="166" y="279"/>
	  <point x="169" y="285" type="curve" smooth="yes"/>
	  <point x="174" y="291"/>
	  <point x="184" y="291"/>
	  <point x="189" y="297" type="curve" smooth="yes"/>
	  <point x="195" y="302"/>
	  <point x="196" y="313"/>
	  <point x="203" y="318" type="curve" smooth="yes"/>
	  <point x="209" y="323"/>
	  <point x="220" y="322"/>
	  <point x="228" y="326" type="curve" smooth="yes"/>
	  <point x="237" y="330"/>
	  <point x="240" y="345"/>
	  <point x="253" y="345" type="curve" smooth="yes"/>
	  <point x="257" y="345"/>
	  <point x="261" y="344"/>
	  <point x="265" y="344" type="curve" smooth="yes"/>
	  <point x="278" y="344"/>
	  <point x="283" y="356"/>
	  <point x="294" y="356" type="curve" smooth="yes"/>
	  <point x="301" y="356"/>
	  <point x="310" y="350"/>
	  <point x="317" y="350" type="curve" smooth="yes"/>
	  <point x="324" y="350"/>
	  <point x="332" y="356"/>
	  <point x="340" y="356" type="curve" smooth="yes"/>
	  <point x="353" y="356"/>
	  <point x="355" y="344"/>
	  <point x="369" y="344" type="curve" smooth="yes"/>
	  <point x="373" y="344"/>
	  <point x="378" y="345"/>
	  <point x="383" y="345" type="curve" smooth="yes"/>
	  <point x="397" y="345"/>
	  <point x="397" y="332"/>
	  <point x="406" y="327" type="curve" smooth="yes"/>
	  <point x="415" y="322"/>
	  <point x="422" y="325"/>
	  <point x="429" y="319" type="curve" smooth="yes"/>
	  <point x="436" y="314"/>
	  <point x="435" y="305"/>
	  <point x="441" y="300" type="curve" smooth="yes"/>
	  <point x="448" y="293"/>
	  <point x="462" y="291"/>
	  <point x="467" y="281" type="curve" smooth="yes"/>
	  <point x="470" y="276"/>
	  <point x="468" y="265"/>
	  <point x="471" y="260" type="curve" smooth="yes"/>
	  <point x="476" y="250"/>
	  <point x="489" y="249"/>
	  <point x="489" y="234" type="curve" smooth="yes"/>
	  <point x="489" y="230"/>
	  <point x="488" y="226"/>
	  <point x="488" y="223" type="curve" smooth="yes"/>
	  <point x="488" y="210"/>
	  <point x="501" y="202"/>
	  <point x="501" y="191" type="curve" smooth="yes"/>
	  <point x="501" y="185"/>
	  <point x="495" y="178"/>
	  <point x="495" y="172" type="curve" smooth="yes"/>
	  <point x="495" y="164"/>
	  <point x="501" y="156"/>
	  <point x="501" y="149" type="curve"/>
	  <point x="499" y="139"/>
	  <point x="488" y="137"/>
	  <point x="488" y="124" type="curve" smooth="yes"/>
	  <point x="488" y="120"/>
	  <point x="489" y="115"/>
	  <point x="489" y="110" type="curve" smooth="yes"/>
	  <point x="489" y="93"/>
	  <point x="478" y="95"/>
	  <point x="472" y="85" type="curve" smooth="yes"/>
	  <point x="468" y="78"/>
	  <point x="468" y="66"/>
	  <point x="463" y="59" type="curve" smooth="yes"/>
	  <point x="458" y="53"/>
	  <point x="450" y="53"/>
	  <point x="445" y="48" type="curve" smooth="yes"/>
	  <point x="439" y="42"/>
	  <point x="436" y="31"/>
	  <point x="429" y="27" type="curve" smooth="yes"/>
	  <point x="423" y="22"/>
	  <point x="412" y="21"/>
	  <point x="405" y="17" type="curve"/>
	  <point x="397" y="13"/>
	  <point x="396" y="2"/>
	  <point x="382" y="2" type="curve" smooth="yes"/>
	  <point x="378" y="2"/>
	  <point x="375" y="3"/>
	  <point x="371" y="3" type="curve" smooth="yes"/>
	  <point x="369" y="3"/>
	  <point x="367" y="3"/>
	  <point x="365" y="2" type="curve" smooth="yes"/>
	</contour>
	<contour>
	  <point x="252" y="292"/>
	  <point x="198" y="239"/>
	  <point x="198" y="173" type="curve" smooth="yes"/>
	  <point x="198" y="107"/>
	  <point x="252" y="54"/>
	  <point x="317" y="54" type="curve" smooth="yes"/>
	  <point x="383" y="54"/>
	  <point x="436" y="107"/>
	  <point x="436" y="173" type="curve" smooth="yes"/>
	  <point x="436" y="239"/>
	  <point x="383" y="292"/>
	  <point x="317" y="292" type="curve" smooth="yes"/>
	</contour>
	<contour>
	  <point x="348" y="204" type="line"/>
	  <point x="348" y="82" type="line"/>
	  <point x="288" y="82" type="line"/>
	  <point x="288" y="204" type="line"/>
	  <point x="250" y="204" type="line"/>
	  <point x="250" y="252" type="line"/>
	  <point x="384" y="252" type="line"/>
	  <point x="384" y="204" type="line"/>
	</contour>
  </outline>
</glyph>
<glyph name="fi" format="1">
  <advance width="475"/>
  <unicode hex="FB01"/>
  <outline>
	<contour>
	  <point x="236" y="350" type="line"/>
	  <point x="325" y="350" type="line"/>
	  <point x="325" y="400" type="line"/>
	  <point x="236" y="400" type="line"/>
	</contour>
	<component base="f.alt"/>
	<component base="dotlessi" xOffset="247"/>
  </outline>
</glyph>
<glyph name="_216" format="1">
  <advance width="610"/>
  <outline>
	<contour>
	  <point x="200" y="434"/>
	  <point x="222" y="470"/>
	  <point x="250" y="470" type="curve" smooth="yes"/>
	  <point x="281" y="470"/>
	  <point x="305" y="434"/>
	  <point x="305" y="390" type="curve" smooth="yes"/>
	  <point x="305" y="336"/>
	  <point x="297" y="241"/>
	  <point x="5" y="240" type="curve"/>
	  <point x="25" y="207" type="line"/>
	  <point x="267" y="207"/>
	  <point x="415" y="295"/>
	  <point x="415" y="390" type="curve" smooth="yes"/>
	  <point x="415" y="451"/>
	  <point x="341" y="500"/>
	  <point x="250" y="500" type="curve" smooth="yes"/>
	  <point x="162" y="500"/>
	  <point x="90" y="451"/>
	  <point x="90" y="390" type="curve"/>
	  <point x="90" y="249"/>
	  <point x="347" y="171"/>
	  <point x="440" y="160" type="curve"/>
	  <point x="440" y="0" type="line"/>
	  <point x="540" y="0" type="line"/>
	  <point x="540" y="470" type="line"/>
	  <point x="620" y="470" type="line"/>
	  <point x="620" y="500" type="line"/>
	  <point x="390" y="500" type="line"/>
	  <point x="390" y="470" type="line"/>
	  <point x="440" y="470" type="line"/>
	  <point x="440" y="195" type="line"/>
	  <point x="417" y="198"/>
	  <point x="200" y="231"/>
	  <point x="200" y="390" type="curve"/>
	</contour>
	<contour>
	  <point x="210" y="0" type="move" name="nukta"/>
	</contour>
	<contour>
	  <point x="490" y="0" type="move" name="bottom"/>
	</contour>
	<contour>
	  <point x="490" y="500" type="move" name="top"/>
	</contour>
  </outline>
</glyph>
<glyph name="acute.case" format="1">
  <advance width="208"/>
  <outline>
	<contour>
	  <point x="74" y="553" type="line"/>
	  <point x="213" y="645" type="line"/>
	  <point x="154" y="714" type="line"/>
	  <point x="54" y="575" type="line"/>
	</contour>
	<contour>
	  <point x="108" y="512" type="move" name="_top"/>
	</contour>
  </outline>
</glyph>
<glyph name="aiMatra_reph-deva" format="1">
  <advance width="0"/>
  <outline>
	<contour>
	  <point x="-369" y="695" type="line"/>
	  <point x="-236" y="695"/>
	  <point x="-173" y="587"/>
	  <point x="-155" y="528" type="curve"/>
	  <point x="-159" y="528" type="line"/>
	  <point x="-221" y="618"/>
	  <point x="-297" y="660"/>
	  <point x="-366" y="660" type="curve"/>
	  <point x="-431" y="610" type="line"/>
	  <point x="-267" y="610"/>
	  <point x="-251" y="495"/>
	  <point x="-120" y="495" type="curve"/>
	  <point x="-102" y="533" type="line"/>
	  <point x="-160" y="582"/>
	  <point x="-148" y="726"/>
	  <point x="-304" y="745" type="curve"/>
	</contour>
	<contour>
	  <point x="-116" y="749"/>
	  <point x="-170" y="730"/>
	  <point x="-210" y="652" type="curve"/>
	  <point x="-120" y="495" type="line"/>
	  <point x="-50" y="525" type="line"/>
	  <point x="-117" y="547"/>
	  <point x="-142" y="590"/>
	  <point x="-142" y="635" type="curve" smooth="yes"/>
	  <point x="-142" y="676"/>
	  <point x="-117" y="709"/>
	  <point x="-87" y="709" type="curve" smooth="yes"/>
	  <point x="-55" y="709"/>
	  <point x="-13" y="669"/>
	  <point x="18" y="669" type="curve"/>
	  <point x="68" y="709" type="line"/>
	  <point x="35" y="709"/>
	  <point x="-9" y="749"/>
	  <point x="-42" y="749" type="curve" smooth="yes"/>
	</contour>
	<contour>
	  <point x="-126" y="500" type="move" name="_top"/>
	</contour>
  </outline>
</glyph>
<glyph name="barra" format="1">
  <advance width="292"/>
  <outline>
	<contour>
	  <point x="292" y="208" type="line"/>
	  <point x="292" y="271" type="line"/>
	  <point x="0" y="271" type="line"/>
	  <point x="0" y="208" type="line"/>
	</contour>
  </outline>
</glyph>
<glyph name="bh-deva" format="1">
  <advance width="412"/>
  <outline>
	<contour>
	  <point x="97" y="530"/>
	  <point x="27" y="487"/>
	  <point x="27" y="435" type="curve" smooth="yes"/>
	  <point x="27" y="394"/>
	  <point x="83" y="360"/>
	  <point x="152" y="360" type="curve"/>
	  <point x="177" y="385" type="line"/>
	  <point x="154" y="385"/>
	  <point x="137" y="409"/>
	  <point x="137" y="440" type="curve" smooth="yes"/>
	  <point x="137" y="473"/>
	  <point x="157" y="500"/>
	  <point x="182" y="500" type="curve" smooth="yes"/>
	  <point x="207" y="500"/>
	  <point x="227" y="469"/>
	  <point x="227" y="430" type="curve" smooth="yes"/>
	  <point x="227" y="300" type="line"/>
	  <point x="192" y="300" type="line" smooth="yes"/>
	  <point x="101" y="300"/>
	  <point x="27" y="251"/>
	  <point x="27" y="190" type="curve" smooth="yes"/>
	  <point x="27" y="118"/>
	  <point x="101" y="60"/>
	  <point x="192" y="60" type="curve" smooth="yes"/>
	  <point x="267" y="60"/>
	  <point x="327" y="105"/>
	  <point x="327" y="160" type="curve" smooth="yes"/>
	  <point x="327" y="260" type="line"/>
	  <point x="432" y="260" type="line"/>
	  <point x="432" y="300" type="line"/>
	  <point x="327" y="300" type="line"/>
	  <point x="327" y="430" type="line" smooth="yes"/>
	  <point x="327" y="485"/>
	  <point x="262" y="530"/>
	  <point x="182" y="530" type="curve" smooth="yes"/>
	</contour>
	<contour>
	  <point x="227" y="150" type="line" smooth="yes"/>
	  <point x="227" y="120"/>
	  <point x="211" y="95"/>
	  <point x="192" y="95" type="curve" smooth="yes"/>
	  <point x="161" y="95"/>
	  <point x="137" y="138"/>
	  <point x="137" y="190" type="curve" smooth="yes"/>
	  <point x="137" y="229"/>
	  <point x="168" y="260"/>
	  <point x="207" y="260" type="curve" smooth="yes"/>
	  <point x="227" y="260" type="line"/>
	</contour>
	<contour>
	  <point x="372" y="500" type="line"/>
	  <point x="372" y="470" type="line"/>
	  <point x="422" y="470" type="line"/>
	  <point x="422" y="500" type="line"/>
	</contour>
  </outline>
</glyph>
<glyph name="bh_ra-deva" format="1">
  <advance width="602"/>
  <outline>
	<component base="bha-deva"/>
	<component base="ra-deva.post" xOffset="602"/>
	<contour>
	  <point x="192" y="-55" type="move" name="nukta"/>
	</contour>
	<contour>
	  <point x="482" y="0" type="move" name="bottom"/>
	</contour>
	<contour>
	  <point x="482" y="500" type="move" name="top"/>
	</contour>
  </outline>
</glyph>
<glyph name="breve.case" format="1">
  <advance width="282"/>
  <outline>
	<contour>
	  <point x="201" y="676" type="line"/>
	  <point x="201" y="641"/>
	  <point x="183" y="618"/>
	  <point x="140" y="618" type="curve" smooth="yes"/>
	  <point x="97" y="618"/>
	  <point x="78" y="641"/>
	  <point x="78" y="676" type="curve"/>
	  <point x="37" y="676" type="line"/>
	  <point x="37" y="618"/>
	  <point x="55" y="557"/>
	  <point x="140" y="557" type="curve" smooth="yes"/>
	  <point x="226" y="557"/>
	  <point x="244" y="618"/>
	  <point x="244" y="676" type="curve"/>
	</contour>
	<contour>
	  <point x="141" y="512" type="move" name="_top"/>
	</contour>
  </outline>
</glyph>
<glyph name="c-deva" format="1">
  <advance width="358"/>
  <outline>
	<contour>
	  <point x="8" y="385" type="line"/>
	  <point x="8" y="350" type="line"/>
	  <point x="208" y="350" type="line"/>
	  <point x="124" y="335"/>
	  <point x="63" y="272"/>
	  <point x="63" y="200" type="curve" smooth="yes"/>
	  <point x="63" y="109"/>
	  <point x="128" y="50"/>
	  <point x="228" y="50" type="curve" smooth="yes"/>
	  <point x="293" y="50"/>
	  <point x="353" y="85"/>
	  <point x="378" y="140" type="curve"/>
	  <point x="378" y="220" type="line"/>
	  <point x="365" y="148"/>
	  <point x="313" y="95"/>
	  <point x="253" y="95" type="curve" smooth="yes"/>
	  <point x="204" y="95"/>
	  <point x="163" y="144"/>
	  <point x="163" y="205" type="curve" smooth="yes"/>
	  <point x="163" y="285"/>
	  <point x="242" y="350"/>
	  <point x="338" y="350" type="curve"/>
	  <point x="338" y="385" type="line"/>
	</contour>
	<contour>
	  <point x="-10" y="500" type="line"/>
	  <point x="-10" y="470" type="line"/>
	  <point x="368" y="470" type="line"/>
	  <point x="368" y="500" type="line"/>
	</contour>
  </outline>
</glyph>
<glyph name="caron.case" format="1">
  <advance width="265"/>
  <outline>
	<contour>
	  <point x="110" y="550" type="line"/>
	  <point x="155" y="550" type="line"/>
	  <point x="235" y="675" type="line"/>
	  <point x="209" y="699" type="line"/>
	  <point x="132" y="628" type="line"/>
	  <point x="57" y="699" type="line"/>
	  <point x="29" y="675" type="line"/>
	</contour>
	<contour>
	  <point x="132" y="512" type="move" name="_top"/>
	</contour>
  </outline>
</glyph>
<glyph name="ch-deva" format="1">
  <advance width="532"/>
  <outline>
	<contour>
	  <point x="-10" y="500" type="line"/>
	  <point x="-10" y="470" type="line"/>
	  <point x="62" y="470" type="line"/>
	  <point x="49" y="454"/>
	  <point x="42" y="432"/>
	  <point x="42" y="405" type="curve" smooth="yes"/>
	  <point x="42" y="362"/>
	  <point x="83" y="322"/>
	  <point x="162" y="310" type="curve"/>
	  <point x="94" y="305"/>
	  <point x="42" y="243"/>
	  <point x="42" y="170" type="curve" smooth="yes"/>
	  <point x="42" y="77"/>
	  <point x="155" y="0"/>
	  <point x="294" y="0" type="curve" smooth="yes"/>
	  <point x="437" y="0"/>
	  <point x="552" y="103"/>
	  <point x="552" y="230" type="curve" smooth="yes"/>
	  <point x="552" y="362"/>
	  <point x="484" y="417"/>
	  <point x="402" y="417" type="curve"/>
	  <point x="321" y="417"/>
	  <point x="262" y="349"/>
	  <point x="262" y="285" type="curve" smooth="yes"/>
	  <point x="262" y="168"/>
	  <point x="347" y="114"/>
	  <point x="455" y="106" type="curve"/>
	  <point x="456" y="134" type="line"/>
	  <point x="400" y="140"/>
	  <point x="372" y="201"/>
	  <point x="372" y="279" type="curve" smooth="yes"/>
	  <point x="372" y="313"/>
	  <point x="381" y="380"/>
	  <point x="402" y="380" type="curve" smooth="yes"/>
	  <point x="428" y="380"/>
	  <point x="442" y="314"/>
	  <point x="442" y="260" type="curve"/>
	  <point x="442" y="73"/>
	  <point x="364" y="30"/>
	  <point x="292" y="30" type="curve" smooth="yes"/>
	  <point x="215" y="30"/>
	  <point x="152" y="95"/>
	  <point x="152" y="175" type="curve" smooth="yes"/>
	  <point x="152" y="242"/>
	  <point x="186" y="295"/>
	  <point x="237" y="300" type="curve"/>
	  <point x="237" y="320" type="line"/>
	  <point x="186" y="329"/>
	  <point x="152" y="364"/>
	  <point x="152" y="405" type="curve" smooth="yes"/>
	  <point x="152" y="436"/>
	  <point x="163" y="462"/>
	  <point x="182" y="470" type="curve"/>
	  <point x="542" y="470" type="line"/>
	  <point x="542" y="500" type="line"/>
	</contour>
  </outline>
</glyph>
<glyph name="ch_va-deva" format="1">
  <advance width="553"/>
  <outline>
	<contour>
	  <point x="-10" y="500" type="line"/>
	  <point x="-10" y="470" type="line"/>
	  <point x="98" y="470" type="line"/>
	  <point x="75" y="458"/>
	  <point x="68" y="434"/>
	  <point x="68" y="418" type="curve" smooth="yes"/>
	  <point x="68" y="389"/>
	  <point x="105" y="353"/>
	  <point x="158" y="349" type="curve"/>
	  <point x="86" y="349"/>
	  <point x="28" y="308"/>
	  <point x="28" y="256" type="curve" smooth="yes"/>
	  <point x="28" y="188"/>
	  <point x="129" y="130"/>
	  <point x="253" y="130" type="curve" smooth="yes"/>
	  <point x="276" y="130"/>
	  <point x="307" y="134"/>
	  <point x="318" y="137" type="curve"/>
	  <point x="318" y="-7" type="line"/>
	  <point x="304" y="-42"/>
	  <point x="255" y="-64"/>
	  <point x="208" y="-64" type="curve" smooth="yes"/>
	  <point x="167" y="-64"/>
	  <point x="143" y="-34"/>
	  <point x="143" y="3" type="curve" smooth="yes"/>
	  <point x="143" y="42"/>
	  <point x="163" y="73"/>
	  <point x="188" y="73" type="curve" smooth="yes"/>
	  <point x="207" y="73"/>
	  <point x="223" y="53"/>
	  <point x="223" y="29" type="curve"/>
	  <point x="313" y="52" type="line"/>
	  <point x="300" y="81"/>
	  <point x="256" y="101"/>
	  <point x="203" y="101" type="curve" smooth="yes"/>
	  <point x="118" y="101"/>
	  <point x="48" y="55"/>
	  <point x="48" y="-2" type="curve" smooth="yes"/>
	  <point x="48" y="-59"/>
	  <point x="98" y="-105"/>
	  <point x="183" y="-105" type="curve" smooth="yes"/>
	  <point x="226" y="-105"/>
	  <point x="280" y="-88"/>
	  <point x="318" y="-56" type="curve"/>
	  <point x="318" y="-120" type="line"/>
	  <point x="418" y="-120" type="line"/>
	  <point x="418" y="160" type="line"/>
	  <point x="485" y="188"/>
	  <point x="528" y="244"/>
	  <point x="528" y="301" type="curve" smooth="yes"/>
	  <point x="528" y="353"/>
	  <point x="501" y="397"/>
	  <point x="458" y="412" type="curve"/>
	  <point x="458" y="470" type="line"/>
	  <point x="563" y="470" type="line"/>
	  <point x="563" y="500" type="line"/>
	</contour>
	<contour>
	  <point x="358" y="416" type="line"/>
	  <point x="294" y="405"/>
	  <point x="248" y="360"/>
	  <point x="248" y="309" type="curve" smooth="yes"/>
	  <point x="248" y="242"/>
	  <point x="313" y="201"/>
	  <point x="383" y="194" type="curve"/>
	  <point x="358" y="174"/>
	  <point x="326" y="164"/>
	  <point x="273" y="164" type="curve" smooth="yes"/>
	  <point x="193" y="164"/>
	  <point x="128" y="205"/>
	  <point x="128" y="256" type="curve" smooth="yes"/>
	  <point x="128" y="303"/>
	  <point x="169" y="337"/>
	  <point x="223" y="337" type="curve"/>
	  <point x="223" y="360" type="line"/>
	  <point x="192" y="360"/>
	  <point x="168" y="383"/>
	  <point x="168" y="412" type="curve" smooth="yes"/>
	  <point x="168" y="436"/>
	  <point x="184" y="458"/>
	  <point x="208" y="470" type="curve"/>
	  <point x="358" y="470" type="line"/>
	</contour>
	<contour>
	  <point x="411" y="389"/>
	  <point x="428" y="359"/>
	  <point x="428" y="311" type="curve" smooth="yes"/>
	  <point x="428" y="282"/>
	  <point x="423" y="249"/>
	  <point x="403" y="220" type="curve"/>
	  <point x="376" y="230"/>
	  <point x="348" y="264"/>
	  <point x="348" y="311" type="curve" smooth="yes"/>
	  <point x="348" y="358"/>
	  <point x="365" y="389"/>
	  <point x="388" y="389" type="curve" smooth="yes"/>
	</contour>
	<contour>
	  <point x="90" y="-173" type="move" name="nukta"/>
	</contour>
	<contour>
	  <point x="368" y="-120" type="move" name="bottom"/>
	</contour>
	<contour>
	  <point x="408" y="500" type="move" name="top"/>
	</contour>
  </outline>
</glyph>
<glyph name="commaaccent" format="1">
  <advance width="191"/>
  <outline>
	<component base="comma" xOffset="18" yOffset="-139"/>
	<contour>
	  <point x="96" y="0" type="move" name="_bottom"/>
	</contour>
  </outline>
</glyph>
<glyph name="d_bha-deva" format="1">
  <advance width="660"/>
  <note>
	g250
  </note>
  <outline>
	<contour>
	  <point x="229" y="5" type="line"/>
	  <point x="207" y="94" type="line"/>
	  <point x="197" y="129"/>
	  <point x="161" y="145"/>
	  <point x="114" y="145" type="curve" smooth="yes"/>
	  <point x="48" y="145"/>
	  <point x="16" y="109"/>
	  <point x="16" y="75" type="curve" smooth="yes"/>
	  <point x="16" y="44"/>
	  <point x="42" y="15"/>
	  <point x="94" y="15" type="curve"/>
	  <point x="94" y="50" type="line"/>
	  <point x="77" y="50"/>
	  <point x="69" y="61"/>
	  <point x="69" y="71" type="curve" smooth="yes"/>
	  <point x="69" y="83"/>
	  <point x="78" y="95"/>
	  <point x="94" y="95" type="curve" smooth="yes"/>
	  <point x="103" y="95"/>
	  <point x="114" y="90"/>
	  <point x="120" y="66" type="curve"/>
	  <point x="139" y="-10" type="line"/>
	  <point x="106" y="-22"/>
	  <point x="84" y="-46"/>
	  <point x="84" y="-70" type="curve" smooth="yes"/>
	  <point x="84" y="-110"/>
	  <point x="123" y="-129"/>
	  <point x="162" y="-129" type="curve" smooth="yes"/>
	  <point x="203" y="-129"/>
	  <point x="244" y="-109"/>
	  <point x="244" y="-70" type="curve" smooth="yes"/>
	  <point x="244" y="-53"/>
	  <point x="242" y="-39"/>
	  <point x="239" y="-30" type="curve"/>
	  <point x="525" y="45" type="line"/>
	  <point x="510" y="78" type="line"/>
	</contour>
	<contour>
	  <point x="-10" y="500" type="line"/>
	  <point x="-10" y="470" type="line"/>
	  <point x="485" y="470" type="line"/>
	  <point x="485" y="390" type="line"/>
	  <point x="465" y="398"/>
	  <point x="442" y="402"/>
	  <point x="417" y="402" type="curve" smooth="yes"/>
	  <point x="321" y="402"/>
	  <point x="205" y="342"/>
	  <point x="205" y="220" type="curve" smooth="yes"/>
	  <point x="205" y="105"/>
	  <point x="284" y="30"/>
	  <point x="405" y="30" type="curve" smooth="yes"/>
	  <point x="430" y="30" type="line"/>
	  <point x="445" y="-1"/>
	  <point x="470" y="-35"/>
	  <point x="505" y="-70" type="curve"/>
	  <point x="590" y="-30" type="line"/>
	  <point x="562" y="-7"/>
	  <point x="540" y="18"/>
	  <point x="525" y="45" type="curve"/>
	  <point x="592" y="69"/>
	  <point x="635" y="119"/>
	  <point x="635" y="170" type="curve" smooth="yes"/>
	  <point x="635" y="227"/>
	  <point x="575" y="275"/>
	  <point x="500" y="275" type="curve" smooth="yes"/>
	  <point x="431" y="275"/>
	  <point x="375" y="226"/>
	  <point x="375" y="165" type="curve" smooth="yes"/>
	  <point x="375" y="134"/>
	  <point x="388" y="97"/>
	  <point x="415" y="60" type="curve"/>
	  <point x="360" y="60"/>
	  <point x="315" y="132"/>
	  <point x="315" y="220" type="curve" smooth="yes"/>
	  <point x="315" y="300"/>
	  <point x="366" y="365"/>
	  <point x="430" y="365" type="curve" smooth="yes"/>
	  <point x="457" y="365"/>
	  <point x="479" y="358"/>
	  <point x="495" y="345" type="curve"/>
	  <point x="585" y="366" type="line"/>
	  <point x="585" y="470" type="line"/>
	  <point x="670" y="470" type="line"/>
	  <point x="670" y="500" type="line"/>
	</contour>
	<contour>
	  <point x="517" y="240"/>
	  <point x="525" y="202"/>
	  <point x="525" y="170" type="curve" smooth="yes"/>
	  <point x="525" y="136"/>
	  <point x="524" y="107"/>
	  <point x="510" y="80" type="curve"/>
	  <point x="493" y="109"/>
	  <point x="485" y="142"/>
	  <point x="485" y="180" type="curve" smooth="yes"/>
	  <point x="485" y="201"/>
	  <point x="488" y="240"/>
	  <point x="500" y="240" type="curve" smooth="yes"/>
	</contour>
	<contour>
	  <point x="286" y="-80" type="move" name="nukta"/>
	</contour>
	<contour>
	  <point x="535" y="-56" type="move" name="bottom"/>
	</contour>
	<contour>
	  <point x="535" y="500" type="move" name="top"/>
	</contour>
  </outline>
</glyph>
<glyph name="d_dh_r_ya-deva" format="1">
  <advance width="1150"/>
  <outline>
	<contour>
	  <point x="508" y="500" type="line"/>
	  <point x="508" y="470" type="line"/>
	  <point x="980" y="470" type="line"/>
	  <point x="980" y="190" type="line"/>
	  <point x="960" y="135"/>
	  <point x="914" y="100"/>
	  <point x="865" y="100" type="curve" smooth="yes"/>
	  <point x="810" y="100"/>
	  <point x="765" y="158"/>
	  <point x="765" y="230" type="curve"/>
	  <point x="861" y="230"/>
	  <point x="940" y="275"/>
	  <point x="940" y="330" type="curve" smooth="yes"/>
	  <point x="940" y="382"/>
	  <point x="865" y="424"/>
	  <point x="725" y="424" type="curve" smooth="yes"/>
	  <point x="630" y="424"/>
	  <point x="547" y="402"/>
	  <point x="474" y="378" type="curve"/>
	  <point x="474" y="345" type="line"/>
	  <point x="557" y="377"/>
	  <point x="641" y="393"/>
	  <point x="725" y="393" type="curve" smooth="yes"/>
	  <point x="804" y="393"/>
	  <point x="830" y="363"/>
	  <point x="830" y="330" type="curve" smooth="yes"/>
	  <point x="830" y="289"/>
	  <point x="777" y="255"/>
	  <point x="710" y="255" type="curve" smooth="yes"/>
	  <point x="682" y="255"/>
	  <point x="660" y="239"/>
	  <point x="660" y="220" type="curve" smooth="yes"/>
	  <point x="660" y="129"/>
	  <point x="745" y="55"/>
	  <point x="850" y="55" type="curve" smooth="yes"/>
	  <point x="901" y="55"/>
	  <point x="949" y="81"/>
	  <point x="980" y="125" type="curve"/>
	  <point x="980" y="0" type="line"/>
	  <point x="1080" y="0" type="line"/>
	  <point x="1080" y="470" type="line"/>
	  <point x="1160" y="470" type="line"/>
	  <point x="1160" y="500" type="line"/>
	</contour>
	<contour>
	  <point x="394" y="60" type="line"/>
	  <point x="394" y="-41"/>
	  <point x="351" y="-80"/>
	  <point x="304" y="-80" type="curve" smooth="yes"/>
	  <point x="267" y="-80"/>
	  <point x="251" y="-58"/>
	  <point x="251" y="-33" type="curve" smooth="yes"/>
	  <point x="251" y="-16"/>
	  <point x="259" y="4"/>
	  <point x="274" y="18" type="curve"/>
	  <point x="234" y="34" type="line"/>
	  <point x="218" y="17"/>
	  <point x="192" y="7"/>
	  <point x="166" y="7" type="curve" smooth="yes"/>
	  <point x="132" y="7"/>
	  <point x="99" y="31"/>
	  <point x="99" y="80" type="curve" smooth="yes"/>
	  <point x="99" y="96"/>
	  <point x="106" y="110"/>
	  <point x="119" y="110" type="curve" smooth="yes"/>
	  <point x="133" y="110"/>
	  <point x="139" y="99"/>
	  <point x="139" y="88" type="curve" smooth="yes"/>
	  <point x="139" y="77"/>
	  <point x="134" y="65"/>
	  <point x="124" y="60" type="curve"/>
	  <point x="169" y="40" type="line"/>
	  <point x="184" y="51"/>
	  <point x="192" y="68"/>
	  <point x="192" y="86" type="curve" smooth="yes"/>
	  <point x="192" y="117"/>
	  <point x="165" y="150"/>
	  <point x="109" y="150" type="curve" smooth="yes"/>
	  <point x="53" y="150"/>
	  <point x="14" y="109"/>
	  <point x="14" y="65" type="curve" smooth="yes"/>
	  <point x="14" y="16"/>
	  <point x="53" y="-29"/>
	  <point x="133" y="-29" type="curve" smooth="yes"/>
	  <point x="146" y="-29"/>
	  <point x="159" y="-28"/>
	  <point x="174" y="-25" type="curve"/>
	  <point x="174" y="-39"/>
	  <point x="192" y="-120"/>
	  <point x="289" y="-120" type="curve" smooth="yes"/>
	  <point x="345" y="-120"/>
	  <point x="430" y="-86"/>
	  <point x="431" y="60" type="curve"/>
	</contour>
	<contour>
	  <point x="-10" y="500" type="line"/>
	  <point x="-10" y="470" type="line"/>
	  <point x="464" y="470" type="line"/>
	  <point x="464" y="390" type="line"/>
	  <point x="444" y="398"/>
	  <point x="421" y="402"/>
	  <point x="396" y="402" type="curve" smooth="yes"/>
	  <point x="300" y="402"/>
	  <point x="184" y="342"/>
	  <point x="184" y="220" type="curve" smooth="yes"/>
	  <point x="184" y="105"/>
	  <point x="263" y="30"/>
	  <point x="384" y="30" type="curve" smooth="yes"/>
	  <point x="409" y="30" type="line"/>
	  <point x="424" y="-1"/>
	  <point x="449" y="-35"/>
	  <point x="484" y="-70" type="curve"/>
	  <point x="569" y="-30" type="line"/>
	  <point x="541" y="-7"/>
	  <point x="519" y="18"/>
	  <point x="504" y="45" type="curve"/>
	  <point x="571" y="69"/>
	  <point x="614" y="119"/>
	  <point x="614" y="170" type="curve" smooth="yes"/>
	  <point x="614" y="227"/>
	  <point x="554" y="275"/>
	  <point x="479" y="275" type="curve" smooth="yes"/>
	  <point x="410" y="275"/>
	  <point x="354" y="226"/>
	  <point x="354" y="165" type="curve" smooth="yes"/>
	  <point x="354" y="134"/>
	  <point x="367" y="97"/>
	  <point x="394" y="60" type="curve"/>
	  <point x="339" y="60"/>
	  <point x="294" y="132"/>
	  <point x="294" y="220" type="curve" smooth="yes"/>
	  <point x="294" y="300"/>
	  <point x="345" y="365"/>
	  <point x="409" y="365" type="curve" smooth="yes"/>
	  <point x="436" y="365"/>
	  <point x="458" y="358"/>
	  <point x="474" y="345" type="curve"/>
	  <point x="564" y="386" type="line"/>
	  <point x="564" y="470" type="line"/>
	  <point x="650" y="470" type="line"/>
	  <point x="650" y="500" type="line"/>
	</contour>
	<contour>
	  <point x="496" y="240"/>
	  <point x="504" y="202"/>
	  <point x="504" y="170" type="curve" smooth="yes"/>
	  <point x="504" y="136"/>
	  <point x="503" y="107"/>
	  <point x="489" y="80" type="curve"/>
	  <point x="472" y="109"/>
	  <point x="464" y="142"/>
	  <point x="464" y="180" type="curve" smooth="yes"/>
	  <point x="464" y="201"/>
	  <point x="467" y="240"/>
	  <point x="479" y="240" type="curve" smooth="yes"/>
	</contour>
	<contour>
	  <point x="83" y="-173" type="line"/>
	  <point x="101" y="-217" type="line"/>
	  <point x="346" y="-108" type="line"/>
	  <point x="346" y="-71" type="line"/>
	</contour>
	<contour>
	  <point x="265" y="-80" type="move" name="nukta"/>
	</contour>
	<contour>
	  <point x="514" y="-56" type="move" name="bottom"/>
	</contour>
	<contour>
	  <point x="514" y="500" type="move" name="top"/>
	</contour>
  </outline>
</glyph>
<glyph name="d_ga-deva" format="1">
  <advance width="486"/>
  <outline>
	<contour>
	  <point x="97" y="80" type="line"/>
	  <point x="128" y="50"/>
	  <point x="139" y="24"/>
	  <point x="139" y="-10" type="curve"/>
	  <point x="129" y="-3"/>
	  <point x="117" y="-1"/>
	  <point x="105" y="-1" type="curve" smooth="yes"/>
	  <point x="63" y="-1"/>
	  <point x="30" y="-35"/>
	  <point x="30" y="-71" type="curve" smooth="yes"/>
	  <point x="30" y="-110"/>
	  <point x="61" y="-137"/>
	  <point x="106" y="-137" type="curve" smooth="yes"/>
	  <point x="170" y="-137"/>
	  <point x="212" y="-97"/>
	  <point x="212" y="-33" type="curve" smooth="yes"/>
	  <point x="212" y="6"/>
	  <point x="193" y="53"/>
	  <point x="152" y="80" type="curve"/>
	</contour>
	<contour>
	  <point x="127" y="-37"/>
	  <point x="136" y="-51"/>
	  <point x="136" y="-69" type="curve" smooth="yes"/>
	  <point x="136" y="-87"/>
	  <point x="127" y="-101"/>
	  <point x="115" y="-101" type="curve"/>
	  <point x="103" y="-101"/>
	  <point x="94" y="-87"/>
	  <point x="94" y="-69" type="curve" smooth="yes"/>
	  <point x="94" y="-51"/>
	  <point x="103" y="-37"/>
	  <point x="115" y="-37" type="curve"/>
	</contour>
	<component base="da-deva"/>
	<contour>
	  <point x="112" y="-80" type="move" name="nukta"/>
	</contour>
	<contour>
	  <point x="361" y="-56" type="move" name="bottom"/>
	</contour>
	<contour>
	  <point x="361" y="500" type="move" name="top"/>
	</contour>
  </outline>
</glyph>
<glyph name="d_na-deva" format="1">
  <advance width="486"/>
  <outline>
	<contour>
	  <point x="164" y="-38"/>
	  <point x="179" y="-63"/>
	  <point x="179" y="-93" type="curve" smooth="yes"/>
	  <point x="179" y="-126"/>
	  <point x="162" y="-151"/>
	  <point x="138" y="-151" type="curve" smooth="yes"/>
	  <point x="118" y="-151"/>
	  <point x="102" y="-125"/>
	  <point x="102" y="-95" type="curve" smooth="yes"/>
	  <point x="102" y="-62"/>
	  <point x="120" y="-38"/>
	  <point x="144" y="-38" type="curve" smooth="yes"/>
	</contour>
	<contour>
	  <point x="312" y="67" type="line"/>
	  <point x="126" y="-1" type="line" smooth="yes"/>
	  <point x="51" y="-28"/>
	  <point x="28" y="-64"/>
	  <point x="28" y="-102" type="curve" smooth="yes"/>
	  <point x="28" y="-155"/>
	  <point x="87" y="-183"/>
	  <point x="137" y="-184" type="curve" smooth="yes"/>
	  <point x="190" y="-184"/>
	  <point x="253" y="-149"/>
	  <point x="253" y="-91" type="curve" smooth="yes"/>
	  <point x="253" y="-60"/>
	  <point x="231" y="-29"/>
	  <point x="193" y="-18" type="curve"/>
	  <point x="309" y="25" type="line"/>
	</contour>
	<component base="da-deva"/>
	<contour>
	  <point x="112" y="-70" type="move" name="nukta"/>
	</contour>
	<contour>
	  <point x="361" y="-46" type="move" name="bottom"/>
	</contour>
	<contour>
	  <point x="361" y="510" type="move" name="top"/>
	</contour>
  </outline>
</glyph>
<glyph name="d_rVocalicMatra-deva" format="1">
  <advance width="486"/>
  <outline>
	<contour>
	  <point x="306" y="-40" type="line" smooth="yes"/>
	  <point x="206" y="-40"/>
	  <point x="136" y="-98"/>
	  <point x="136" y="-170" type="curve" smooth="yes"/>
	  <point x="136" y="-237"/>
	  <point x="218" y="-290"/>
	  <point x="321" y="-290" type="curve" smooth="yes"/>
	  <point x="386" y="-290"/>
	  <point x="439" y="-272"/>
	  <point x="466" y="-240" type="curve"/>
	  <point x="416" y="-200" type="line"/>
	  <point x="394" y="-228"/>
	  <point x="361" y="-245"/>
	  <point x="323" y="-245" type="curve" smooth="yes"/>
	  <point x="274" y="-245"/>
	  <point x="236" y="-207"/>
	  <point x="236" y="-160" type="curve" smooth="yes"/>
	  <point x="236" y="-111"/>
	  <point x="279" y="-70"/>
	  <point x="331" y="-70" type="curve"/>
	  <point x="331" y="-40" type="line"/>
	</contour>
	<component base="da-deva"/>
	<contour>
	  <point x="112" y="-30" type="move" name="nukta"/>
	</contour>
	<contour>
	  <point x="321" y="-290" type="move" name="bottom"/>
	</contour>
	<contour>
	  <point x="361" y="500" type="move" name="top"/>
	</contour>
  </outline>
</glyph>
<glyph name="d_ra-deva" format="1">
  <advance width="486"/>
  <outline>
	<contour>
	  <point x="50" y="-42" type="line"/>
	  <point x="72" y="-85" type="line"/>
	  <point x="321" y="37" type="line"/>
	  <point x="331" y="86" type="line"/>
	</contour>
	<component base="da-deva"/>
	<contour>
	  <point x="112" y="-80" type="move" name="nukta"/>
	</contour>
	<contour>
	  <point x="361" y="-56" type="move" name="bottom"/>
	</contour>
	<contour>
	  <point x="361" y="500" type="move" name="top"/>
	</contour>
  </outline>
</glyph>
<glyph name="dd_ya-deva" format="1">
  <advance width="977"/>
  <outline>
	<contour>
	  <point x="-10" y="500" type="line"/>
	  <point x="-10" y="470" type="line"/>
	  <point x="301" y="470" type="line"/>
	  <point x="301" y="410" type="line"/>
	  <point x="284" y="419"/>
	  <point x="254" y="424"/>
	  <point x="221" y="424" type="curve" smooth="yes"/>
	  <point x="150" y="424"/>
	  <point x="66" y="399"/>
	  <point x="66" y="330" type="curve" smooth="yes"/>
	  <point x="66" y="199"/>
	  <point x="341" y="214"/>
	  <point x="341" y="120" type="curve" smooth="yes"/>
	  <point x="341" y="65"/>
	  <point x="293" y="30"/>
	  <point x="236" y="30" type="curve" smooth="yes"/>
	  <point x="179" y="30"/>
	  <point x="121" y="68"/>
	  <point x="121" y="160" type="curve" smooth="yes"/>
	  <point x="121" y="168"/>
	  <point x="124" y="188"/>
	  <point x="131" y="200" type="curve"/>
	  <point x="117" y="205"/>
	  <point x="104" y="207"/>
	  <point x="92" y="207" type="curve" smooth="yes"/>
	  <point x="50" y="207"/>
	  <point x="21" y="182"/>
	  <point x="21" y="140" type="curve" smooth="yes"/>
	  <point x="21" y="53"/>
	  <point x="116" y="0"/>
	  <point x="236" y="0" type="curve" smooth="yes"/>
	  <point x="354" y="0"/>
	  <point x="451" y="60"/>
	  <point x="451" y="135" type="curve" smooth="yes"/>
	  <point x="451" y="296"/>
	  <point x="176" y="276"/>
	  <point x="176" y="350" type="curve" smooth="yes"/>
	  <point x="176" y="376"/>
	  <point x="204" y="389"/>
	  <point x="237" y="389" type="curve" smooth="yes"/>
	  <point x="265" y="389"/>
	  <point x="297" y="379"/>
	  <point x="316" y="360" type="curve"/>
	  <point x="401" y="395" type="line"/>
	  <point x="401" y="470" type="line"/>
	  <point x="487" y="470" type="line"/>
	  <point x="487" y="500" type="line"/>
	</contour>
	<contour>
	  <point x="335" y="500" type="line"/>
	  <point x="335" y="470" type="line"/>
	  <point x="807" y="470" type="line"/>
	  <point x="807" y="190" type="line"/>
	  <point x="787" y="135"/>
	  <point x="741" y="100"/>
	  <point x="692" y="100" type="curve" smooth="yes"/>
	  <point x="637" y="100"/>
	  <point x="592" y="158"/>
	  <point x="592" y="230" type="curve"/>
	  <point x="688" y="230"/>
	  <point x="767" y="275"/>
	  <point x="767" y="330" type="curve" smooth="yes"/>
	  <point x="767" y="382"/>
	  <point x="692" y="424"/>
	  <point x="552" y="424" type="curve" smooth="yes"/>
	  <point x="463" y="424"/>
	  <point x="385" y="409"/>
	  <point x="316" y="393" type="curve"/>
	  <point x="316" y="360" type="line"/>
	  <point x="394" y="382"/>
	  <point x="473" y="393"/>
	  <point x="552" y="393" type="curve" smooth="yes"/>
	  <point x="631" y="393"/>
	  <point x="657" y="363"/>
	  <point x="657" y="330" type="curve" smooth="yes"/>
	  <point x="657" y="289"/>
	  <point x="604" y="255"/>
	  <point x="537" y="255" type="curve" smooth="yes"/>
	  <point x="509" y="255"/>
	  <point x="487" y="239"/>
	  <point x="487" y="220" type="curve" smooth="yes"/>
	  <point x="487" y="129"/>
	  <point x="572" y="55"/>
	  <point x="677" y="55" type="curve" smooth="yes"/>
	  <point x="728" y="55"/>
	  <point x="776" y="81"/>
	  <point x="807" y="125" type="curve"/>
	  <point x="807" y="0" type="line"/>
	  <point x="907" y="0" type="line"/>
	  <point x="907" y="470" type="line"/>
	  <point x="987" y="470" type="line"/>
	  <point x="987" y="500" type="line"/>
	</contour>
	<contour>
	  <point x="236" y="-100" type="move" name="nukta"/>
	</contour>
	<contour>
	  <point x="857" y="0" type="move" name="bottom"/>
	</contour>
	<contour>
	  <point x="857" y="500" type="move" name="top"/>
	</contour>
  </outline>
</glyph>
<glyph name="ddh_ddha-deva" format="1">
  <advance width="540"/>
  <outline>
	<contour>
	  <point x="-10" y="500" type="line"/>
	  <point x="-10" y="470" type="line"/>
	  <point x="327" y="470" type="line"/>
	  <point x="327" y="416" type="line"/>
	  <point x="313" y="420"/>
	  <point x="291" y="424"/>
	  <point x="262" y="424" type="curve" smooth="yes"/>
	  <point x="124" y="424"/>
	  <point x="32" y="375"/>
	  <point x="32" y="300" type="curve" smooth="yes"/>
	  <point x="32" y="218"/>
	  <point x="130" y="164"/>
	  <point x="277" y="164" type="curve" smooth="yes"/>
	  <point x="414" y="164"/>
	  <point x="507" y="208"/>
	  <point x="507" y="273" type="curve" smooth="yes"/>
	  <point x="507" y="313"/>
	  <point x="439" y="350"/>
	  <point x="362" y="350" type="curve" smooth="yes"/>
	  <point x="287" y="350"/>
	  <point x="227" y="313"/>
	  <point x="227" y="267" type="curve" smooth="yes"/>
	  <point x="227" y="230"/>
	  <point x="259" y="209"/>
	  <point x="307" y="195" type="curve"/>
	  <point x="231" y="195"/>
	  <point x="142" y="207"/>
	  <point x="142" y="300" type="curve" smooth="yes"/>
	  <point x="142" y="352"/>
	  <point x="198" y="394"/>
	  <point x="262" y="394" type="curve" smooth="yes"/>
	  <point x="289" y="394"/>
	  <point x="311" y="389"/>
	  <point x="327" y="381" type="curve"/>
	  <point x="427" y="414" type="line"/>
	  <point x="427" y="470" type="line"/>
	  <point x="550" y="470" type="line"/>
	  <point x="550" y="500" type="line"/>
	</contour>
	<contour>
	  <point x="389" y="318"/>
	  <point x="407" y="295"/>
	  <point x="407" y="263" type="curve" smooth="yes"/>
	  <point x="407" y="233"/>
	  <point x="389" y="209"/>
	  <point x="367" y="209" type="curve"/>
	  <point x="345" y="209"/>
	  <point x="327" y="233"/>
	  <point x="327" y="263" type="curve" smooth="yes"/>
	  <point x="327" y="295"/>
	  <point x="345" y="318"/>
	  <point x="367" y="318" type="curve"/>
	</contour>
	<contour>
	  <point x="327" y="181" type="line"/>
	  <point x="327" y="117" type="line"/>
	  <point x="313" y="121"/>
	  <point x="291" y="125"/>
	  <point x="262" y="125" type="curve" smooth="yes"/>
	  <point x="124" y="125"/>
	  <point x="32" y="76"/>
	  <point x="32" y="1" type="curve" smooth="yes"/>
	  <point x="32" y="-81"/>
	  <point x="130" y="-135"/>
	  <point x="277" y="-135" type="curve" smooth="yes"/>
	  <point x="414" y="-135"/>
	  <point x="507" y="-91"/>
	  <point x="507" y="-26" type="curve" smooth="yes"/>
	  <point x="507" y="14"/>
	  <point x="439" y="51"/>
	  <point x="362" y="51" type="curve" smooth="yes"/>
	  <point x="287" y="51"/>
	  <point x="227" y="14"/>
	  <point x="227" y="-32" type="curve" smooth="yes"/>
	  <point x="227" y="-69"/>
	  <point x="259" y="-90"/>
	  <point x="307" y="-104" type="curve"/>
	  <point x="231" y="-104"/>
	  <point x="142" y="-92"/>
	  <point x="142" y="1" type="curve" smooth="yes"/>
	  <point x="142" y="53"/>
	  <point x="198" y="95"/>
	  <point x="262" y="95" type="curve" smooth="yes"/>
	  <point x="289" y="95"/>
	  <point x="311" y="90"/>
	  <point x="327" y="82" type="curve"/>
	  <point x="427" y="115" type="line"/>
	  <point x="427" y="201" type="line"/>
	</contour>
	<contour>
	  <point x="389" y="19"/>
	  <point x="407" y="-4"/>
	  <point x="407" y="-36" type="curve" smooth="yes"/>
	  <point x="407" y="-66"/>
	  <point x="389" y="-90"/>
	  <point x="367" y="-90" type="curve"/>
	  <point x="345" y="-90"/>
	  <point x="327" y="-66"/>
	  <point x="327" y="-36" type="curve" smooth="yes"/>
	  <point x="327" y="-4"/>
	  <point x="345" y="19"/>
	  <point x="367" y="19" type="curve"/>
	</contour>
	<contour>
	  <point x="277" y="-200" type="move" name="nukta"/>
	</contour>
	<contour>
	  <point x="377" y="-135" type="move" name="bottom"/>
	</contour>
	<contour>
	  <point x="377" y="500" type="move" name="top"/>
	</contour>
  </outline>
</glyph>
<glyph name="dieresis.case" format="1">
  <advance width="279"/>
  <outline>
	<contour>
	  <point x="89" y="564"/>
	  <point x="114" y="589"/>
	  <point x="114" y="619" type="curve" smooth="yes"/>
	  <point x="114" y="649"/>
	  <point x="89" y="674"/>
	  <point x="59" y="674" type="curve" smooth="yes"/>
	  <point x="29" y="674"/>
	  <point x="5" y="649"/>
	  <point x="5" y="619" type="curve" smooth="yes"/>
	  <point x="5" y="590"/>
	  <point x="29" y="564"/>
	  <point x="59" y="564" type="curve" smooth="yes"/>
	</contour>
	<contour>
	  <point x="251" y="564"/>
	  <point x="275" y="589"/>
	  <point x="275" y="619" type="curve" smooth="yes"/>
	  <point x="275" y="649"/>
	  <point x="251" y="674"/>
	  <point x="220" y="674" type="curve" smooth="yes"/>
	  <point x="191" y="674"/>
	  <point x="166" y="649"/>
	  <point x="166" y="619" type="curve" smooth="yes"/>
	  <point x="166" y="590"/>
	  <point x="191" y="564"/>
	  <point x="220" y="564" type="curve" smooth="yes"/>
	</contour>
	<contour>
	  <point x="140" y="512" type="move" name="_top"/>
	</contour>
  </outline>
</glyph>
<glyph name="eMatra_reph-deva" format="1">
  <advance width="0"/>
  <outline>
	<contour>
	  <point x="-440" y="705" type="line"/>
	  <point x="-315" y="705"/>
	  <point x="-231" y="495"/>
	  <point x="-120" y="495" type="curve"/>
	  <point x="-214" y="644" type="line"/>
	  <point x="-269" y="700"/>
	  <point x="-324" y="750"/>
	  <point x="-375" y="750" type="curve"/>
	</contour>
	<contour>
	  <point x="-144" y="749"/>
	  <point x="-227" y="689"/>
	  <point x="-227" y="615" type="curve" smooth="yes"/>
	  <point x="-227" y="566"/>
	  <point x="-182" y="518"/>
	  <point x="-120" y="495" type="curve"/>
	  <point x="-50" y="525" type="line"/>
	  <point x="-117" y="547"/>
	  <point x="-142" y="590"/>
	  <point x="-142" y="635" type="curve" smooth="yes"/>
	  <point x="-142" y="676"/>
	  <point x="-117" y="709"/>
	  <point x="-87" y="709" type="curve" smooth="yes"/>
	  <point x="-55" y="709"/>
	  <point x="-13" y="669"/>
	  <point x="18" y="669" type="curve"/>
	  <point x="68" y="709" type="line"/>
	  <point x="35" y="709"/>
	  <point x="-9" y="749"/>
	  <point x="-42" y="749" type="curve" smooth="yes"/>
	</contour>
	<contour>
	  <point x="-120" y="500" type="move" name="_top"/>
	</contour>
  </outline>
</glyph>
<glyph name="eslash" format="1">
  <advance width="205"/>
  <outline>
	<contour>
	  <point x="2" y="194" type="line"/>
	  <point x="202" y="274" type="line"/>
	  <point x="202" y="338" type="line"/>
	  <point x="2" y="257" type="line"/>
	</contour>
  </outline>
</glyph>
<glyph name="f.alt" format="1">
  <advance width="247"/>
  <outline>
	<contour>
	  <point x="387" y="505" type="line"/>
	  <point x="352" y="528"/>
	  <point x="299" y="550"/>
	  <point x="241" y="550" type="curve" smooth="yes"/>
	  <point x="134" y="550"/>
	  <point x="72" y="502"/>
	  <point x="72" y="400" type="curve" smooth="yes"/>
	  <point x="72" y="0" type="line"/>
	  <point x="171" y="0" type="line"/>
	  <point x="171" y="411" type="line" smooth="yes"/>
	  <point x="171" y="461"/>
	  <point x="199" y="492"/>
	  <point x="241" y="492" type="curve" smooth="yes"/>
	  <point x="291" y="492"/>
	  <point x="326" y="469"/>
	  <point x="352" y="436" type="curve"/>
	</contour>
	<contour>
	  <point x="8" y="350" type="line"/>
	  <point x="257" y="350" type="line"/>
	  <point x="257" y="400" type="line"/>
	  <point x="8" y="400" type="line"/>
	</contour>
  </outline>
</glyph>
